<?xml version="1.0" encoding="UTF-8" standalone="no"?>
<!-- Created with Inkscape (http://www.inkscape.org/) -->
<svg id="svg3937" xmlns:rdf="http://www.w3.org/1999/02/22-rdf-syntax-ns#" xmlns="http://www.w3.org/2000/svg" height="136.76" width="444.65" version="1.1" xmlns:cc="http://creativecommons.org/ns#" xmlns:dc="http://purl.org/dc/elements/1.1/">
 <metadata id="metadata3942">
  <rdf:RDF>
   <cc:Work rdf:about="">
    <dc:format>image/svg+xml</dc:format>
    <dc:type rdf:resource="http://purl.org/dc/dcmitype/StillImage"/>
    <dc:title/>
   </cc:Work>
  </rdf:RDF>
 </metadata>
 <g id="g3231" transform="translate(0,5.3260169)">
  <g id="g3213" fill-rule="nonzero" transform="translate(0,-5.3260169)">
   <path id="path5420" fill="#363636" d="m129.86,26.051c2.9834,4.094,3.0922,80.327,0.1204,84.429-2.9708,4.1016-75.437,27.761-80.257,26.205-4.819-1.55-49.717-63.164-49.723-68.231-0.01-5.064,44.712-66.803,49.528-68.374s77.352,21.88,80.332,25.976z"/>
   <path id="path5422" fill="#f26100" d="m51.361,3.7214c-0.2634,0.002-0.4719,0.0258-0.6142,0.0723-4.0046,1.3075-37.172,46.59-45.116,60.759l16.086-0.0181c1.5186-3.639,5.1139-6.1962,9.3032-6.1962,0.7885,0,1.5579,0.0906,2.2942,0.26194l17.242-23.8c-0.9319-1.5267-1.4633-3.3282-1.4633-5.2476,0-5.5632,4.5079-10.071,10.071-10.071,5.2767,0,9.6027,4.0572,10.035,9.2219l27.973,9.0505c1.8473-2.1477,4.5863-3.5136,7.6413-3.5136,5.5633,0,10.071,4.5169,10.071,10.08,0,5.5632-4.5079,10.071-10.071,10.071-5.2761,0-9.6027-4.0574-10.035-9.2219l-27.982-9.0505c-1.8473,2.1477-4.5772,3.5136-7.6325,3.5136-0.7922,0-1.5638-0.0981-2.3032-0.27097l-17.234,23.809c0.2602,0.42617,0.482,0.87202,0.6775,1.3368l22.228-0.0362c1.5202-3.6352,5.1075-6.1962,9.2943-6.1962,5.5632,0,10.071,4.5169,10.071,10.08,0,5.5632-4.5079,10.071-10.071,10.071-4.1794,0-7.7606-2.544-9.2855-6.1691l-22.228,0.0361c-1.5202,3.6352-5.1075,6.1873-9.2943,6.1873-4.1765,0-7.7679-2.5389-9.2943-6.1602l-16.086,0.0181c7.9836,14.146,41.289,59.336,45.297,60.634,4.5582,1.4739,73.09-20.896,75.898-24.775,2.8103-3.8796,2.704-75.976-0.1174-79.846-2.73-3.753-67.187-24.681-75.351-24.634zm11.399,82.878,5.4466,0c1.281,0,2.3122,1.0313,2.3122,2.3122v30.267c0,1.281-1.0312,2.3122-2.3122,2.3122h-5.4466c-1.281,0-2.3122-1.0313-2.3122-2.3122v-30.267c0-1.281,1.0313-2.3122,2.3122-2.3122zm21.551,0,5.4466,0c1.281,0,2.3122,1.0313,2.3122,2.3122v23.231c0,1.281-1.0313,2.3122-2.3122,2.3122h-5.4466c-1.281,0-2.3122-1.0313-2.3122-2.3122v-23.231c0-1.281,1.0312-2.3122,2.3122-2.3122zm21.56,0,5.4466,0c1.281,0,2.3122,1.0313,2.3122,2.3122v16.195c0,1.281-1.0313,2.3122-2.3122,2.3122h-5.4466c-1.281,0-2.3123-1.0313-2.3123-2.3122v-16.195c0-1.281,1.0313-2.3122,2.3123-2.3122z"/>
  </g>
  <path id="path3167" fill="#363636" d="m257.42,20.472,4.9813,0c3.3088,0,5.9725,2.6638,5.9725,5.9725v3.1166c0,3.3087-2.6638,5.9725-5.9725,5.9725h-4.976c-3.3087,0-5.9725-2.6638-5.9725-5.9725v-3.1174c0-3.3087,2.6638-5.9725,5.9725-5.9725zm12.963,21.674-18.703,0c-3.7295,0-4.877,0.14343-6.1681,1.0041-2.1517,1.291-3.4426,3.7295-3.4426,6.1681,0,2.2951,1.1475,4.4468,3.0124,5.7377,1.291,1.1475,3.0124,1.4344,6.5984,1.4344h4.3583v33.996h-10.67c-3.7296,0-4.7336,0.14344-6.0247,1.0041-2.1517,1.291-3.4426,3.7295-3.4426,6.1681,0,2.2951,1.1476,4.4468,3.0124,5.7377,1.1475,1.0041,3.1558,1.4344,6.455,1.4344h36.396c2.8689,0,5.0206-0.43033,6.0247-1.0041,2.1517-1.4344,3.4426-3.7295,3.4426-6.1681,0-2.2951-1.1475-4.4468-3.0124-5.8812-1.4344-1.0041-2.582-1.291-6.455-1.291h-16.372v-48.344m141.81,10.913,0.0498,0c8.8691,0.06835,16.167,5.8257,18.727,13.795l-18.802-0.22413h-0.0499l-18.777-0.07467c0.96045-2.7833,2.5667-5.4056,4.8061-7.6451,2.9409-2.9409,6.5484-4.7683,10.31-5.5035,0.16541-0.03235,0.33202-0.07155,0.49805-0.09956,0.0415-0.0063,0.0828-0.01867,0.12451-0.02489,0.42057-0.06327,0.8407-0.11277,1.27-0.14942,0.13325-0.01285,0.26503-0.01472,0.39844-0.02489,0.47674-0.03121,0.95829-0.05237,1.4444-0.04979zm0.0498-12.675c-3.3237,0-6.6393,0.51839-9.8364,1.519-0.51249,0.16041-1.0136,0.33683-1.519,0.52296-0.48987,0.18037-0.98692,0.36822-1.4693,0.57275-0.46151,0.19572-0.91588,0.40474-1.3696,0.62257-0.18512,0.08826-0.36474,0.1823-0.54786,0.27392-0.19937,0.10039-0.39999,0.19407-0.59765,0.29883-0.24986,0.13158-0.50122,0.2606-0.74708,0.39844-0.24246,0.13671-0.4826,0.27996-0.72217,0.42334-0.25912,0.15424-0.51768,0.31196-0.77197,0.47314-0.1827,0.11646-0.36705,0.22819-0.54787,0.34864-0.0745,0.04947-0.14993,0.09936-0.22411,0.14941-0.32641,0.22135-0.65137,0.4628-0.97119,0.69726-0.44066,0.3217-0.87176,0.653-1.2949,0.9961-0.0734,0.05953-0.15122,0.11413-0.22413,0.17432-0.35173,0.29151-0.70406,0.58791-1.0459,0.89649-0.0477,0.04293-0.10194,0.08131-0.14943,0.12451-0.76757,0.69847-1.4944,1.4223-2.1914,2.1914-0.0118,0.01308-0.0131,0.03671-0.0249,0.04979-0.36836,0.40787-0.72342,0.8435-1.0708,1.27-0.34691,0.42592-0.67087,0.85118-0.99611,1.2949-0.26113,0.3563-0.52524,0.70347-0.77197,1.0708-0.0596,0.08877-0.11559,0.18474-0.17431,0.27393-0.29401,0.44736-0.57456,0.90694-0.84668,1.3696-0.5409,0.91973-1.0438,1.8628-1.4941,2.8388-0.22188,0.48098-0.42372,0.97558-0.62257,1.4693-0.18493,0.4591-0.38337,0.92505-0.54785,1.3946-0.0261,0.07436-0.0492,0.14965-0.0746,0.22412-0.15403,0.45011-0.28855,0.91059-0.42335,1.3696-0.14774,0.50317-0.27438,1.0057-0.39844,1.519-0.12389,0.51269-0.24898,1.0218-0.34862,1.5439-0.0984,0.51586-0.17487,1.0444-0.24904,1.5688-0.064,0.45262-0.12879,0.91096-0.17432,1.3696-0.0325,0.32357-0.0517,0.64693-0.0746,0.97119-0.0153,0.21857-0.0389,0.42768-0.0498,0.64747-0.003,0.04128,0.002,0.08318,0,0.12451-0.0238,0.51741-0.0498,1.0451-0.0498,1.5688,0,1.0566,0.0533,2.1074,0.14942,3.1377,0.0961,1.0303,0.23504,2.0401,0.42334,3.0381,0.00025,0.001,0.0247-0.001,0.0249,0,1.1814,6.211,4.1579,12.152,8.94,16.934l0.0746,0.04979c12.709,12.629,33.441,12.628,46.12-0.04979a6.3743,6.3743,0,1,0,-9.0146,-9.0146c-7.8423,7.8423-20.347,7.8423-28.189,0-2.2853-2.2853-3.9026-4.9725-4.856-7.8194l18.727,0.09956h0.0249l26.272,0.24903,5.6528,0.07467c0.4433-2.1571,0.67237-4.4016,0.67237-6.6987,0-5.2888-1.2195-10.267-3.4116-14.668a6.3593,6.3593,0,0,0,-0.69727,-1.6685c-1.4272-2.472-3.1614-4.7302-5.1797-6.7486-11.32-6.354-19.71-9.54-28.08-9.54zm-111.58,64.446c-6.3017,0-9.4525-2.387-9.4525-7.161s3.1508-7.1609,9.4525-7.161h0.85929v-33.943c-5.8242-0.19091-8.7364-2.5779-8.7364-7.161,0-4.7739,3.1986-7.1609,9.5957-7.161h13.463v6.8745c3.4372-3.2462,6.588-5.49,9.4525-6.7313,2.8643-1.3367,6.2539-2.005,10.169-2.0051,7.4474,0.000062,13.558,2.1006,18.332,6.3016,4.7739,4.2011,7.1609,10.121,7.161,17.759v26.066c5.8242,0.00001,8.7363,2.387,8.7364,7.161-0.00008,4.774-3.1509,7.161-9.4525,7.161h-12.747c-6.3972,0-9.5958-2.387-9.5957-7.161-0.00006-4.774,2.9121-7.1609,8.7364-7.161v-25.493c-0.00005-6.8745-4.2966-10.312-12.89-10.312-3.3418,0.000052-6.3494,0.71614-9.0228,2.1483-2.578,1.4322-5.5378,3.9624-8.8796,7.5906v26.066h0.85931c6.3016,0.00001,9.4524,2.387,9.4525,7.161-0.00004,4.774-3.1509,7.161-9.4525,7.161h-16.041m-157.04,0c-6.3971,0-9.5957-2.387-9.5957-7.161s2.8644-7.1609,8.5931-7.161v-33.943c-5.7288-0.19091-8.5931-2.5779-8.5931-7.161,0-4.7739,3.1986-7.1609,9.5957-7.161h13.319v3.4373c4.392-3.5327,8.4499-5.299,12.174-5.2991,5.4423,0.000062,10.312,2.3393,14.608,7.0177,4.2965-4.6784,9.2614-7.0177,14.895-7.0177,5.3468,0.000062,9.7866,1.8142,13.319,5.4423,3.6281,3.5328,5.4422,7.9726,5.4423,13.319v31.365c5.7287,0.00001,8.5931,2.387,8.5932,7.161-0.00009,4.774-3.1509,7.161-9.4525,7.161h-13.463v-44.541c-0.00007-2.1005-0.38198-3.5327-1.1458-4.2966-0.66842-0.85926-1.9574-1.2889-3.8669-1.289-1.9096,0.000052-3.6283,0.42971-5.1559,1.289-1.4322,0.85936-3.3418,2.578-5.7288,5.1559v29.36c2.6734,0.00001,4.7739,0.66837,6.3016,2.0051,1.5276,1.2412,2.2914,2.9599,2.2915,5.1559-0.00007,4.774-3.1509,7.161-9.4525,7.161h-13.463v-44.541c-0.00002-2.005-0.38195-3.4372-1.1458-4.2966-0.76387-0.85926-2.0528-1.2889-3.8669-1.289-3.4373,0.000052-7.0655,2.1483-10.885,6.4449v29.36c5.8242,0.00001,8.7363,2.387,8.7364,7.161-0.00003,4.774-3.1508,7.161-9.4525,7.161h-12.603"/>
 </g>
</svg>
