<?xml version="1.0" encoding="UTF-8" standalone="no"?>
<!-- Created with Inkscape (http://www.inkscape.org/) -->
<svg id="svg3937" xmlns:rdf="http://www.w3.org/1999/02/22-rdf-syntax-ns#" xmlns="http://www.w3.org/2000/svg" height="140" width="140" version="1.1" xmlns:cc="http://creativecommons.org/ns#" xmlns:dc="http://purl.org/dc/elements/1.1/">
 <metadata id="metadata3942">
  <rdf:RDF>
   <cc:Work rdf:about="">
    <dc:format>image/svg+xml</dc:format>
    <dc:type rdf:resource="http://purl.org/dc/dcmitype/StillImage"/>
    <dc:title/>
   </cc:Work>
  </rdf:RDF>
 </metadata>
 <g id="layer1" transform="translate(1332.2614,356.4012)">
  <g id="g3983" fill-rule="nonzero" transform="translate(3.9226374,-1.6205256)">
   <path id="path5420" d="m-1202.4-327.11c2.9834,4.094,3.0922,80.327,0.1204,84.429-2.9708,4.1016-75.437,27.761-80.257,26.205-4.8199-1.5588-49.718-63.169-49.724-68.236-0.01-5.0644,44.712-66.803,49.528-68.374,4.8156-1.571,77.35,21.88,80.333,25.976z" fill="#363636"/>
   <path id="path5422" d="m-1280.9-349.44c-0.2634,0.002-0.4719,0.0258-0.6142,0.0723-4.0046,1.3075-37.172,46.59-45.116,60.759l16.086-0.0181c1.5186-3.639,5.1139-6.1962,9.3032-6.1962,0.7885,0,1.5579,0.0906,2.2942,0.26194l17.242-23.8c-0.9319-1.5267-1.4633-3.3282-1.4633-5.2476,0-5.5632,4.5079-10.071,10.071-10.071,5.2767,0,9.6027,4.0572,10.035,9.2219l27.973,9.0505c1.8473-2.1477,4.5863-3.5136,7.6413-3.5136,5.5633,0,10.071,4.5169,10.071,10.08,0,5.5632-4.5079,10.071-10.071,10.071-5.2761,0-9.6027-4.0574-10.035-9.2219l-27.982-9.0505c-1.8473,2.1477-4.5772,3.5136-7.6325,3.5136-0.7922,0-1.5638-0.0981-2.3032-0.27097l-17.234,23.809c0.2602,0.42617,0.482,0.87202,0.6775,1.3368l22.228-0.0362c1.5202-3.6352,5.1075-6.1962,9.2943-6.1962,5.5632,0,10.071,4.5169,10.071,10.08,0,5.5632-4.5079,10.071-10.071,10.071-4.1794,0-7.7606-2.544-9.2855-6.1691l-22.228,0.0361c-1.5202,3.6352-5.1075,6.1873-9.2943,6.1873-4.1765,0-7.7679-2.5389-9.2943-6.1602l-16.086,0.0181c7.9836,14.146,41.289,59.336,45.297,60.634,4.5582,1.4739,73.09-20.896,75.898-24.775,2.8103-3.8796,2.704-75.976-0.1174-79.846-2.7332-3.7506-67.192-24.678-75.356-24.631zm11.399,82.878,5.4466,0c1.281,0,2.3122,1.0313,2.3122,2.3122v30.267c0,1.281-1.0312,2.3122-2.3122,2.3122h-5.4466c-1.281,0-2.3122-1.0313-2.3122-2.3122v-30.267c0-1.281,1.0313-2.3122,2.3122-2.3122zm21.551,0,5.4466,0c1.281,0,2.3122,1.0313,2.3122,2.3122v23.231c0,1.281-1.0313,2.3122-2.3122,2.3122h-5.4466c-1.281,0-2.3122-1.0313-2.3122-2.3122v-23.231c0-1.281,1.0312-2.3122,2.3122-2.3122zm21.56,0,5.4466,0c1.281,0,2.3122,1.0313,2.3122,2.3122v16.195c0,1.281-1.0313,2.3122-2.3122,2.3122h-5.4466c-1.281,0-2.3123-1.0313-2.3123-2.3122v-16.195c0-1.281,1.0313-2.3122,2.3123-2.3122z" fill="#f26100"/>
  </g>
 </g>
</svg>
