<?xml version="1.0" encoding="UTF-8" standalone="no"?>
<!-- Created with Inkscape (http://www.inkscape.org/) -->

<svg
   xmlns:dc="http://purl.org/dc/elements/1.1/"
   xmlns:cc="http://creativecommons.org/ns#"
   xmlns:rdf="http://www.w3.org/1999/02/22-rdf-syntax-ns#"
   xmlns:svg="http://www.w3.org/2000/svg"
   xmlns="http://www.w3.org/2000/svg"
   version="1.1"
   width="1007.0479"
   height="198.9509"
   id="svg3937">
  <defs
     id="defs3053">
    <marker
       refX="0"
       refY="0"
       orient="auto"
       id="Scissors"
       style="overflow:visible">
      <path
         d="M 9.0898857,-3.6061018 C 8.1198849,-4.7769976 6.3697607,-4.7358294 5.0623558,-4.2327734 l -8.2124046,3.0779029 c -2.3882933,-1.3067135 -4.7482873,-0.9325372 -4.7482873,-1.5687873 0,-0.4973164 0.4566662,-0.3883222 0.3883068,-1.6831941 -0.065635,-1.2432767 -1.3635771,-2.1630796 -2.5903987,-2.0816435 -1.227271,-0.00735 -2.499439,0.9331613 -2.510341,2.2300611 -0.09143,1.3063864 1.007209,2.5196896 2.306764,2.6052316 1.5223406,0.2266616 4.218258,-0.6955566 5.482945,1.57086006 -0.9422847,1.73825774 -2.6140244,1.74307674 -4.1255107,1.65607034 -1.2548743,-0.072235 -2.7620933,0.2873979 -3.3606483,1.5208605 -0.578367,1.1820862 -0.0112,2.8646022 1.316749,3.226412 1.3401912,0.4918277 3.1806689,-0.129711 3.4993722,-1.6707242 0.2456585,-1.187823 -0.5953659,-1.7459574 -0.2725074,-2.1771537 0.2436135,-0.32536 1.7907806,-0.1368452 4.5471053,-1.3748244 L 5.6763468,4.2330688 C 6.8000164,4.5467672 8.1730685,4.5362646 9.1684433,3.4313614 L -0.05164093,-0.05372222 9.0898857,-3.6061018 z m -18.3078016,-1.900504 c 1.294559,0.7227998 1.1888392,2.6835702 -0.1564272,3.0632889 -1.2165179,0.423661 -2.7710269,-0.7589694 -2.3831779,-2.0774648 0.227148,-1.0818519 1.653387,-1.480632 2.5396051,-0.9858241 z m 0.056264,8.0173649 c 1.3508301,0.4988648 1.1214429,2.7844356 -0.2522207,3.091609 -0.9110594,0.3163391 -2.2135494,-0.1387976 -2.3056964,-1.2121394 -0.177609,-1.305055 1.356085,-2.4841482 2.5579171,-1.8794696 z"
         id="schere"
         style="fill:#000000" />
    </marker>
    <marker
       refX="0"
       refY="0"
       orient="auto"
       id="Arrow1Mend"
       style="overflow:visible">
      <path
         d="M 0,0 5,-5 -12.5,0 5,5 0,0 z"
         transform="matrix(-0.4,0,0,-0.4,-4,0)"
         id="path4080"
         style="fill-rule:evenodd;stroke:#000000;stroke-width:1pt" />
    </marker>
    <marker
       refX="0"
       refY="0"
       orient="auto"
       id="DotS"
       style="overflow:visible">
      <path
         d="m -2.5,-1 c 0,2.76 -2.24,5 -5,5 -2.76,0 -5,-2.24 -5,-5 0,-2.76 2.24,-5 5,-5 2.76,0 5,2.24 5,5 z"
         transform="matrix(0.2,0,0,0.2,1.48,0.2)"
         id="path4138"
         style="fill-rule:evenodd;stroke:#000000;stroke-width:1pt" />
    </marker>
    <marker
       refX="0"
       refY="0"
       orient="auto"
       id="DotM"
       style="overflow:visible">
      <path
         d="m -2.5,-1 c 0,2.76 -2.24,5 -5,5 -2.76,0 -5,-2.24 -5,-5 0,-2.76 2.24,-5 5,-5 2.76,0 5,2.24 5,5 z"
         transform="matrix(0.4,0,0,0.4,2.96,0.4)"
         id="path4135"
         style="fill-rule:evenodd;stroke:#000000;stroke-width:1pt" />
    </marker>
    <marker
       refX="0"
       refY="0"
       orient="auto"
       id="DotL"
       style="overflow:visible">
      <path
         d="m -2.5,-1 c 0,2.76 -2.24,5 -5,5 -2.76,0 -5,-2.24 -5,-5 0,-2.76 2.24,-5 5,-5 2.76,0 5,2.24 5,5 z"
         transform="matrix(0.8,0,0,0.8,5.92,0.8)"
         id="path4132"
         style="fill-rule:evenodd;stroke:#000000;stroke-width:1pt" />
    </marker>
    <marker
       refX="0"
       refY="0"
       orient="auto"
       id="DotS-3"
       style="overflow:visible">
      <path
         d="m -2.5,-1 c 0,2.76 -2.24,5 -5,5 -2.76,0 -5,-2.24 -5,-5 0,-2.76 2.24,-5 5,-5 2.76,0 5,2.24 5,5 z"
         transform="matrix(0.2,0,0,0.2,1.48,0.2)"
         id="path4138-1"
         style="fill-rule:evenodd;stroke:#000000;stroke-width:1pt" />
    </marker>
    <marker
       refX="0"
       refY="0"
       orient="auto"
       id="marker6633"
       style="overflow:visible">
      <path
         d="m -2.5,-1 c 0,2.76 -2.24,5 -5,5 -2.76,0 -5,-2.24 -5,-5 0,-2.76 2.24,-5 5,-5 2.76,0 5,2.24 5,5 z"
         transform="matrix(0.2,0,0,0.2,1.48,0.2)"
         id="path6635"
         style="fill-rule:evenodd;stroke:#000000;stroke-width:1pt" />
    </marker>
    <marker
       refX="0"
       refY="0"
       orient="auto"
       id="marker6637"
       style="overflow:visible">
      <path
         d="m -2.5,-1 c 0,2.76 -2.24,5 -5,5 -2.76,0 -5,-2.24 -5,-5 0,-2.76 2.24,-5 5,-5 2.76,0 5,2.24 5,5 z"
         transform="matrix(0.2,0,0,0.2,1.48,0.2)"
         id="path6639"
         style="fill-rule:evenodd;stroke:#000000;stroke-width:1pt" />
    </marker>
    <marker
       refX="0"
       refY="0"
       orient="auto"
       id="marker6641"
       style="overflow:visible">
      <path
         d="m -2.5,-1 c 0,2.76 -2.24,5 -5,5 -2.76,0 -5,-2.24 -5,-5 0,-2.76 2.24,-5 5,-5 2.76,0 5,2.24 5,5 z"
         transform="matrix(0.2,0,0,0.2,1.48,0.2)"
         id="path6643"
         style="fill-rule:evenodd;stroke:#000000;stroke-width:1pt" />
    </marker>
    <marker
       refX="0"
       refY="0"
       orient="auto"
       id="marker6645"
       style="overflow:visible">
      <path
         d="m -2.5,-1 c 0,2.76 -2.24,5 -5,5 -2.76,0 -5,-2.24 -5,-5 0,-2.76 2.24,-5 5,-5 2.76,0 5,2.24 5,5 z"
         transform="matrix(0.2,0,0,0.2,1.48,0.2)"
         id="path6647"
         style="fill-rule:evenodd;stroke:#000000;stroke-width:1pt" />
    </marker>
    <marker
       refX="0"
       refY="0"
       orient="auto"
       id="marker6649"
       style="overflow:visible">
      <path
         d="m -2.5,-1 c 0,2.76 -2.24,5 -5,5 -2.76,0 -5,-2.24 -5,-5 0,-2.76 2.24,-5 5,-5 2.76,0 5,2.24 5,5 z"
         transform="matrix(0.2,0,0,0.2,1.48,0.2)"
         id="path6651"
         style="fill-rule:evenodd;stroke:#000000;stroke-width:1pt" />
    </marker>
    <marker
       refX="0"
       refY="0"
       orient="auto"
       id="marker6653"
       style="overflow:visible">
      <path
         d="m -2.5,-1 c 0,2.76 -2.24,5 -5,5 -2.76,0 -5,-2.24 -5,-5 0,-2.76 2.24,-5 5,-5 2.76,0 5,2.24 5,5 z"
         transform="matrix(0.2,0,0,0.2,1.48,0.2)"
         id="path6655"
         style="fill-rule:evenodd;stroke:#000000;stroke-width:1pt" />
    </marker>
    <marker
       refX="0"
       refY="0"
       orient="auto"
       id="marker6657"
       style="overflow:visible">
      <path
         d="m -2.5,-1 c 0,2.76 -2.24,5 -5,5 -2.76,0 -5,-2.24 -5,-5 0,-2.76 2.24,-5 5,-5 2.76,0 5,2.24 5,5 z"
         transform="matrix(0.2,0,0,0.2,1.48,0.2)"
         id="path6659"
         style="fill-rule:evenodd;stroke:#000000;stroke-width:1pt" />
    </marker>
    <marker
       refX="0"
       refY="0"
       orient="auto"
       id="marker6661"
       style="overflow:visible">
      <path
         d="m -2.5,-1 c 0,2.76 -2.24,5 -5,5 -2.76,0 -5,-2.24 -5,-5 0,-2.76 2.24,-5 5,-5 2.76,0 5,2.24 5,5 z"
         transform="matrix(0.2,0,0,0.2,1.48,0.2)"
         id="path6663"
         style="fill-rule:evenodd;stroke:#000000;stroke-width:1pt" />
    </marker>
  </defs>
  <metadata
     id="metadata3942">
    <rdf:RDF>
      <cc:Work
         rdf:about="">
        <dc:format>image/svg+xml</dc:format>
        <dc:type
           rdf:resource="http://purl.org/dc/dcmitype/StillImage" />
        <dc:title></dc:title>
      </cc:Work>
    </rdf:RDF>
  </metadata>
  <path
     d="M 5.0625,0 C 2.2557,0 0,2.25571 0,5.0625 L 0,193.875 c 0,2.80679 2.2557,5.0625 5.0625,5.0625 l 996.9063,0 c 2.8067,0 5.0937,-2.25571 5.0937,-5.0625 l 0,-188.8125 C 1007.0625,2.25571 1004.7755,0 1001.9688,0 L 5.0625,0 z m 716.09375,16.65625 c 0.23917,-0.02325 0.47378,-0.01478 0.71875,0 0.30974,0.01869 0.62621,0.0414 0.9375,0.125 2.26193,0.60724 3.66449,2.80337 3.40625,5.0625 l 20.0625,15.25 c 1.48581,-0.61766 3.25232,-0.48049 4.625,0.5625 0.36315,0.27592 0.64823,0.61942 0.90625,0.96875 l 86.625,-10.9375 c 0.63461,-1.46741 1.98745,-2.56729 3.6875,-2.78125 2.5583,-0.32197 4.89678,1.47295 5.21875,4.03125 0.32198,2.5583 -1.47295,4.89677 -4.03125,5.21875 -1.70649,0.21477 -3.30388,-0.53925 -4.28125,-1.8125 L 752.34375,43.25 c -0.0223,0.05121 -0.0382,0.10565 -0.0625,0.15625 -0.65423,1.41328 -1.99825,2.47883 -3.65625,2.6875 -1.7165,0.21603 -3.30561,-0.5567 -4.28125,-1.84375 l -75.6875,9.53125 c -0.62526,1.49127 -2.00023,2.62746 -3.71875,2.84375 -1.7165,0.21603 -3.30561,-0.5567 -4.28125,-1.84375 l -57.0625,7.1875 c -0.15842,0.39604 -0.35045,0.7714 -0.625,1.125 -1.58132,2.03667 -4.52583,2.42507 -6.5625,0.84375 -0.26193,-0.20337 -0.48132,-0.44411 -0.6875,-0.6875 -0.0684,-0.07809 -0.1243,-0.1673 -0.1875,-0.25 l -116.875,14.6875 c -0.62526,1.49127 -2.00023,2.62746 -3.71875,2.84375 -1.7165,0.21603 -3.30561,-0.5567 -4.28125,-1.84375 l -110.1875,13.875 c -0.16434,0.41187 -0.36662,0.82241 -0.65625,1.1875 -1.60251,2.02003 -4.54247,2.35251 -6.5625,0.75 -0.33594,-0.2665 -0.63325,-0.57615 -0.875,-0.90625 L 220.90625,110.125 c -0.62526,1.49127 -2.00023,2.62746 -3.71875,2.84375 -1.7165,0.21603 -3.30561,-0.5567 -4.28125,-1.84375 L 100,125.34375 c -0.625262,1.49127 -2.000229,2.62746 -3.71875,2.84375 -2.558301,0.32197 -4.896776,-1.5042 -5.21875,-4.0625 -0.321975,-2.5583 1.504199,-4.89677 4.0625,-5.21875 1.707629,-0.21491 3.304069,0.53768 4.28125,1.8125 L 212.3125,106.5 c 0.63119,-1.47627 2.01184,-2.59767 3.71875,-2.8125 1.70763,-0.21491 3.30407,0.53768 4.28125,1.8125 L 351.84375,88.9375 c 0.63252,-1.47283 1.98325,-2.59801 3.6875,-2.8125 0.45199,-0.05688 0.88419,-0.0063 1.3125,0.0625 l 15.625,-19.65625 c -0.88498,-2.15011 -0.0775,-4.64313 2,-5.8125 2.03714,-1.14666 4.57095,-0.5993 5.96875,1.1875 l 61.5,-7.75 c 0.63461,-1.46741 1.98745,-2.56729 3.6875,-2.78125 1.69511,-0.21333 3.30206,0.52362 4.28125,1.78125 L 531.1875,42.9375 c 0.63119,-1.47627 2.01184,-2.59767 3.71875,-2.8125 2.5583,-0.32197 4.89678,1.5042 5.21875,4.0625 0.32198,2.5583 -1.5042,4.89677 -4.0625,5.21875 -1.71651,0.21603 -3.30561,-0.5567 -4.28125,-1.84375 L 450.5,57.8125 c -0.63252,1.47283 -1.98325,2.59801 -3.6875,2.8125 -1.71075,0.2153 -3.3046,-0.53339 -4.28125,-1.8125 l -61.46875,7.75 c -0.38628,0.93163 -1.05362,1.74856 -2,2.28125 -0.91949,0.5175 -1.93473,0.69355 -2.90625,0.5625 L 361.59375,87.71875 470.0625,74.0625 c 0.63119,-1.47627 2.01184,-2.59767 3.71875,-2.8125 1.70763,-0.21491 3.30407,0.53768 4.28125,1.8125 L 594.96875,58.34375 c 0.63119,-1.47627 1.98059,-2.59767 3.6875,-2.8125 0.43366,-0.0546 0.86901,-0.03015 1.28125,0.03125 L 615.125,36.03125 c -0.89318,-2.14449 -0.0699,-4.66437 2,-5.84375 2.03997,-1.16232 4.56541,-0.61059 5.96875,1.1875 l 63.6875,-8.03125 c 0.63119,-1.47627 1.98059,-2.56642 3.6875,-2.78125 1.69511,-0.21333 3.30206,0.52362 4.28125,1.78125 L 717.3125,19.5 c 0.67365,-1.599999 2.16953,-2.681027 3.84375,-2.84375 z M 717.9375,24.1875 695.34375,27 c -0.63252,1.47283 -1.98325,2.59801 -3.6875,2.8125 C 689.9455,30.0278 688.35165,29.27911 687.375,28 l -63.65625,8 c -0.38141,0.93364 -1.02517,1.74362 -1.96875,2.28125 -0.9194,0.52385 -1.9628,0.72183 -2.9375,0.59375 l -14.15625,18.28125 55.40625,-7 c 0.63119,-1.47627 2.01184,-2.59767 3.71875,-2.8125 1.71075,-0.2153 3.3046,0.53339 4.28125,1.8125 l 74.15625,-9.3125 -18.78125,-14.25 c -0.92904,0.39715 -2.01171,0.50085 -3.0625,0.21875 -1.01168,-0.2716 -1.8359,-0.85984 -2.4375,-1.625 z m 256.375,14.71875 0.25,2 -2,0.25 -0.25,-2 2,-0.25 z m -7.9375,1 0.25,2 -2,0.25 -0.25,-2 2,-0.25 z m -7.9375,1 0.25,2 -2,0.25 -0.25,-2 2,-0.25 z m -7.9375,1 0.25,1.96875 -2,0.25 -0.25,-1.96875 2,-0.25 z m -7.9375,1 0.25,1.96875 -2,0.25 -0.25,-1.96875 2,-0.25 z m -7.9375,1 0.25,1.96875 -2,0.25 -0.25,-1.96875 2,-0.25 z m -7.9375,1 0.25,1.96875 -2,0.25 -0.25,-1.96875 2,-0.25 z m -7.9375,1 0.25,1.96875 -2,0.25 -0.25,-1.96875 2,-0.25 z m -7.9375,1 0.25,1.96875 -2,0.25 -0.25,-1.96875 2,-0.25 z m -7.9375,1 0.25,1.96875 -2,0.25 -0.25,-1.96875 2,-0.25 z m -7.9375,1 0.25,1.96875 -2,0.25 -0.25,-1.96875 2,-0.25 z m -7.9375,1 0.25,1.96875 -2,0.25 -0.25,-1.96875 2,-0.25 z m -7.9375,1 0.25,1.96875 -2,0.25 -0.25,-1.96875 2,-0.25 z m -7.9375,1 0.25,1.96875 -2,0.25 -0.25,-1.96875 2,-0.25 z m -7.9375,1 0.25,1.96875 -2,0.25 -0.25,-1.96875 2,-0.25 z m -7.9375,1 0.25,1.96875 -2,0.25 -0.25,-1.96875 2,-0.25 z m -7.9375,1 0.25,1.96875 -2,0.25 -0.25,-1.96875 2,-0.25 z m -7.9375,1 0.25,1.96875 -2,0.25 -0.25,-1.96875 2,-0.25 z m -7.9375,0.96875 0.25,2 -2,0.25 -0.25,-2 2,-0.25 z m -7.9375,1 0.25,2 -2,0.25 -0.25,-2 2,-0.25 z m -7.9375,1 0.25,2 -2,0.25 -0.25,-2 2,-0.25 z m -7.9375,1 0.25,2 -2,0.25 -0.25,-2 2,-0.25 z m -7.9375,1 0.25,2 -2,0.25 -0.25,-2 2,-0.25 z m -7.9375,1 0.25,2 -2,0.25 -0.25,-2 2,-0.25 z m -7.9375,1 0.25,2 -2,0.25 -0.25,-2 2,-0.25 z m -7.9375,1 0.25,2 -2,0.25 -0.25,-2 2,-0.25 z m -7.9375,1 0.25,2 -2,0.25 -0.25,-2 2,-0.25 z m -7.9375,1 0.25,2 -2,0.25 -0.25,-2 2,-0.25 z m -7.9375,1 0.25,2 -2,0.25 -0.25,-2 2,-0.25 z m -7.9375,1 0.25,2 -2,0.25 -0.25,-2 2,-0.25 z m 65.0625,0.625 c 0.12631,-0.02004 0.24306,-0.01188 0.375,0.03125 0.3061,0.100083 0.49753,0.292122 0.5625,0.59375 0.029,0.16137 0.006,0.412657 -0.0937,0.71875 l -0.46875,1.40625 1.5,0 c 0.27746,0.0089 0.46749,0.03145 0.5625,0.0625 0.20053,0.06557 0.34148,0.199612 0.4375,0.40625 0.10655,0.210092 0.13153,0.413902 0.0625,0.625 -0.12769,0.390542 -0.48299,0.576718 -1.0625,0.5625 l -1.5,0 0.4375,1.375 c 0.10737,0.350556 0.149,0.612368 0.0937,0.78125 -0.069,0.211102 -0.19618,0.393434 -0.40625,0.5 -0.2101,0.106566 -0.44516,0.100263 -0.65625,0.03125 -0.1689,-0.05521 -0.26946,-0.124363 -0.34375,-0.21875 -0.0709,-0.104956 -0.1536,-0.28563 -0.25,-0.5625 l -0.46875,-1.40625 -1.1875,0.875 c -0.2308,0.169897 -0.40155,0.273123 -0.53125,0.3125 -0.12625,0.02882 -0.27917,0.02052 -0.4375,-0.03125 -0.2111,-0.06901 -0.36219,-0.227407 -0.46875,-0.4375 -0.10657,-0.210087 -0.13154,-0.413894 -0.0625,-0.625 0.0518,-0.158322 0.23407,-0.36377 0.53125,-0.59375 L 807,72.0625 l -1.21875,-0.875 c -0.26794,-0.181055 -0.45656,-0.366625 -0.53125,-0.53125 -0.0747,-0.164615 -0.0685,-0.351394 0,-0.5625 0.069,-0.211098 0.20669,-0.358736 0.40625,-0.46875 0.19953,-0.11001 0.3932,-0.159305 0.59375,-0.09375 0.10555,0.03452 0.27083,0.155806 0.5,0.3125 l 1.21875,0.875 0.46875,-1.40625 c 0.11386,-0.348312 0.23862,-0.560626 0.375,-0.65625 0.12066,-0.08322 0.24869,-0.136206 0.375,-0.15625 z m -73,0.375 0.25,2 -2,0.25 -0.25,-2 2,-0.25 z m -7.9375,1 0.25,2 -2,0.25 -0.25,-2 2,-0.25 z m -7.9375,1 0.25,2 -2,0.25 -0.25,-2 2,-0.25 z m -7.9375,1 0.25,1.96875 -2,0.25 -0.25,-1.96875 2,-0.25 z m -7.9375,1 0.25,1.96875 -2,0.25 -0.25,-1.96875 2,-0.25 z m -7.9375,1 0.25,1.96875 -2,0.25 -0.25,-1.96875 2,-0.25 z m -7.9375,1 0.25,1.96875 -2,0.25 -0.25,-1.96875 2,-0.25 z m -7.9375,1 0.25,1.96875 -2,0.25 -0.25,-1.96875 2,-0.25 z m 142.5,0.375 c 0.14338,0.01036 0.3232,0.03595 0.5,0.09375 l 1.46875,0.5 -0.125,0.375 c 0.61321,-0.231797 1.11959,-0.290827 1.53125,-0.15625 0.60163,0.196699 1.03786,0.640021 1.34375,1.3125 0.64407,-0.361909 1.28349,-0.45359 1.90625,-0.25 0.59108,0.193249 1.02183,0.564981 1.28125,1.09375 0.27341,0.521673 0.31824,1.096416 0.125,1.6875 l -1.125,3.4375 c 0.6333,0.207043 0.86002,0.597243 0.6875,1.125 -0.17255,0.527752 -0.61587,0.665248 -1.3125,0.4375 l -1.5,-0.46875 1.625,-4.9375 c 0.0759,-0.232209 0.0882,-0.387941 0.0312,-0.5 -0.0428,-0.119137 -0.1639,-0.243481 -0.375,-0.3125 -0.2111,-0.06901 -0.42507,-0.07102 -0.625,-0.03125 -0.18939,0.04324 -0.45547,0.176283 -0.8125,0.375 l -1.0625,3.25 c 0.29554,0.09662 0.50443,0.234521 0.625,0.4375 0.12402,0.192427 0.14184,0.413481 0.0625,0.65625 -0.0932,0.284985 -0.28522,0.476436 -0.59375,0.5625 -0.14026,0.03592 -0.39154,-0.01803 -0.71875,-0.125 l -1.5,-0.46875 1.625,-4.9375 c 0.0725,-0.221655 0.0847,-0.377385 0.0312,-0.5 -0.0534,-0.122586 -0.17445,-0.215681 -0.375,-0.28125 -0.37999,-0.124224 -0.86002,-0.02444 -1.4375,0.3125 l -1.0625,3.25 c 0.64386,0.210496 0.86004,0.565997 0.6875,1.09375 -0.0932,0.284989 -0.28522,0.476436 -0.59375,0.5625 -0.14027,0.03592 -0.36029,-0.01803 -0.6875,-0.125 l -1.40625,-0.4375 c -0.34832,-0.113875 -0.58479,-0.255836 -0.6875,-0.40625 -0.16989,-0.230792 -0.21127,-0.486122 -0.125,-0.75 0.17254,-0.527754 0.58543,-0.675798 1.21875,-0.46875 l 1.21875,-3.75 c -0.62642,-0.22815 -0.85314,-0.587099 -0.6875,-1.09375 0.1294,-0.395813 0.4136,-0.593595 0.84375,-0.5625 z m -150.4375,0.625 0.25,1.96875 -2,0.25 -0.25,-1.96875 2,-0.25 z M 836.75,77.40625 838.625,78 l -0.53125,1.65625 -1.875,-0.59375 0.53125,-1.65625 z m -172,0.46875 0.25,1.96875 -2,0.25 -0.25,-1.96875 2,-0.25 z m -7.9375,1 0.25,1.96875 -2,0.25 -0.25,-1.96875 2,-0.25 z m -7.9375,1 0.25,1.96875 -2,0.25 -0.25,-1.96875 2,-0.25 z M 834.34375,80 c 0.14026,-0.03592 0.38098,-0.0167 0.71875,0.09375 l 2.8125,0.9375 -1.75,5.34375 1.9375,0.625 c 0.33776,0.110424 0.58133,0.23514 0.6875,0.375 0.16644,0.241349 0.18001,0.48612 0.0937,0.75 -0.0932,0.284985 -0.28522,0.476435 -0.59375,0.5625 -0.15082,0.03247 -0.37085,-0.02153 -0.6875,-0.125 l -5.46875,-1.78125 c -0.35888,-0.117328 -0.57465,-0.231488 -0.65625,-0.375 -0.16989,-0.230792 -0.21127,-0.486122 -0.125,-0.75 0.10007,-0.306097 0.32337,-0.497544 0.625,-0.5625 0.12971,-0.03937 0.34973,0.01453 0.6875,0.125 l 1.9375,0.625 1.21875,-3.75 -1.21875,-0.40625 c -0.36943,-0.120771 -0.60591,-0.262737 -0.6875,-0.40625 -0.1699,-0.23079 -0.21128,-0.454866 -0.125,-0.71875 0.10007,-0.306092 0.29211,-0.497541 0.59375,-0.5625 z m -193.40625,0.875 0.25,1.96875 -2,0.25 -0.25,-1.96875 2,-0.25 z m 169.59375,0.1875 9.875,3.21875 -0.28125,0.78125 -9.875,-3.21875 0.28125,-0.78125 z M 633,81.875 l 0.25,1.96875 -2,0.25 -0.25,-1.96875 2,-0.25 z m 209.96875,0.875 c 0.14338,0.01036 0.29195,0.03595 0.46875,0.09375 l 1.5,0.46875 -0.25,0.78125 c 0.49731,-0.23464 0.91973,-0.372552 1.28125,-0.40625 0.36495,-0.04424 0.75474,0.0148 1.1875,0.15625 0.82329,0.269164 1.43657,0.706792 1.8125,1.34375 0.3759,0.636966 0.40105,1.374344 0.125,2.21875 l -0.9375,2.875 c 0.64385,0.210496 0.89128,0.597243 0.71875,1.125 -0.10009,0.306096 -0.29212,0.497545 -0.59375,0.5625 -0.14026,0.03592 -0.39155,-0.01803 -0.71875,-0.125 L 846.15625,91.375 c -0.7072,-0.231203 -0.98504,-0.597244 -0.8125,-1.125 0.17254,-0.527754 0.60614,-0.679247 1.25,-0.46875 L 847.5,86.96875 c 0.24845,-0.759966 -0.11255,-1.314427 -1.0625,-1.625 -0.36943,-0.120772 -0.7152,-0.155452 -1.0625,-0.09375 -0.33675,0.06516 -0.74944,0.250938 -1.25,0.53125 l -0.9375,2.875 0.0937,0.03125 c 0.33776,0.110427 0.55009,0.235141 0.65625,0.375 0.16644,0.241349 0.21126,0.48612 0.125,0.75 -0.0932,0.284985 -0.28522,0.476436 -0.59375,0.5625 -0.14027,0.03592 -0.39154,0.01322 -0.71875,-0.09375 l -1.78125,-0.59375 c -0.33776,-0.110423 -0.54299,-0.221133 -0.65625,-0.375 -0.15935,-0.227342 -0.21127,-0.486122 -0.125,-0.75 0.10007,-0.306097 0.32336,-0.497547 0.625,-0.5625 0.16137,-0.02902 0.3814,0.02493 0.6875,0.125 l 0.0937,0.03125 1.21875,-3.75 c -0.63697,-0.231599 -0.85314,-0.618349 -0.6875,-1.125 0.12941,-0.395812 0.4136,-0.562345 0.84375,-0.53125 z m -217.90625,0.125 0.25,1.96875 -2,0.25 -0.25,-1.96875 2,-0.25 z m -7.9375,1 0.25,1.96875 -2,0.25 -0.25,-1.96875 2,-0.25 z m -7.9375,1 0.25,1.96875 -2,0.25 -0.25,-1.96875 2,-0.25 z m -7.9375,1 0.25,1.96875 -2,0.25 -0.25,-1.96875 2,-0.25 z m 253.0625,0.59375 c 0.5442,-0.0207 1.11224,0.06193 1.6875,0.25 1.18217,0.386492 2.05788,1.061601 2.59375,2.03125 0.54642,0.973107 0.63667,2.006576 0.28125,3.09375 l -0.21875,0.625 -6.4375,-2.125 c 0.0552,1.046177 0.75283,1.801399 2.125,2.25 0.59108,0.193242 1.49272,0.332559 2.71875,0.40625 0.22835,0.01624 0.42527,0.04889 0.5625,0.09375 0.21109,0.06901 0.37272,0.199612 0.46875,0.40625 0.0994,0.196082 0.10369,0.403341 0.0312,0.625 -0.10009,0.306096 -0.35661,0.483145 -0.78125,0.53125 -0.41064,0.041 -0.98415,0.01792 -1.71875,-0.09375 -0.72749,-0.09764 -1.37809,-0.254611 -1.9375,-0.4375 -1.2244,-0.400292 -2.09947,-1.05856 -2.65625,-2 -0.55677,-0.941438 -0.66448,-1.954627 -0.3125,-3.03125 0.34162,-1.044952 1.01896,-1.79816 2.03125,-2.25 0.51314,-0.229466 1.0183,-0.354299 1.5625,-0.375 z m -261,0.375 0.25,2 -2,0.25 -0.25,-2 2,-0.25 z m -7.9375,1 0.25,2 -2,0.25 -0.25,-2 2,-0.25 z m 268.875,0.3125 c -0.1336,0.01109 -0.27649,0.0319 -0.40625,0.0625 -0.50847,0.125853 -0.87087,0.365758 -1.125,0.75 L 857.375,90.5 c 0.0148,-0.474168 -0.16062,-0.921143 -0.5,-1.3125 -0.33594,-0.401905 -0.79447,-0.6852 -1.375,-0.875 -0.4354,-0.14234 -0.8492,-0.18951 -1.25,-0.15625 z m -276.8125,0.6875 0.25,2 -2,0.25 -0.25,-2 2,-0.25 z m 203.59375,0.59375 20.875,3.21875 -19.4375,8.3125 3.78125,-4.875 -685.34375,86.25 -0.375,-2.875 685.375,-86.25 -4.875,-3.78125 z M 569.5,89.84375 l 0.25,2 -2,0.25 -0.25,-2 2,-0.25 z m 306.125,0.375 c 0.12631,-0.02004 0.27431,-0.01188 0.40625,0.03125 0.30609,0.100083 0.49754,0.292125 0.5625,0.59375 0.029,0.16137 -0.0254,0.412657 -0.125,0.71875 L 876,92.96875 l 1.53125,0 c 0.27747,0.0089 0.4675,0.03145 0.5625,0.0625 0.20054,0.06557 0.34148,0.199612 0.4375,0.40625 0.10656,0.210095 0.13153,0.413902 0.0625,0.625 -0.12769,0.390543 -0.48299,0.576715 -1.0625,0.5625 l -1.53125,0 0.46875,1.40625 c 0.10736,0.350553 0.11775,0.612369 0.0625,0.78125 -0.069,0.211102 -0.19617,0.362184 -0.40625,0.46875 -0.21009,0.106566 -0.4139,0.13152 -0.625,0.0625 -0.16888,-0.05521 -0.30072,-0.124366 -0.375,-0.21875 -0.0708,-0.104925 -0.15358,-0.316877 -0.25,-0.59375 L 874.4375,95.125 873.21875,96 c -0.2308,0.1699 -0.40154,0.273126 -0.53125,0.3125 -0.12626,0.02882 -0.24793,0.02052 -0.40625,-0.03125 -0.21111,-0.06901 -0.39344,-0.196157 -0.5,-0.40625 -0.10656,-0.210084 -0.13154,-0.445144 -0.0625,-0.65625 0.0518,-0.158322 0.23408,-0.332517 0.53125,-0.5625 l 1.1875,-0.875 -1.21875,-0.875 c -0.26794,-0.181052 -0.42531,-0.366625 -0.5,-0.53125 -0.0747,-0.164615 -0.0685,-0.35139 0,-0.5625 0.069,-0.211095 0.20668,-0.358736 0.40625,-0.46875 0.19953,-0.110007 0.3932,-0.128052 0.59375,-0.0625 0.10555,0.03452 0.27082,0.124556 0.5,0.28125 l 1.21875,0.875 0.4375,-1.40625 c 0.11388,-0.348309 0.26986,-0.560629 0.40625,-0.65625 0.12067,-0.08322 0.21744,-0.136206 0.34375,-0.15625 z m -314.0625,0.625 0.25,2 -2,0.25 -0.25,-2 2,-0.25 z m -7.9375,1 0.25,2 -2,0.25 -0.25,-2 2,-0.25 z m -7.9375,1 0.25,2 -2,0.25 -0.25,-2 2,-0.25 z m -7.9375,1 0.25,2 -2,0.25 -0.25,-2 2,-0.25 z m -7.9375,1 0.25,2 -2,0.25 -0.25,-2 2,-0.25 z m -7.9375,1 0.25,2 -2,0.25 -0.25,-2 2,-0.25 z m 336.09375,0.71875 9.90625,3.25 -0.28125,0.78125 -9.875,-3.21875 0.25,-0.8125 z m -344.03125,0.28125 0.25,2 -2,0.25 -0.25,-2 2,-0.25 z m -7.9375,1 0.25,2 -2,0.25 -0.25,-2 2,-0.25 z m -7.9375,1 0.25,2 -2,0.25 -0.25,-2 2,-0.25 z m -7.9375,1 0.25,2 -2,0.25 -0.25,-2 2,-0.25 z m -7.9375,1 0.25,2 -2,0.25 -0.25,-2 2,-0.25 z m -7.9375,1 0.25,1.96875 -2,0.25 -0.25,-1.96875 2,-0.25 z m -7.9375,1 0.25,1.96875 -2,0.25 -0.25,-1.96875 2,-0.25 z m -7.9375,1 0.25,1.96875 -2,0.25 -0.25,-1.96875 2,-0.25 z m -7.9375,1 0.25,1.96875 -2,0.25 -0.25,-1.96875 2,-0.25 z m -7.9375,1 0.25,1.96875 -2,0.25 -0.25,-1.96875 2,-0.25 z m -7.9375,1 0.25,1.96875 -2,0.25 -0.25,-1.96875 2,-0.25 z m -7.9375,1 0.25,1.96875 -2,0.25 -0.25,-1.96875 2,-0.25 z m -7.9375,1 0.25,1.96875 -2,0.25 -0.25,-1.96875 2,-0.25 z m -7.9375,1 0.25,1.96875 -2,0.25 -0.25,-1.96875 2,-0.25 z m -7.9375,1 0.25,1.96875 -2,0.25 -0.25,-1.96875 2,-0.25 z m -7.9375,1 0.25,1.96875 -2,0.25 -0.25,-1.96875 2,-0.25 z m -7.9375,1 0.25,1.96875 -2,0.25 -0.25,-1.96875 2,-0.25 z m -7.9375,1 0.25,1.96875 -2,0.25 -0.25,-1.96875 2,-0.25 z m -7.9375,1 0.25,1.96875 -2,0.25 -0.21875,-1.96875 1.96875,-0.25 z m -7.9375,1 0.25,1.96875 -2,0.25 -0.21875,-1.96875 1.96875,-0.25 z m -7.9375,0.96875 0.25,2 -2,0.25 -0.21875,-2 1.96875,-0.25 z m -7.9375,1 0.25,2 -1.96875,0.25 -0.25,-2 1.96875,-0.25 z m -7.9375,1 0.25,2 -1.96875,0.25 -0.25,-2 1.96875,-0.25 z m -7.9375,1 0.25,2 -1.96875,0.25 -0.25,-2 1.96875,-0.25 z m -7.9375,1 0.25,2 -1.96875,0.25 -0.25,-2 1.96875,-0.25 z m -7.9375,1 0.25,2 -1.96875,0.25 -0.25,-2 1.96875,-0.25 z m -7.9375,1 0.25,2 -1.96875,0.25 -0.25,-2 1.96875,-0.25 z m -7.9375,1 0.25,2 -1.96875,0.25 -0.25,-2 1.96875,-0.25 z m -7.9375,1 0.25,2 -1.96875,0.25 -0.25,-2 1.96875,-0.25 z m -7.9375,1 0.25,2 -1.96875,0.25 -0.25,-2 1.96875,-0.25 z m -7.9375,1 0.25,2 -1.96875,0.25 -0.25,-2 1.96875,-0.25 z m -7.9375,1 0.25,2 -1.96875,0.25 -0.25,-2 1.96875,-0.25 z m -7.9375,1 0.25,2 -1.96875,0.25 -0.25,-2 1.96875,-0.25 z m -7.9375,1 0.25,2 -1.96875,0.25 -0.25,-2 1.96875,-0.25 z m -7.9375,1 0.25,2 -1.96875,0.25 -0.25,-2 1.96875,-0.25 z m -7.9375,1 0.25,1.96875 -1.96875,0.25 -0.25,-1.96875 1.96875,-0.25 z m -7.9375,1 0.25,1.96875 -1.96875,0.25 -0.25,-1.96875 1.96875,-0.25 z m -7.9375,1 0.25,1.96875 -1.96875,0.25 -0.25,-1.96875 1.96875,-0.25 z m -7.9375,1 0.25,1.96875 -1.96875,0.25 -0.25,-1.96875 1.96875,-0.25 z m -7.9375,1 0.25,1.96875 -1.96875,0.25 -0.25,-1.96875 1.96875,-0.25 z m -7.9375,1 0.25,1.96875 -1.96875,0.25 -0.25,-1.96875 1.96875,-0.25 z m -7.9375,1 0.25,1.96875 -1.96875,0.25 -0.25,-1.96875 1.96875,-0.25 z m -7.9375,1 0.25,1.96875 -1.96875,0.25 -0.25,-1.96875 1.96875,-0.25 z m -7.9375,1 0.25,1.96875 -1.96875,0.25 -0.25,-1.96875 1.96875,-0.25 z m -7.9375,1 0.25,1.96875 -1.96875,0.25 -0.25,-1.96875 1.96875,-0.25 z m -7.9375,1 0.25,1.96875 -1.96875,0.25 -0.25,-1.96875 1.96875,-0.25 z m -7.9375,1 0.25,1.96875 -1.96875,0.25 -0.25,-1.96875 1.96875,-0.25 z m -7.9375,1 0.25,1.96875 -1.96875,0.25 -0.25,-1.96875 1.96875,-0.25 z m -7.9375,1 0.25,1.96875 -1.96875,0.25 -0.25,-1.96875 1.96875,-0.25 z m -7.9375,1 0.25,1.96875 -1.96875,0.25 -0.25,-1.96875 1.96875,-0.25 z m -68.0625,0.40625 c 1.451386,-0.0351 2.860131,0.33439 3.96875,1.375 L 45.625,155.875 l 0.21875,1.59375 16.96875,4.09375 c -1.69923,2.4415 -4.410657,2.77936 -6.71875,2.4375 l -18.4375,-4 c -5.16033,3.14495 -8.28534,3.16854 -8.6875,3.875 -0.53297,0.93628 1.28457,1.8316 1.09375,4.25 -0.24757,3.1375 -3.74902,4.82876 -6.53125,4.1875 -2.72548,-0.38631 -4.25872,-3.57239 -3.40625,-6.0625 0.87969,-2.5971 3.7731,-3.70495 6.28125,-3.875 3.02104,-0.20483 6.34554,-0.62787 7.78125,-4.3125 -3.07559,-4.18152 -8.20379,-1.6804 -11.28125,-1.75 -2.60013,0.1548 -5.07391,-1.9786 -5.21875,-4.59375 -0.30225,-2.57623 1.96909,-4.73935 4.40625,-5.03125 2.4141,-0.46798 5.24676,1.01805 5.6875,3.46875 0.45903,2.5524 -0.4992,2.45065 -0.375,3.4375 0.15889,1.26254 4.74696,-0.059 9.8125,1.9375 L 52.75,147.375 c 1.234355,-0.66238 2.736114,-1.12115 4.1875,-1.15625 z m 60.125,0.5625 0.25,2 -1.96875,0.25 -0.25,-2 1.96875,-0.25 z m -7.9375,1 0.25,2 -1.96875,0.25 -0.25,-2 1.96875,-0.25 z m -86.53125,0.40625 c -1.57046,0.10517 -3.14583,1.15987 -3.28125,2.8125 -0.44034,2.71321 2.94181,4.67576 5.25,3.53125 2.57464,-1.08946 2.28062,-5.01402 -0.46875,-6.125 -0.47053,-0.19015 -0.97651,-0.25385 -1.5,-0.21875 z m 78.59375,0.59375 0.25,2 -1.96875,0.25 -0.25,-2 1.96875,-0.25 z m -7.9375,1 0.25,2 -1.96875,0.25 -0.25,-2 1.96875,-0.25 z m -7.9375,1 0.25,2 -1.96875,0.25 -0.25,-2 1.96875,-0.25 z m -7.9375,1 0.25,2 -1.96875,0.25 -0.25,-2 1.96875,-0.25 z m -7.9375,1 0.25,2 -1.96875,0.25 -0.25,-2 1.96875,-0.25 z m -7.9375,1 0.25,2 -1.96875,0.25 -0.25,-2 1.96875,-0.25 z m -7.9375,1 0.25,2 -1.96875,0.25 -0.25,-2 1.96875,-0.25 z m -9.8125,2.09375 -0.09375,0.0625 0.125,0.0312 L 43.75,156.875 z m -18.90625,7.25 c -2.043562,0.22786 -3.775212,2.44329 -3.21875,4.53125 0.45091,2.10687 3.14615,2.699 4.875,1.84375 2.64911,-0.9526 2.52385,-5.53494 -0.28125,-6.1875 C 25.90177,164.2 25.56653,164.132 25.25,164.125 c -0.138483,-0.003 -0.270013,-0.0152 -0.40625,0 z"
     id="path6590"
     style="opacity:0.55400008;fill:#5f8dd3;fill-opacity:1;fill-rule:nonzero;stroke:none" />
  <g
     transform="matrix(0.29389355,0.07874854,-0.07874854,0.29389355,-1268.2582,-253.61841)"
     id="g6931">
    <path
       d="m -242.58242,147.64687 -38.74292,119.23844 -87.53331,-1e-5 -38.74292,-119.23843"
       id="path6915"
       style="fill:none;stroke:#000000;stroke-width:17.10000038;stroke-linecap:round;stroke-linejoin:round;stroke-miterlimit:4;stroke-opacity:1;stroke-dasharray:none" />
    <text
       x="-425.84836"
       y="-12.052819"
       transform="matrix(0.8660254,-0.5,0.5,0.8660254,0,0)"
       id="text6919"
       xml:space="preserve"
       style="font-size:76.09142303px;font-style:normal;font-variant:normal;font-weight:bold;font-stretch:normal;line-height:125%;letter-spacing:0px;word-spacing:0px;fill:#000000;fill-opacity:1;stroke:none;font-family:TlwgMono;-inkscape-font-specification:TlwgMono Bold"><tspan
         x="-425.84836"
         y="-12.052819"
         id="tspan6921">_mine_</tspan></text>
  </g>
</svg>
