<?xml version="1.0" encoding="UTF-8" standalone="no"?>
<!-- Created with Inkscape (http://www.inkscape.org/) -->

<svg
   xmlns:dc="http://purl.org/dc/elements/1.1/"
   xmlns:cc="http://creativecommons.org/ns#"
   xmlns:rdf="http://www.w3.org/1999/02/22-rdf-syntax-ns#"
   xmlns:svg="http://www.w3.org/2000/svg"
   xmlns="http://www.w3.org/2000/svg"
   version="1.1"
   width="1006.2371"
   height="181.86771"
   id="svg3937">
  <defs
     id="defs3053" />
  <metadata
     id="metadata3942">
    <rdf:RDF>
      <cc:Work
         rdf:about="">
        <dc:format>image/svg+xml</dc:format>
        <dc:type
           rdf:resource="http://purl.org/dc/dcmitype/StillImage" />
        <dc:title></dc:title>
      </cc:Work>
    </rdf:RDF>
  </metadata>
  <path
     d="M 3.3490188,0 1002.8881,0 c 1.8554,0 3.349,1.4936624 3.349,3.3490188 l 0,175.1696712 c 0,1.85535 -1.4936,3.34902 -3.349,3.34902 l -999.5390812,0 C 1.4936624,181.86771 0,180.37404 0,178.51869 L 0,3.3490188 C 0,1.4936624 1.4936624,0 3.3490188,0 z"
     id="rect3144"
     style="opacity:0.8;fill:#1a1a1a;fill-opacity:1;fill-rule:nonzero;stroke:none" />
  <path
     d="m 66.892554,139.18373 c -0.536962,-0.006 -0.971206,0.41413 -0.976799,0.95109 l -0.07712,6.78619 c -0.0058,0.53692 0.414132,0.97112 0.951094,0.9768 l 2.287767,0.0257 c 0.536916,0.006 0.971206,-0.41414 0.976799,-0.9511 l 0.07712,-6.78618 c 0.0058,-0.53692 -0.414132,-0.97113 -0.951094,-0.9768 l -2.287767,-0.0257 z m -9.048247,-0.10282 c -0.536962,-0.006 -0.971206,0.41413 -0.976799,0.95109 l -0.102821,9.74229 c -0.0058,0.53692 0.439837,0.97112 0.976799,0.9768 l 2.262062,0.0257 c 0.536926,0.006 0.996911,-0.41413 1.002504,-0.95109 l 0.102821,-9.74229 c 0.0058,-0.53692 -0.439837,-0.97113 -0.976799,-0.9768 l -2.287767,-0.0257 z m -9.022542,-0.10282 c -0.536917,-0.006 -0.971206,0.43983 -0.976799,0.9768 l -0.128526,12.67268 c -0.0058,0.53692 0.414131,0.97113 0.951094,0.9768 l 2.287767,0.0257 c 0.536962,0.006 0.971206,-0.41413 0.976799,-0.95109 l 0.128526,-12.69839 c 0.0058,-0.53692 -0.41414,-0.97113 -0.951094,-0.9768 l -2.287767,-0.0257 z m -4.395597,-34.7792 c 3.422332,0.0168 30.335668,9.08233 31.463222,10.66767 1.165379,1.63481 0.886882,31.85457 -0.308463,33.46824 -1.194367,1.61342 -30.021827,10.66323 -31.925916,10.02504 -1.674247,-0.56199 -15.43011,-19.63713 -18.71342,-25.60242 l 6.734774,0.0514 c 0.623648,1.52477 2.130817,2.60327 3.881493,2.62193 1.754999,0.0187 3.253729,-1.02783 3.907197,-2.54482 l 9.331005,0.0771 c 0.622997,1.52636 2.103896,2.62897 3.855787,2.64764 2.331901,0.0249 4.242164,-1.85801 4.267071,-4.18995 0.02486,-2.33191 -1.832304,-4.24222 -4.16425,-4.26707 -1.754989,-0.0187 -3.279433,1.02783 -3.932903,2.54482 l -9.305299,-0.0771 c -0.07987,-0.1957 -0.175596,-0.38572 -0.282758,-0.56552 l 7.325996,-9.89652 c 0.309167,0.0758 0.644724,0.12515 0.976799,0.12853 1.280696,0.0136 2.429217,-0.5475 3.213156,-1.4395 l 11.670182,3.9072 c 0.158134,2.16675 1.952643,3.88361 4.16425,3.9072 2.331901,0.0249 4.242254,-1.83232 4.267071,-4.16425 0.02486,-2.33191 -1.832258,-4.24226 -4.16425,-4.26707 -1.280568,-0.0136 -2.429215,0.54749 -3.213156,1.43949 l -11.695887,-3.93291 c -0.158124,-2.16684 -1.952396,-3.88362 -4.16425,-3.9072 -2.331901,-0.0249 -4.242254,1.85801 -4.267071,4.18996 -0.0086,0.80455 0.207416,1.56652 0.59122,2.21065 l -7.325995,9.89652 c -0.30788,-0.0751 -0.646279,-0.12499 -0.976799,-0.12853 -1.75604,-0.0187 -3.254384,1.02623 -3.907198,2.54482 l -6.76048,-0.0514 c 3.393215,-5.90377 17.517356,-24.73808 19.20182,-25.26826 0.05986,-0.0188 0.146637,-0.0261 0.257052,-0.0257 z m -0.951094,-3.67585 c -0.12536,-6.3e-4 -0.240507,0.004 -0.308463,0.0257 -2.174605,0.6838 -22.575088,28.25911 -22.594912,30.53783 -0.0216,2.28005 19.868407,30.22854 22.029396,30.94912 2.161416,0.72327 34.887943,-9.58177 36.244399,-11.41313 1.356896,-1.83155 1.682702,-36.13586 0.359873,-37.99236 -1.279996,-1.79934 -31.84414,-12.08775 -35.730293,-12.10717 z"
     id="rect3061"
     style="opacity:0.8;fill:#1a1a1a;fill-opacity:1;fill-rule:nonzero;stroke:none" />
  <path
     d="m 104.44794,117.58873 c -1.47966,0 -2.83106,0.3374 -4.04727,1.0998 -0.715849,0.44874 -1.359039,1.33261 -2.023639,2.06763 l 0,-1.49573 0,-0.74787 -0.79185,0 -4.795145,0 c -0.687107,0 -1.315763,0.11798 -1.803677,0.48391 -0.487906,0.36594 -0.747863,0.98129 -0.747863,1.58372 0,0.62227 0.257045,1.24596 0.747863,1.62771 0.490826,0.38175 1.11657,0.5279 1.803677,0.5279 l 1.407751,0 0,20.28037 -1.407751,0 c -0.687107,0 -1.315763,0.11798 -1.803677,0.48391 -0.487906,0.36593 -0.747863,0.98128 -0.747863,1.58372 0,0.62226 0.224841,1.24448 0.703872,1.62771 0.47903,0.38322 1.099271,0.5279 1.759686,0.5279 l 7.126717,0 c 0.660419,0 1.268139,-0.11193 1.759689,-0.48391 0.49154,-0.37198 0.74786,-1.031 0.74786,-1.6717 0,-0.60244 -0.25995,-1.21779 -0.74786,-1.58372 -0.48791,-0.36593 -1.07258,-0.48391 -1.759689,-0.48391 l -1.45174,0 0,-16.36507 c 1.1513,-1.69624 2.239099,-2.97992 3.211429,-3.73933 1.01563,-0.79323 1.90295,-1.0998 2.85948,-1.0998 1.68522,0 3.47538,1.91502 3.47538,4.04727 l 0,20.58831 0,0.79186 0.74787,0 4.83913,0 c 0.6871,0 1.31285,-0.14615 1.80368,-0.5279 0.49083,-0.38176 0.70387,-1.00544 0.70387,-1.62771 0,-0.60244 -0.25995,-1.21779 -0.74786,-1.58372 -0.48791,-0.36593 -1.07259,-0.48391 -1.75969,-0.48391 l -1.45174,0 0,-16.40906 c 1.15012,-1.72571 2.22289,-2.94816 3.16743,-3.69534 0.98716,-0.78088 1.85808,-1.0998 2.85949,-1.0998 1.7951,0 3.51937,1.81504 3.51937,3.8713 l 0,20.76428 0,0.79186 0.74787,0 4.83913,0 c 0.6871,0 1.31285,-0.14615 1.80367,-0.5279 0.49083,-0.38176 0.74787,-1.00545 0.74787,-1.62771 0,-0.60243 -0.25995,-1.21779 -0.74787,-1.58372 -0.4879,-0.36593 -1.11657,-0.48391 -1.80367,-0.48391 l -1.45174,0 0,-17.59685 c 0,-4.2576 -3.39333,-7.83059 -7.61064,-7.83059 -2.67407,0 -4.90806,1.50912 -7.2587,4.26723 -1.52506,-2.66479 -3.66783,-4.26723 -6.42285,-4.26723 z m 73.42664,0 c -2.1001,0 -3.85592,0.33551 -5.54302,1.23177 -1.24057,0.65906 -2.52188,1.96087 -3.82731,3.25542 l 0,-2.81549 0,-0.74787 -0.79186,0 -4.88312,0 c -0.68711,0 -1.31577,0.11798 -1.80368,0.48391 -0.48791,0.36594 -0.74786,0.98129 -0.74786,1.58372 0,0.62226 0.25704,1.24595 0.74786,1.62771 0.49082,0.38175 1.11657,0.5279 1.80368,0.5279 l 1.45174,0 0,20.28037 -2.19961,0 c -0.71441,0 -1.3046,0.11973 -1.80367,0.48391 -0.49908,0.36419 -0.79186,0.98128 -0.79186,1.58372 0,0.62227 0.2896,1.29161 0.79186,1.6717 0.50226,0.38008 1.08926,0.48391 1.80367,0.48391 l 8.57847,0 c 0.6871,0 1.26886,-0.14615 1.75968,-0.5279 0.49083,-0.38176 0.74787,-1.00544 0.74787,-1.62771 0,-0.60244 -0.25996,-1.21779 -0.74787,-1.58372 -0.48791,-0.36593 -1.07258,-0.48391 -1.75968,-0.48391 l -2.15562,0 0,-15.44124 c 1.85216,-2.36295 2.5182,-3.1459 3.38739,-3.78332 l 0.0439,0 c 1.70786,-1.40288 3.33346,-1.97964 5.67498,-1.97964 2.46314,0 3.37037,0.27176 4.83912,1.49573 1.49933,1.25943 2.19962,2.62309 2.19962,4.35522 l 0,15.35325 -1.40775,0 c -0.68711,0 -1.31577,0.11798 -1.80368,0.48391 -0.48791,0.36593 -0.74786,0.98129 -0.74786,1.58372 0,0.62226 0.25704,1.24595 0.74786,1.62771 0.49082,0.38175 1.11657,0.5279 1.80368,0.5279 l 7.08273,0 c 0.68711,0 1.31285,-0.14615 1.80368,-0.5279 0.49083,-0.38176 0.74786,-1.00545 0.74786,-1.62771 0,-0.60243 -0.25995,-1.21779 -0.74786,-1.58372 -0.48791,-0.36593 -1.11657,-0.48391 -1.80368,-0.48391 l -1.45174,0 0,-15.79317 c 0,-5.47574 -4.85364,-9.63427 -10.99803,-9.63427 z m -38.66684,0.92383 c -0.68711,0 -1.27177,0.11798 -1.75969,0.48391 -0.4879,0.36594 -0.74786,0.98128 -0.74786,1.58372 0,0.62227 0.25704,1.24596 0.74786,1.62771 0.49083,0.38175 1.07258,0.5279 1.75969,0.5279 l 3.5826,0 0,20.28037 -6.3101,0 c -0.68711,0 -1.27178,0.11798 -1.75969,0.48391 -0.48791,0.36593 -0.74787,0.98129 -0.74787,1.58372 0,0.62226 0.21305,1.24595 0.70388,1.62771 0.49082,0.38175 1.11657,0.5279 1.80368,0.5279 l 16.18084,0 c 0.68711,0 1.30079,-0.11335 1.80368,-0.48391 0.50289,-0.37056 0.79186,-1.031 0.79186,-1.6717 0,-0.60243 -0.24879,-1.21953 -0.74788,-1.58372 -0.49906,-0.36419 -1.13325,-0.48391 -1.84766,-0.48391 l -5.64749,0 0,-23.75574 0,-0.74787 -0.79185,0 z m 73.51453,-0.92383 c -8.7198,0 -15.6172,6.42235 -15.6172,14.73735 0,8.90001 7.34609,15.96914 16.54103,15.96914 3.09961,0 6.58405,-0.80577 9.37033,-1.89166 1.39313,-0.54294 2.60858,-1.17722 3.51936,-1.84767 0.91079,-0.67045 1.62771,-1.40669 1.62771,-2.41957 0,-1.13944 -0.86315,-2.06762 -1.97964,-2.06762 -0.53244,0 -1.00533,0.26559 -1.49574,0.61589 l -0.0439,0 c -2.38409,1.90727 -7.09521,3.38739 -10.95404,3.38739 -6.3765,0 -10.90368,-3.8544 -12.09783,-9.81024 l 26.08733,0 0.74787,0 0,-0.79186 c 0,-3.03257 -0.20491,-4.47367 -1.14381,-6.6868 -2.46751,-5.689 -8.02859,-9.19435 -14.56138,-9.19435 z m 0,4.22324 c 5.64054,0 9.77221,3.22234 11.08601,8.22652 l -22.17202,0 c 1.40192,-5.07739 5.43541,-8.22652 11.08601,-8.22652 z m -67.82031,-13.98949 c 1.16983,0 2.11162,0.94178 2.11162,2.11162 l 0,1.27577 c 0,1.16984 -0.94179,2.11162 -2.11162,2.11162 -1.16984,0 -2.11162,-0.94178 -2.11162,-2.11162 l 0,-1.27577 c 0,-1.16984 0.94178,-2.11162 2.11162,-2.11162 z"
     id="path3085"
     style="opacity:0.8;fill:#1a1a1a;fill-opacity:0.95686275;fill-rule:nonzero;stroke:none" />
</svg>
