<?xml version="1.0" encoding="UTF-8" standalone="no"?>
<!-- Created with Inkscape (http://www.inkscape.org/) -->

<svg
   xmlns:dc="http://purl.org/dc/elements/1.1/"
   xmlns:cc="http://creativecommons.org/ns#"
   xmlns:rdf="http://www.w3.org/1999/02/22-rdf-syntax-ns#"
   xmlns:svg="http://www.w3.org/2000/svg"
   xmlns="http://www.w3.org/2000/svg"
   version="1.1"
   width="1007"
   height="298.62451"
   id="svg3937">
  <defs
     id="defs3053">
    <marker
       refX="0"
       refY="0"
       orient="auto"
       id="Arrow2Send"
       style="overflow:visible">
      <path
         d="M 8.7185878,4.0337352 -2.2072895,0.01601326 8.7185884,-4.0017078 c -1.7454984,2.3720609 -1.7354408,5.6174519 -6e-7,8.035443 z"
         transform="matrix(-0.3,0,0,-0.3,0.69,0)"
         id="path4104"
         style="fill-rule:evenodd;stroke-width:0.625;stroke-linejoin:round" />
    </marker>
    <marker
       refX="0"
       refY="0"
       orient="auto"
       id="Arrow2Sstart"
       style="overflow:visible">
      <path
         d="M 8.7185878,4.0337352 -2.2072895,0.01601326 8.7185884,-4.0017078 c -1.7454984,2.3720609 -1.7354408,5.6174519 -6e-7,8.035443 z"
         transform="matrix(0.3,0,0,0.3,-0.69,0)"
         id="path4101"
         style="fill-rule:evenodd;stroke-width:0.625;stroke-linejoin:round" />
    </marker>
    <marker
       refX="0"
       refY="0"
       orient="auto"
       id="Scissors"
       style="overflow:visible">
      <path
         d="M 9.0898857,-3.6061018 C 8.1198849,-4.7769976 6.3697607,-4.7358294 5.0623558,-4.2327734 l -8.2124046,3.0779029 c -2.3882933,-1.3067135 -4.7482873,-0.9325372 -4.7482873,-1.5687873 0,-0.4973164 0.4566662,-0.3883222 0.3883068,-1.6831941 -0.065635,-1.2432767 -1.3635771,-2.1630796 -2.5903987,-2.0816435 -1.227271,-0.00735 -2.499439,0.9331613 -2.510341,2.2300611 -0.09143,1.3063864 1.007209,2.5196896 2.306764,2.6052316 1.5223406,0.2266616 4.218258,-0.6955566 5.482945,1.57086006 -0.9422847,1.73825774 -2.6140244,1.74307674 -4.1255107,1.65607034 -1.2548743,-0.072235 -2.7620933,0.2873979 -3.3606483,1.5208605 -0.578367,1.1820862 -0.0112,2.8646022 1.316749,3.226412 1.3401912,0.4918277 3.1806689,-0.129711 3.4993722,-1.6707242 0.2456585,-1.187823 -0.5953659,-1.7459574 -0.2725074,-2.1771537 0.2436135,-0.32536 1.7907806,-0.1368452 4.5471053,-1.3748244 L 5.6763468,4.2330688 C 6.8000164,4.5467672 8.1730685,4.5362646 9.1684433,3.4313614 L -0.05164093,-0.05372222 9.0898857,-3.6061018 z m -18.3078016,-1.900504 c 1.294559,0.7227998 1.1888392,2.6835702 -0.1564272,3.0632889 -1.2165179,0.423661 -2.7710269,-0.7589694 -2.3831779,-2.0774648 0.227148,-1.0818519 1.653387,-1.480632 2.5396051,-0.9858241 z m 0.056264,8.0173649 c 1.3508301,0.4988648 1.1214429,2.7844356 -0.2522207,3.091609 -0.9110594,0.3163391 -2.2135494,-0.1387976 -2.3056964,-1.2121394 -0.177609,-1.305055 1.356085,-2.4841482 2.5579171,-1.8794696 z"
         id="schere"
         style="fill:#000000" />
    </marker>
    <marker
       refX="0"
       refY="0"
       orient="auto"
       id="Arrow1Mend"
       style="overflow:visible">
      <path
         d="M 0,0 5,-5 -12.5,0 5,5 0,0 z"
         transform="matrix(-0.4,0,0,-0.4,-4,0)"
         id="path4080"
         style="fill-rule:evenodd;stroke:#000000;stroke-width:1pt" />
    </marker>
    <marker
       refX="0"
       refY="0"
       orient="auto"
       id="DotS"
       style="overflow:visible">
      <path
         d="m -2.5,-1 c 0,2.76 -2.24,5 -5,5 -2.76,0 -5,-2.24 -5,-5 0,-2.76 2.24,-5 5,-5 2.76,0 5,2.24 5,5 z"
         transform="matrix(0.2,0,0,0.2,1.48,0.2)"
         id="path4138"
         style="fill-rule:evenodd;stroke:#000000;stroke-width:1pt" />
    </marker>
    <marker
       refX="0"
       refY="0"
       orient="auto"
       id="DotM"
       style="overflow:visible">
      <path
         d="m -2.5,-1 c 0,2.76 -2.24,5 -5,5 -2.76,0 -5,-2.24 -5,-5 0,-2.76 2.24,-5 5,-5 2.76,0 5,2.24 5,5 z"
         transform="matrix(0.4,0,0,0.4,2.96,0.4)"
         id="path4135"
         style="fill-rule:evenodd;stroke:#000000;stroke-width:1pt" />
    </marker>
    <marker
       refX="0"
       refY="0"
       orient="auto"
       id="DotL"
       style="overflow:visible">
      <path
         d="m -2.5,-1 c 0,2.76 -2.24,5 -5,5 -2.76,0 -5,-2.24 -5,-5 0,-2.76 2.24,-5 5,-5 2.76,0 5,2.24 5,5 z"
         transform="matrix(0.8,0,0,0.8,5.92,0.8)"
         id="path4132"
         style="fill-rule:evenodd;stroke:#000000;stroke-width:1pt" />
    </marker>
    <marker
       refX="0"
       refY="0"
       orient="auto"
       id="DotS-3"
       style="overflow:visible">
      <path
         d="m -2.5,-1 c 0,2.76 -2.24,5 -5,5 -2.76,0 -5,-2.24 -5,-5 0,-2.76 2.24,-5 5,-5 2.76,0 5,2.24 5,5 z"
         transform="matrix(0.2,0,0,0.2,1.48,0.2)"
         id="path4138-1"
         style="fill-rule:evenodd;stroke:#000000;stroke-width:1pt" />
    </marker>
    <marker
       refX="0"
       refY="0"
       orient="auto"
       id="marker6633"
       style="overflow:visible">
      <path
         d="m -2.5,-1 c 0,2.76 -2.24,5 -5,5 -2.76,0 -5,-2.24 -5,-5 0,-2.76 2.24,-5 5,-5 2.76,0 5,2.24 5,5 z"
         transform="matrix(0.2,0,0,0.2,1.48,0.2)"
         id="path6635"
         style="fill-rule:evenodd;stroke:#000000;stroke-width:1pt" />
    </marker>
    <marker
       refX="0"
       refY="0"
       orient="auto"
       id="marker6637"
       style="overflow:visible">
      <path
         d="m -2.5,-1 c 0,2.76 -2.24,5 -5,5 -2.76,0 -5,-2.24 -5,-5 0,-2.76 2.24,-5 5,-5 2.76,0 5,2.24 5,5 z"
         transform="matrix(0.2,0,0,0.2,1.48,0.2)"
         id="path6639"
         style="fill-rule:evenodd;stroke:#000000;stroke-width:1pt" />
    </marker>
    <marker
       refX="0"
       refY="0"
       orient="auto"
       id="marker6641"
       style="overflow:visible">
      <path
         d="m -2.5,-1 c 0,2.76 -2.24,5 -5,5 -2.76,0 -5,-2.24 -5,-5 0,-2.76 2.24,-5 5,-5 2.76,0 5,2.24 5,5 z"
         transform="matrix(0.2,0,0,0.2,1.48,0.2)"
         id="path6643"
         style="fill-rule:evenodd;stroke:#000000;stroke-width:1pt" />
    </marker>
    <marker
       refX="0"
       refY="0"
       orient="auto"
       id="marker6645"
       style="overflow:visible">
      <path
         d="m -2.5,-1 c 0,2.76 -2.24,5 -5,5 -2.76,0 -5,-2.24 -5,-5 0,-2.76 2.24,-5 5,-5 2.76,0 5,2.24 5,5 z"
         transform="matrix(0.2,0,0,0.2,1.48,0.2)"
         id="path6647"
         style="fill-rule:evenodd;stroke:#000000;stroke-width:1pt" />
    </marker>
    <marker
       refX="0"
       refY="0"
       orient="auto"
       id="marker6649"
       style="overflow:visible">
      <path
         d="m -2.5,-1 c 0,2.76 -2.24,5 -5,5 -2.76,0 -5,-2.24 -5,-5 0,-2.76 2.24,-5 5,-5 2.76,0 5,2.24 5,5 z"
         transform="matrix(0.2,0,0,0.2,1.48,0.2)"
         id="path6651"
         style="fill-rule:evenodd;stroke:#000000;stroke-width:1pt" />
    </marker>
    <marker
       refX="0"
       refY="0"
       orient="auto"
       id="marker6653"
       style="overflow:visible">
      <path
         d="m -2.5,-1 c 0,2.76 -2.24,5 -5,5 -2.76,0 -5,-2.24 -5,-5 0,-2.76 2.24,-5 5,-5 2.76,0 5,2.24 5,5 z"
         transform="matrix(0.2,0,0,0.2,1.48,0.2)"
         id="path6655"
         style="fill-rule:evenodd;stroke:#000000;stroke-width:1pt" />
    </marker>
    <marker
       refX="0"
       refY="0"
       orient="auto"
       id="marker6657"
       style="overflow:visible">
      <path
         d="m -2.5,-1 c 0,2.76 -2.24,5 -5,5 -2.76,0 -5,-2.24 -5,-5 0,-2.76 2.24,-5 5,-5 2.76,0 5,2.24 5,5 z"
         transform="matrix(0.2,0,0,0.2,1.48,0.2)"
         id="path6659"
         style="fill-rule:evenodd;stroke:#000000;stroke-width:1pt" />
    </marker>
    <marker
       refX="0"
       refY="0"
       orient="auto"
       id="marker6661"
       style="overflow:visible">
      <path
         d="m -2.5,-1 c 0,2.76 -2.24,5 -5,5 -2.76,0 -5,-2.24 -5,-5 0,-2.76 2.24,-5 5,-5 2.76,0 5,2.24 5,5 z"
         transform="matrix(0.2,0,0,0.2,1.48,0.2)"
         id="path6663"
         style="fill-rule:evenodd;stroke:#000000;stroke-width:1pt" />
    </marker>
  </defs>
  <metadata
     id="metadata3942">
    <rdf:RDF>
      <cc:Work
         rdf:about="">
        <dc:format>image/svg+xml</dc:format>
        <dc:type
           rdf:resource="http://purl.org/dc/dcmitype/StillImage" />
        <dc:title></dc:title>
      </cc:Work>
    </rdf:RDF>
  </metadata>
  <g
     transform="matrix(0.95049348,0.31074451,-0.31074451,0.95049348,888.4114,515.61676)"
     id="text7612"
     style="font-size:16.65730858px;font-style:normal;font-variant:normal;font-weight:bold;font-stretch:normal;line-height:125%;letter-spacing:0px;word-spacing:0px;fill:#000000;fill-opacity:1;stroke:none;font-family:TlwgMono;-inkscape-font-specification:TlwgMono Bold" />
  <text
     x="787.57678"
     y="788.32532"
     id="text7975"
     xml:space="preserve"
     style="font-size:40px;font-style:normal;font-variant:normal;font-weight:500;font-stretch:normal;line-height:125%;letter-spacing:0px;word-spacing:0px;fill:#000000;fill-opacity:1;stroke:none;font-family:TlwgMono;-inkscape-font-specification:TlwgMono Medium"><tspan
       x="787.57678"
       y="788.32532"
       id="tspan7977" /></text>
  <text
     x="1467.6705"
     y="621.94708"
     id="text9921"
     xml:space="preserve"
     style="font-size:21.25386429px;font-style:normal;font-variant:normal;font-weight:bold;font-stretch:normal;line-height:125%;letter-spacing:0px;word-spacing:0px;fill:#000000;fill-opacity:1;stroke:none;font-family:TlwgMono;-inkscape-font-specification:TlwgMono Bold"><tspan
       x="1467.6705"
       y="621.94708"
       id="tspan9923" /></text>
  <g
     transform="translate(886.5,512.74951)"
     id="g11533" />
  <g
     transform="translate(886.5,512.74951)"
     id="g11525" />
  <g
     transform="translate(886.5,512.74951)"
     id="text10189"
     style="font-size:21.25386429px;font-style:normal;font-variant:normal;font-weight:bold;font-stretch:normal;line-height:125%;letter-spacing:0px;word-spacing:0px;fill:#000000;fill-opacity:1;stroke:none;font-family:TlwgMono;-inkscape-font-specification:TlwgMono Bold" />
  <g
     transform="translate(886.5,512.74951)"
     id="text10193"
     style="font-size:21.25386429px;font-style:normal;font-variant:normal;font-weight:bold;font-stretch:normal;line-height:125%;letter-spacing:0px;word-spacing:0px;fill:#000000;fill-opacity:1;stroke:none;font-family:TlwgMono;-inkscape-font-specification:TlwgMono Bold" />
  <g
     transform="translate(886.5,512.74951)"
     id="text10197"
     style="font-size:21.25386429px;font-style:normal;font-variant:normal;font-weight:bold;font-stretch:normal;line-height:125%;letter-spacing:0px;word-spacing:0px;fill:#000000;fill-opacity:1;stroke:none;font-family:TlwgMono;-inkscape-font-specification:TlwgMono Bold" />
  <g
     transform="translate(886.5,512.74951)"
     id="text10201"
     style="font-size:21.25386429px;font-style:normal;font-variant:normal;font-weight:bold;font-stretch:normal;line-height:125%;letter-spacing:0px;word-spacing:0px;fill:#000000;fill-opacity:1;stroke:none;font-family:TlwgMono;-inkscape-font-specification:TlwgMono Bold" />
  <g
     transform="translate(886.5,512.74951)"
     id="text10205"
     style="font-size:21.25386429px;font-style:normal;font-variant:normal;font-weight:bold;font-stretch:normal;line-height:125%;letter-spacing:0px;word-spacing:0px;fill:#000000;fill-opacity:1;stroke:none;font-family:TlwgMono;-inkscape-font-specification:TlwgMono Bold" />
  <g
     transform="translate(886.5,512.74951)"
     id="text10209"
     style="font-size:21.25386429px;font-style:normal;font-variant:normal;font-weight:bold;font-stretch:normal;line-height:125%;letter-spacing:0px;word-spacing:0px;fill:#000000;fill-opacity:1;stroke:none;font-family:TlwgMono;-inkscape-font-specification:TlwgMono Bold" />
  <g
     transform="translate(886.5,512.74951)"
     id="g10393" />
  <g
     transform="translate(886.5,512.74951)"
     id="g10383" />
  <g
     transform="translate(886.5,512.74951)"
     id="text10221"
     style="font-size:21.25386429px;font-style:normal;font-variant:normal;font-weight:bold;font-stretch:normal;line-height:125%;letter-spacing:0px;word-spacing:0px;opacity:0.15;fill:#000000;fill-opacity:1;stroke:none;font-family:TlwgMono;-inkscape-font-specification:TlwgMono Bold" />
  <g
     transform="translate(886.5,512.74951)"
     id="text10225"
     style="font-size:21.25386429px;font-style:normal;font-variant:normal;font-weight:bold;font-stretch:normal;line-height:125%;letter-spacing:0px;word-spacing:0px;opacity:0.15;fill:#000000;fill-opacity:1;stroke:none;font-family:TlwgMono;-inkscape-font-specification:TlwgMono Bold" />
  <g
     transform="translate(886.5,512.74951)"
     id="text10229"
     style="font-size:21.25386429px;font-style:normal;font-variant:normal;font-weight:bold;font-stretch:normal;line-height:125%;letter-spacing:0px;word-spacing:0px;opacity:0.15;fill:#000000;fill-opacity:1;stroke:none;font-family:TlwgMono;-inkscape-font-specification:TlwgMono Bold" />
  <g
     transform="translate(886.5,512.74951)"
     id="text10233"
     style="font-size:21.25386429px;font-style:normal;font-variant:normal;font-weight:bold;font-stretch:normal;line-height:125%;letter-spacing:0px;word-spacing:0px;opacity:0.15;fill:#000000;fill-opacity:1;stroke:none;font-family:TlwgMono;-inkscape-font-specification:TlwgMono Bold" />
  <g
     transform="translate(886.5,512.74951)"
     id="text10237"
     style="font-size:21.25386429px;font-style:normal;font-variant:normal;font-weight:bold;font-stretch:normal;line-height:125%;letter-spacing:0px;word-spacing:0px;opacity:0.15;fill:#000000;fill-opacity:1;stroke:none;font-family:TlwgMono;-inkscape-font-specification:TlwgMono Bold" />
  <g
     transform="translate(886.5,512.74951)"
     id="text10241"
     style="font-size:21.25386429px;font-style:normal;font-variant:normal;font-weight:bold;font-stretch:normal;line-height:125%;letter-spacing:0px;word-spacing:0px;opacity:0.15;fill:#000000;fill-opacity:1;stroke:none;font-family:TlwgMono;-inkscape-font-specification:TlwgMono Bold" />
  <g
     transform="translate(886.5,512.74951)"
     id="text10245"
     style="font-size:21.25386429px;font-style:normal;font-variant:normal;font-weight:bold;font-stretch:normal;line-height:125%;letter-spacing:0px;word-spacing:0px;opacity:0.15;fill:#000000;fill-opacity:1;stroke:none;font-family:TlwgMono;-inkscape-font-specification:TlwgMono Bold" />
  <g
     transform="translate(886.5,512.74951)"
     id="text10249"
     style="font-size:21.25386429px;font-style:normal;font-variant:normal;font-weight:bold;font-stretch:normal;line-height:125%;letter-spacing:0px;word-spacing:0px;opacity:0.15;fill:#000000;fill-opacity:1;stroke:none;font-family:TlwgMono;-inkscape-font-specification:TlwgMono Bold" />
  <g
     transform="translate(886.5,512.74951)"
     id="text10253"
     style="font-size:21.25386429px;font-style:normal;font-variant:normal;font-weight:bold;font-stretch:normal;line-height:125%;letter-spacing:0px;word-spacing:0px;opacity:0.15;fill:#000000;fill-opacity:1;stroke:none;font-family:TlwgMono;-inkscape-font-specification:TlwgMono Bold" />
  <g
     transform="translate(886.5,512.74951)"
     id="text10257"
     style="font-size:21.25386429px;font-style:normal;font-variant:normal;font-weight:bold;font-stretch:normal;line-height:125%;letter-spacing:0px;word-spacing:0px;opacity:0.15;fill:#000000;fill-opacity:1;stroke:none;font-family:TlwgMono;-inkscape-font-specification:TlwgMono Bold" />
  <g
     transform="translate(886.5,512.74951)"
     id="text10261"
     style="font-size:21.25386429px;font-style:normal;font-variant:normal;font-weight:bold;font-stretch:normal;line-height:125%;letter-spacing:0px;word-spacing:0px;opacity:0.15;fill:#000000;fill-opacity:1;stroke:none;font-family:TlwgMono;-inkscape-font-specification:TlwgMono Bold" />
  <g
     transform="translate(886.5,512.74951)"
     id="text10265"
     style="font-size:47.29488754px;font-style:normal;font-variant:normal;font-weight:500;font-stretch:normal;line-height:125%;letter-spacing:0px;word-spacing:0px;opacity:0.15;fill:#000000;fill-opacity:1;stroke:none;font-family:TlwgMono;-inkscape-font-specification:TlwgMono Medium" />
  <path
     d="M 5.03125,0.009 C 2.22465,0.009 1.3484055e-8,2.26471 1.3484055e-8,5.0715 l 0,288.49051 C -1.9998652e-4,296.3688 2.22445,298.62451 5.03125,298.62451 l 106.08167,0 23.90625,-17.0625 c -1.2997,-3.12093 -0.33545,-6.83292 2.53125,-8.875 1.6654,-1.18635 3.6861,-1.59637 5.5625,-1.28125 1.3569,0.22795 2.6189,0.83831 3.6875,1.78125 l 110.6875,-78.8125 c -1.3169,-3.1265 -0.375,-6.85823 2.5,-8.90625 1.6654,-1.18635 3.6866,-1.59637 5.5625,-1.28125 1.357,0.22795 2.6279,0.83831 3.6875,1.78125 l 5.28125,-3.75 0,4.0625 -3.34375,2.375 c 1.2934,3.12738 0.3042,6.86418 -2.5625,8.90625 -2.8702,2.04456 -6.69245,1.72335 -9.21875,-0.53125 l -110.65625,78.84375 c 1.2934,3.12738 0.3042,6.86418 -2.5625,8.90625 -2.8702,2.04456 -6.6619,1.72335 -9.1875,-0.53125 l -20.21875,14.375 885.16833,0 c 2.8068,0 5.0625,-2.25571 5.0625,-5.0625 L 1007,5.0715 c 0,-2.80679 -2.7872,-3.419 -5.0625,-5.0625 L 581.11292,0 441.26917,99.71875 c -0.2542,0.18425 -0.5616,0.29406 -0.875,0.3125 l -0.0312,0.1875 -0.0937,-0.1875 c -0.6655,-0.01 -1.2715,-0.43736 -1.5,-1.0625 -0.2286,-0.62514 -0.034,-1.40695 0.46875,-1.84375 l -0.75,-1.90625 0,-0.0937 -2.59375,-7.03125 c 0.7912,0.58223 1.67855,0.9563 2.59375,1.1875 l 0,-66.25 3.6875,0 0,66.25 c 0.9272,-0.23137 1.8138,-0.60519 2.625,-1.1875 l -2.53125,6.875 133.1875,-94.96875 -39.4375,0 -47.125,33.5625 c 1.2938,3.12738 0.33485,6.86418 -2.53125,8.90625 -2.8702,2.04456 -6.7239,1.72335 -9.25,-0.53125 l -29.1875,20.78125 0,-4.0625 27.25,-19.40625 c -1.2998,-3.12093 -0.3046,-6.83293 2.5625,-8.875 1.6653,-1.18635 3.65535,-1.59637 5.53125,-1.28125 1.3572,0.22795 2.65895,0.83831 3.71875,1.78125 L 530.33177,5e-5 z m 427.70667,69.45926 0,4.0625 -3.1875,2.28125 c 1.3105,3.1265 0.3125,6.85823 -2.5625,8.90625 -2.8702,2.04456 -6.69245,1.74818 -9.21875,-0.5 l -128.03125,91.21875 0,-4.0625 126.125,-89.84375 c -1.2933,-3.12738 -0.33485,-6.86418 2.53125,-8.90625 1.6656,-1.1864 3.65535,-1.56512 5.53125,-1.25 1.3505,0.22687 2.6308,0.81477 3.6875,1.75 z m 70,22.125 2.5,0 0,2.21875 -2.5,0 z m 88.03125,0.65625 c 0.4111,1e-5 0.70805,0.19116 0.90625,0.53125 0.099,0.15559 0.1873,0.43581 0.1875,0.875 l 0,1.875 3.8125,0 c 0.4534,0 0.77045,0.06 0.96875,0.1875 0.2837,0.24076 0.46875,0.53484 0.46875,0.875 0,0.41091 -0.2223,0.70787 -0.5625,0.90625 -0.1558,0.0991 -0.4358,0.15625 -0.875,0.15625 l -3.8125,0 0,4.15625 c 0,0.39674 0.0118,0.65372 0.125,0.78125 0.2552,0.28334 0.80635,0.43751 1.65625,0.4375 1.1196,1e-5 2.1758,-0.23695 3.125,-0.71875 0.2976,-0.15584 0.52025,-0.24996 0.71875,-0.25 0.2833,1e-5 0.5516,0.13124 0.75,0.34375 0.1987,0.21235 0.28125,0.45247 0.28125,0.75 0,0.25502 -0.063,0.4862 -0.21875,0.65625 -0.1559,0.15583 -0.4159,0.31596 -0.8125,0.5 -0.5102,0.24087 -1.1865,0.43787 -1.9375,0.59375 -0.7368,0.17003 -1.35355,0.25004 -1.90625,0.25 -1.2043,1e-5 -2.1664,-0.25699 -2.875,-0.78125 -0.7083,-0.52426 -1.03125,-1.24942 -1.03125,-2.15625 l 0,-4.5625 -0.75,0 c -0.4676,1e-5 -0.8158,-0.077 -1,-0.21875 -0.2835,-0.21251 -0.4378,-0.4893 -0.4375,-0.84375 -10e-5,-0.41089 0.16,-0.7079 0.5,-0.90625 0.1559,-0.0992 0.4981,-0.15624 0.9375,-0.15625 l 0.75,0 0,-1.875 c -2e-4,-0.46756 0.0458,-0.78449 0.1875,-0.96875 0.2125,-0.28334 0.48955,-0.43751 0.84375,-0.4375 z m -100.65625,3 c 0.8076,6e-5 1.55,0.36822 2.1875,1.0625 0.6377,-0.69429 1.38295,-1.06249 2.21875,-1.0625 0.7935,6e-5 1.44445,0.27411 1.96875,0.8125 0.5385,0.52428 0.8121,1.17551 0.8125,1.96875 l 0,4.65625 c 0.8501,1e-5 1.2501,0.35401 1.25,1.0625 1e-4,0.70843 -0.4399,1.06246 -1.375,1.0625 l -2,0 0,-6.59375 c 0,-0.31169 -0.074,-0.54293 -0.1875,-0.65625 -0.1029,-0.12468 -0.2792,-0.18748 -0.5625,-0.1875 -0.2834,-1e-5 -0.55445,0.06 -0.78125,0.1875 -0.2125,0.1275 -0.48955,0.39872 -0.84375,0.78125 l 0,4.34375 c 0.3967,1e-5 0.7108,0.11418 0.9375,0.3125 0.2265,0.18432 0.375,0.42408 0.375,0.75 0,0.38252 -0.1601,0.67956 -0.5,0.90625 -0.156,0.0992 -0.4983,0.15625 -0.9375,0.15625 l -2,0 0,-6.59375 c 0,-0.29754 -0.043,-0.52871 -0.15625,-0.65625 -0.1134,-0.12742 -0.32445,-0.1875 -0.59375,-0.1875 -0.5102,1e-5 -0.9957,0.33113 -1.5625,0.96875 l 0,4.34375 c 0.8642,-2e-5 1.25,0.35407 1.25,1.0625 0,0.38258 -0.16,0.67954 -0.5,0.90625 -0.1558,0.0991 -0.4359,0.15625 -0.875,0.15625 l -1.875,0 c -0.4676,0 -0.8158,-0.0771 -1,-0.21875 -0.2976,-0.21257 -0.4377,-0.48942 -0.4375,-0.84375 0,-0.70849 0.4622,-1.06248 1.3125,-1.0625 l 0,-5.03125 c -0.8504,-0.0283 -1.3125,-0.38237 -1.3125,-1.0625 0,-0.70849 0.4881,-1.06244 1.4375,-1.0625 l 2,0 0,0.5 c 0.6517,-0.52431 1.1974,-0.78122 1.75,-0.78125 z m 27.75,0 c 1.1052,2e-5 2.0414,0.31405 2.75,0.9375 0.7083,0.62348 1.03095,1.49172 1.03125,2.625 l 0,3.875 c 0.8644,6e-5 1.34375,0.35401 1.34375,1.0625 0,0.41089 -0.2225,0.70793 -0.5625,0.90625 -0.1559,0.0993 -0.4358,0.15624 -0.875,0.15625 l -1.90625,0 c -0.9492,-4e-5 -1.40615,-0.35406 -1.40625,-1.0625 10e-5,-0.70848 0.41705,-1.06246 1.28125,-1.0625 l 0,-3.78125 c 0,-1.02019 -0.63105,-1.53125 -1.90625,-1.53125 -0.4959,2e-5 -0.94695,0.10001 -1.34375,0.3125 -0.3823,0.21259 -0.78545,0.58659 -1.28125,1.125 l 0,3.875 0.125,0 c 0.4533,0 0.7533,0.06 0.9375,0.1875 0.2976,0.22672 0.4372,0.52096 0.4375,0.875 0,0.38253 -0.16,0.67956 -0.5,0.90625 -0.1559,0.0992 -0.4359,0.15624 -0.875,0.15625 l -2.375,0 c -0.4536,1e-5 -0.8016,-0.0771 -1,-0.21875 -0.2834,-0.21251 -0.4378,-0.48931 -0.4375,-0.84375 0,-0.41089 0.16,-0.70787 0.5,-0.90625 0.1842,-0.0991 0.5264,-0.15624 0.9375,-0.15625 l 0.125,0 0,-5.03125 c -0.8644,-0.0283 -1.34375,-0.38237 -1.34375,-1.0625 0,-0.70842 0.51945,-1.0625 1.46875,-1.0625 l 2,0 0,1.03125 c 0.5099,-0.48172 0.9501,-0.81578 1.375,-1 0.4251,-0.19839 0.919,-0.31246 1.5,-0.3125 z m 11.875,0 c 0,-1.5869 2.9032,0.47397 3.9375,1.4375 1.0486,0.96353 1.5586,2.19964 1.5625,3.65625 l 0,0.8125 -8.625,0 c 0.4816,1.2469 1.5955,1.87498 3.4375,1.875 0.7935,0 1.95265,-0.19702 3.46875,-0.59375 0.2835,-0.0709 0.53465,-0.0938 0.71875,-0.0937 0.2835,-4e-5 0.5516,0.0999 0.75,0.3125 0.1982,0.19831 0.2496,0.45277 0.25,0.75 0,0.4109 -0.254,0.71077 -0.75,0.9375 -0.4818,0.21256 -1.1899,0.40667 -2.125,0.5625 -0.9211,0.17007 -1.749,0.25 -2.5,0.25 -1.6436,1e-5 -2.9516,-0.454 -4,-1.375 -1.0488,-0.921 -1.59325,-2.1175 -1.59375,-3.5625 0,-1.40276 0.54505,-2.5819 1.59375,-3.53125 1.0625,-0.96354 2.3305,-1.43749 3.875,-1.4375 z m 38.25,0 c 1.587,0 2.87185,0.47398 3.90625,1.4375 1.0488,0.96347 1.58985,2.19963 1.59375,3.65625 l 0,0.8125 -8.6875,0 c 0.4818,1.24688 1.6579,1.87504 3.5,1.875 0.7934,6e-5 1.95275,-0.19696 3.46875,-0.59375 0.2835,-0.0709 0.53435,-0.0937 0.71875,-0.0937 0.2833,2e-5 0.4891,0.1 0.6875,0.3125 0.1984,0.19837 0.3129,0.45217 0.3125,0.75 0,0.41089 -0.2541,0.71079 -0.75,0.9375 -0.4818,0.21252 -1.1898,0.40666 -2.125,0.5625 -0.921,0.17006 -1.749,0.25 -2.5,0.25 -1.6436,0 -3.014,-0.45399 -4.0625,-1.375 -1.0485,-0.921 -1.5621,-2.11749 -1.5625,-3.5625 0,-1.40275 0.514,-2.58186 1.5625,-3.53125 1.0627,-0.96349 2.3931,-1.4375 3.9375,-1.4375 z m 12.875,0 c 1.0344,2e-5 1.9564,0.19413 2.75,0.5625 0.1557,-0.36838 0.3899,-0.56243 0.6875,-0.5625 0.6659,3e-5 1.0001,0.47105 1,1.40625 l 0,0.78125 c 0,0.46757 -0.0608,0.81576 -0.1875,1 -0.241,0.28333 -0.5349,0.40625 -0.875,0.40625 -0.4109,0 -0.7991,-0.27697 -1.125,-0.84375 -0.5808,-0.41092 -1.3091,-0.62496 -2.1875,-0.625 -0.5385,3e-5 -0.9982,0.0941 -1.4375,0.25 -0.4251,0.14168 -0.6254,0.30171 -0.625,0.5 -3e-4,0.19842 0.16255,0.35859 0.53125,0.5 0.2127,0.0709 0.80355,0.20207 1.78125,0.34375 1.4452,0.19838 2.4533,0.44116 3.0625,0.78125 0.4676,0.25506 0.8699,0.60617 1.125,1.03125 0.269,0.42512 0.3749,0.87907 0.375,1.375 -10e-5,0.86432 -0.45105,1.58946 -1.34375,2.15625 -0.8927,0.56676 -2.03175,0.84371 -3.40625,0.84375 -1.2326,-5e-5 -2.2608,-0.21406 -3.125,-0.625 -0.2127,0.17009 -0.4466,0.28129 -0.6875,0.28125 -0.4109,0 -0.725,-0.19122 -0.9375,-0.53125 -0.099,-0.18413 -0.125,-0.46411 -0.125,-0.875 l 0,-0.71875 c 0,-0.48173 0.0458,-0.79873 0.1875,-0.96875 0.2125,-0.29753 0.5065,-0.43741 0.875,-0.4375 0.5384,3e-5 0.8782,0.31409 1.0625,0.9375 0.6092,0.55264 1.49455,0.8125 2.65625,0.8125 0.6803,-3e-5 1.2684,-0.097 1.75,-0.28125 0.4962,-0.1842 0.7502,-0.38411 0.75,-0.625 2e-4,-0.31174 -0.23715,-0.56576 -0.71875,-0.75 -0.326,-0.12751 -0.9599,-0.26168 -1.9375,-0.375 -1.4878,-0.1559 -2.584,-0.45287 -3.25,-0.90625 -0.666,-0.45342 -1,-1.1015 -1,-1.9375 0,-0.85015 0.4281,-1.52403 1.25,-2.0625 0.8217,-0.55253 1.8498,-0.84373 3.125,-0.84375 z m 25.625,0 c 1.5018,1e-5 2.7639,0.47403 3.8125,1.4375 1.0626,0.96353 1.59375,2.15685 1.59375,3.53125 0,1.38861 -0.53105,2.56777 -1.59375,3.53125 -1.0626,0.94934 -2.37575,1.40621 -3.90625,1.40625 -1.5301,0 -2.8123,-0.45688 -3.875,-1.40625 -1.0626,-0.96346 -1.59385,-2.14257 -1.59375,-3.53125 0,-1.40277 0.53125,-2.58191 1.59375,-3.53125 1.0628,-0.94933 2.39585,-1.43749 3.96875,-1.4375 z m 25.25,0 c 1.5868,6e-5 2.8407,0.47398 3.875,1.4375 1.0486,0.96348 1.621,2.19969 1.625,3.65625 l 0,0.8125 -8.71875,0 c 0.4818,1.24694 1.658,1.87504 3.5,1.875 0.7935,0 1.95265,-0.19701 3.46875,-0.59375 0.2834,-0.0709 0.5032,-0.0937 0.6875,-0.0937 0.2834,1e-5 0.52045,0.1 0.71875,0.3125 0.1984,0.19837 0.34385,0.45222 0.34375,0.75 0,0.41095 -0.2544,0.71084 -0.75,0.9375 -0.4819,0.21257 -1.1899,0.4066 -2.125,0.5625 -0.9212,0.17006 -1.7491,0.25 -2.5,0.25 -1.6439,1e-5 -3.04515,-0.45399 -4.09375,-1.375 -1.0484,-0.92101 -1.53095,-2.11743 -1.53125,-3.5625 0,-1.40269 0.48285,-2.58191 1.53125,-3.53125 1.0628,-0.96348 2.42415,-1.43744 3.96875,-1.4375 z m -73.25,0.0312 c 0.751,0 1.4873,0.27409 2.125,0.8125 0.3967,0.32591 0.5622,0.66018 0.5625,1 0,0.29755 -0.1,0.53748 -0.3125,0.75 -0.2126,0.21255 -0.4666,0.31245 -0.75,0.3125 -0.2551,-1e-5 -0.515,-0.11996 -0.8125,-0.375 -0.2976,-0.25502 -0.5576,-0.37503 -0.8125,-0.375 -0.3402,0 -0.7542,0.15705 -1.25,0.46875 -0.4819,0.29764 -1.2301,0.85149 -2.25,1.6875 l 0,3.125 2.90625,0 c 0.4677,5e-5 0.8158,0.06 1,0.1875 0.2976,0.22673 0.46835,0.52096 0.46875,0.875 0,0.41095 -0.1601,0.70786 -0.5,0.90625 -0.1702,0.0992 -0.52935,0.15625 -0.96875,0.15625 l -6.28125,0 c -0.4677,-5e-5 -0.8158,-0.0771 -1,-0.21875 -0.2834,-0.21251 -0.3754,-0.4893 -0.375,-0.84375 0,-0.4109 0.1599,-0.70787 0.5,-0.90625 0.1415,-0.0992 0.4216,-0.15624 0.875,-0.15625 l 1.25,0 0,-5.03125 -0.75,0 c -0.4819,1e-5 -0.8441,-0.077 -1,-0.21875 -0.2975,-0.21251 -0.4376,-0.48941 -0.4375,-0.84375 0,-0.70848 0.5022,-1.06246 1.4375,-1.0625 l 2.875,0 0,1.375 c 0.8501,-0.6376 1.504,-1.05452 2,-1.28125 0.4957,-0.22666 0.9757,-0.34372 1.5,-0.34375 z m 63.75,0 c 0.751,1e-5 1.4248,0.2741 2.0625,0.8125 0.3967,0.32591 0.59435,0.65966 0.59375,1 0,0.29761 -0.0688,0.53743 -0.28125,0.75 -0.2128,0.21255 -0.4668,0.31251 -0.75,0.3125 -0.2554,6e-5 -0.54615,-0.11996 -0.84375,-0.375 -0.2976,-0.25502 -0.58865,-0.37503 -0.84375,-0.375 -0.3401,0 -0.7542,0.15704 -1.25,0.46875 -0.4818,0.29755 -1.2297,0.85144 -2.25,1.6875 l 0,3.125 2.9375,0 c 0.4675,5e-5 0.8159,0.06 1,0.1875 0.2976,0.22668 0.4372,0.52097 0.4375,0.875 0,0.41089 -0.1598,0.70786 -0.5,0.90625 -0.1699,0.0992 -0.4983,0.15624 -0.9375,0.15625 l -6.3125,0 c -0.4676,1e-5 -0.7536,-0.0771 -0.9375,-0.21875 -0.2837,-0.21252 -0.4378,-0.4893 -0.4375,-0.84375 0,-0.4109 0.1601,-0.70792 0.5,-0.90625 0.1418,-0.0992 0.4216,-0.15625 0.875,-0.15625 l 1.25,0 0,-5.03125 -0.75,0 c -0.4817,0 -0.7817,-0.077 -0.9375,-0.21875 -0.2977,-0.2125 -0.46875,-0.48941 -0.46875,-0.84375 2e-4,-0.70848 0.47115,-1.06246 1.40625,-1.0625 l 2.875,0 0,1.375 c 0.85,-0.63762 1.5665,-1.05452 2.0625,-1.28125 0.4956,-0.22666 0.9756,-0.34372 1.5,-0.34375 z m -120.5,0.25 3.78125,0 0,7.15625 2.59375,0 c 0.4534,1e-5 0.7534,0.06 0.9375,0.1875 0.2977,0.22667 0.4371,0.52098 0.4375,0.875 -10e-5,0.3826 -0.1599,0.67951 -0.5,0.90625 -0.17,0.0992 -0.4499,0.15625 -0.875,0.15625 l -7.3125,0 c -0.4818,-3e-5 -0.7816,-0.0771 -0.9375,-0.21875 -0.2978,-0.21252 -0.46875,-0.48935 -0.46875,-0.84375 0,-0.41089 0.1601,-0.70786 0.5,-0.90625 0.1418,-0.0992 0.45275,-0.15623 0.90625,-0.15625 l 2.59375,0 0,-5.03125 -1.65625,0 c -0.4959,1e-5 -0.8442,-0.077 -1,-0.21875 -0.2976,-0.21256 -0.4377,-0.48942 -0.4375,-0.84375 0,-0.41089 0.16,-0.70785 0.5,-0.90625 0.1559,-0.0993 0.4841,-0.15624 0.9375,-0.15625 z m 28.03125,1.84375 c -0.7791,0 -1.45035,0.17702 -2.03125,0.53125 -0.567,0.35422 -1.68167,1.375 -1.09375,1.375 l 6.25,0 c 0.60523,0 -0.5578,-1.03514 -1.125,-1.375 -0.5665,-0.35425 -1.2206,-0.53125 -2,-0.53125 z m 38.21875,0 c -0.7793,0 -1.4192,0.17702 -2,0.53125 -0.567,0.35417 -1.71275,1.375 -1.125,1.375 l 6.25,0 c -0.1699,-0.58096 -0.52655,-1.03513 -1.09375,-1.375 -0.5667,-0.35418 -1.25195,-0.53125 -2.03125,-0.53125 z m 38.4375,0 c -0.9635,-3e-5 -1.75455,0.27413 -2.40625,0.8125 -0.6518,0.53842 -0.96885,1.22363 -0.96875,2.03125 0,0.79348 0.2998,1.44742 0.9375,2 0.6517,0.53847 1.45695,0.81253 2.40625,0.8125 0.9493,4e-5 1.7376,-0.27407 2.375,-0.8125 0.652,-0.5526 1.0002,-1.20652 1,-2 0,-0.79347 -0.348,-1.46159 -1,-2 -0.6374,-0.55264 -1.42275,-0.84377 -2.34375,-0.84375 z m 25.3125,0 c -0.7794,-1e-5 -1.4817,0.17707 -2.0625,0.53125 -0.5669,0.35423 -0.9069,0.80822 -1.0625,1.375 l 6.25,0 c -0.1702,-0.58095 -0.5579,-1.03514 -1.125,-1.375 -0.5668,-0.35424 -1.2208,-0.53125 -2,-0.53125 z m -349.65625,36.59375 0.0312,0 1.8125,5 0.0312,0 0,0.0937 2.59375,7.03125 c -0.7912,-0.58223 -1.67885,-0.9563 -2.59375,-1.1875 l 0,62.875 61.0625,-43.53125 c 0.254,-0.18456 0.5616,-0.29441 0.875,-0.3125 0.7148,-0.0519 1.4482,0.41819 1.6875,1.09375 0.2393,0.67555 -0.0365,1.4967 -0.625,1.90625 l -125.34365,89.34385 c -0.6996,0.55925 -1.8568,0.41803 -2.375,-0.3125 -0.5181,-0.73053 -0.29035,-1.89966 0.46875,-2.375 l 60.5625,-43.1875 0,-65.5 c -0.9209,0.23207 -1.8183,0.60862 -2.625,1.1875 l 2.625,-7.125 z m 188.96875,24.84375 3.8125,0 0,11.125 2.625,0 c 0.4533,0 0.72225,0.06 0.90625,0.1875 0.2976,0.22673 0.46825,0.52096 0.46875,0.875 0,0.38258 -0.16,0.7108 -0.5,0.9375 -0.1701,0.0992 -0.4501,0.12501 -0.875,0.125 l -7.34375,0 c -0.4817,0 -0.81285,-0.0771 -0.96875,-0.21875 -0.2976,-0.21252 -0.4376,-0.48942 -0.4375,-0.84375 1e-4,-0.41095 0.1599,-0.70785 0.5,-0.90625 0.1417,-0.0992 0.45295,-0.15623 0.90625,-0.15625 l 2.59375,0 0,-9 -1.6875,0 c -0.4959,3e-5 -0.7818,-0.077 -0.9375,-0.21875 -0.2976,-0.19835 -0.46835,-0.47543 -0.46875,-0.84375 2e-4,-0.41094 0.1598,-0.70785 0.5,-0.90625 0.1558,-0.0992 0.45285,-0.15624 0.90625,-0.15625 z m -62.6875,0.0312 2.5,0 0,2.21875 -2.5,0 z m -12.625,3.65625 c 0.8077,0 1.5498,0.36827 2.1875,1.0625 0.6376,-0.69424 1.3515,-1.06248 2.1875,-1.0625 0.7935,10e-6 1.4758,0.27405 2,0.8125 0.5384,0.52422 0.8121,1.17557 0.8125,1.96875 l 0,4.65625 c 0.8501,10e-6 1.25,0.35407 1.25,1.0625 0,0.70848 -0.47085,1.06254 -1.40625,1.0625 l -1.96875,0 0,-6.59375 c 0,-0.31175 -0.074,-0.54286 -0.1875,-0.65625 -0.1029,-0.12468 -0.2791,-0.18749 -0.5625,-0.1875 -0.2835,4e-5 -0.55445,0.06 -0.78125,0.1875 -0.2125,0.12756 -0.48945,0.39872 -0.84375,0.78125 l 0,4.34375 c 0.3967,10e-6 0.7108,0.11412 0.9375,0.3125 0.2265,0.18433 0.3748,0.42414 0.375,0.75 0,0.38258 -0.2223,0.71074 -0.5625,0.9375 -0.1557,0.0991 -0.4358,0.125 -0.875,0.125 l -2,0 0,-6.59375 c 0,-0.29753 -0.043,-0.52872 -0.15625,-0.65625 -0.1133,-0.12742 -0.32455,-0.18748 -0.59375,-0.1875 -0.5101,2e-5 -0.9957,0.33113 -1.5625,0.96875 l 0,4.34375 c 0.8641,4e-5 1.25,0.35401 1.25,1.0625 -10e-5,0.38259 -0.1599,0.71079 -0.5,0.9375 -0.1559,0.0992 -0.4359,0.12499 -0.875,0.125 l -1.875,0 c -0.4677,2e-5 -0.8158,-0.0459 -1,-0.1875 -0.2977,-0.2125 -0.4376,-0.52067 -0.4375,-0.875 0,-0.70843 0.3998,-1.06249 1.25,-1.0625 l 0,-5.03125 c -0.8502,-0.0283 -1.25,-0.38237 -1.25,-1.0625 0,-0.70842 0.4882,-1.06249 1.4375,-1.0625 l 2,0 0,0.5 c 0.6517,-0.52417 1.1973,-0.78122 1.75,-0.78125 z m 27.75,0 c 1.1052,10e-6 2.0414,0.31405 2.75,0.9375 0.7083,0.62347 1.03095,1.52291 1.03125,2.65625 l 0,3.84375 c 0,0.8644 1.34355,0.35407 1.34375,1.0625 -2e-4,0.41095 -0.2224,0.73911 -0.5625,0.9375 -0.1558,0.0991 -0.4358,0.125 -0.875,0.125 l -1.90625,0 c -0.9493,0 -1.40625,-0.35407 -1.40625,-1.0625 0,-0.70848 0.41705,-1.06252 1.28125,-1.0625 l 0,-3.78125 c 0,-1.02018 -0.63105,-1.53126 -1.90625,-1.53125 -0.4958,-4e-5 -0.94695,0.1 -1.34375,0.3125 -0.3824,0.21256 -0.78545,0.61785 -1.28125,1.15625 l 0,3.84375 0.125,0 c 0.4533,0 0.7533,0.0601 0.9375,0.1875 0.2976,0.22673 0.4373,0.52096 0.4375,0.875 0,0.38258 -0.16,0.71082 -0.5,0.9375 -0.1559,0.0993 -0.4359,0.125 -0.875,0.125 l -2.375,0 c -0.4536,10e-6 -0.8018,-0.0459 -1,-0.1875 -0.2836,-0.21258 -0.4378,-0.52055 -0.4375,-0.875 0,-0.41089 0.1599,-0.70786 0.5,-0.90625 0.1842,-0.0991 0.5265,-0.15625 0.9375,-0.15625 l 0.125,0 0,-5.03125 c -0.8644,-0.0283 -1.34375,-0.38237 -1.34375,-1.0625 2e-4,-0.70848 0.51945,-1.06244 1.46875,-1.0625 l 2,0 0,1.03125 c 0.5099,-0.48172 0.95,-0.81578 1.375,-1 0.4252,-0.19836 0.9191,-0.31252 1.5,-0.3125 z m 11.875,0 c 1.587,2e-5 2.9033,0.50522 3.9375,1.46875 1.0486,0.96347 1.5586,2.16844 1.5625,3.625 l 0,0.8125 -8.625,0 c 0.4817,1.24693 1.5955,1.87504 3.4375,1.875 0.7934,10e-6 1.95275,-0.197 3.46875,-0.59375 0.2835,-0.0708 0.53425,-0.0937 0.71875,-0.0937 0.2833,2e-5 0.5515,0.1 0.75,0.3125 0.1982,0.19832 0.2496,0.45275 0.25,0.75 0,0.41095 -0.2541,0.71084 -0.75,0.9375 -0.4817,0.21256 -1.1898,0.4066 -2.125,0.5625 -0.921,0.16999 -1.749,0.25001 -2.5,0.25 -1.6436,1e-5 -2.9516,-0.45399 -4,-1.375 -1.0488,-0.92099 -1.6247,-2.1175 -1.625,-3.5625 0,-1.40276 0.5763,-2.55065 1.625,-3.5 1.0624,-0.96347 2.3306,-1.46874 3.875,-1.46875 z m 25.90625,0 c 1.2188,0 2.20935,0.23121 3.03125,0.65625 0.1274,-0.42507 0.4016,-0.65621 0.8125,-0.65625 0.6801,3e-5 1.03235,0.47029 1.03125,1.40625 l 0,1.65625 c 0,0.46758 -0.0288,0.76748 -0.15625,0.9375 -0.2268,0.29757 -0.5208,0.43752 -0.875,0.4375 -0.3118,-2e-5 -0.6143,-0.0829 -0.8125,-0.28125 -0.1276,-0.0991 -0.2272,-0.33641 -0.3125,-0.71875 -0.071,-0.34008 -0.21345,-0.6112 -0.46875,-0.78125 -0.5807,-0.35418 -1.3288,-0.53127 -2.25,-0.53125 -1.0058,-3e-5 -1.79695,0.27695 -2.40625,0.84375 -0.5953,0.55257 -0.9375,1.31192 -0.9375,2.21875 1e-4,1.74278 1.2562,2.59377 3.75,2.59375 0.9353,-2e-5 1.6974,-0.097 2.25,-0.28125 0.2693,-0.085 0.6232,-0.302 1.0625,-0.65625 0.184,-0.16997 0.384,-0.24996 0.625,-0.25 0.2832,3e-5 0.5374,0.1 0.75,0.3125 0.2125,0.21259 0.3123,0.48382 0.3125,0.78125 0,0.56677 -0.4682,1.06367 -1.375,1.53125 -0.9352,0.45345 -2.19425,0.68756 -3.78125,0.6875 -1.9553,6e-5 -3.41435,-0.49106 -4.40625,-1.46875 -0.8642,-0.86435 -1.3123,-1.93239 -1.3125,-3.25 1e-4,-1.51611 0.5562,-2.78644 1.5625,-3.75 1.0199,-0.96346 2.30525,-1.43749 3.90625,-1.4375 z m 25.09375,0 c 1.5868,0 2.87205,0.47398 3.90625,1.4375 1.0485,0.96354 1.58995,2.19963 1.59375,3.65625 l 0,0.8125 -8.6875,0 c 0.4819,1.24687 1.62705,1.87498 3.46875,1.875 0.7937,10e-6 1.95255,-0.19697 3.46875,-0.59375 0.2834,-0.0708 0.5657,-0.0937 0.75,-0.0937 0.2833,2e-5 0.4892,0.1 0.6875,0.3125 0.1984,0.19836 0.3119,0.45276 0.3125,0.75 0,0.41089 -0.2541,0.71079 -0.75,0.9375 -0.4818,0.21252 -1.1898,0.40666 -2.125,0.5625 -0.921,0.17006 -1.7491,0.25002 -2.5,0.25 -1.6439,2e-5 -3.014,-0.45399 -4.0625,-1.375 -1.0485,-0.921 -1.5622,-2.1175 -1.5625,-3.5625 0,-1.40276 0.5139,-2.58186 1.5625,-3.53125 1.0627,-0.96348 2.393,-1.43751 3.9375,-1.4375 z m 12.75,0 c 1.3037,-1e-5 2.3258,0.29113 3.0625,0.84375 0.7509,0.55263 1.1251,1.32063 1.125,2.3125 l 0,4.28125 0.34375,0 c 0.4676,5e-5 0.78455,0.06 0.96875,0.1875 0.2836,0.24071 0.40675,0.53476 0.40625,0.875 0,0.41088 -0.1599,0.73916 -0.5,0.9375 -0.1417,0.0992 -0.4216,0.125 -0.875,0.125 l -2.5,0 0,-0.46875 c -1.0625,0.5526 -2.24185,0.81248 -3.53125,0.8125 -1.0486,3e-5 -1.9364,-0.25994 -2.6875,-0.8125 -0.751,-0.56677 -1.125,-1.26902 -1.125,-2.0625 0,-0.69427 0.2599,-1.34529 0.8125,-1.96875 0.9634,-1.07683 2.3996,-1.625 4.3125,-1.625 0.6376,2e-5 1.38305,0.0771 2.21875,0.21875 l 0,-0.46875 c 2e-4,-0.69433 -0.65085,-1.06264 -1.96875,-1.0625 -0.7227,-1e-5 -1.5166,0.13411 -2.4375,0.375 -0.3542,0.085 -0.6625,0.12497 -0.875,0.125 -0.2976,-1e-5 -0.5517,-0.11412 -0.75,-0.3125 -0.1987,-0.21233 -0.3126,-0.46949 -0.3125,-0.78125 0,-0.45341 0.2625,-0.73333 0.6875,-0.875 1.2044,-0.4251 2.3923,-0.65624 3.625,-0.65625 z m 13.625,0 c 1.1049,2e-5 1.979,0.31406 2.6875,0.9375 0.7084,0.62347 1.0621,1.49176 1.0625,2.625 l 0,3.875 c 0,0.8643 1.28125,0.35409 1.28125,1.0625 0,0.41096 -0.1599,0.73912 -0.5,0.9375 -0.1557,0.0992 -0.46705,0.125 -0.90625,0.125 l -1.875,0 c -0.9493,3e-5 -1.4375,-0.35401 -1.4375,-1.0625 0,-0.70843 0.4482,-1.06247 1.3125,-1.0625 l 0,-3.78125 c 0,-1.02018 -0.5997,-1.53127 -1.875,-1.53125 -0.4959,-5e-5 -0.9781,0.0999 -1.375,0.3125 -0.3824,0.21259 -0.8167,0.5866 -1.3125,1.125 l 0,3.875 0.125,0 c 0.4534,0 0.7532,0.0601 0.9375,0.1875 0.2976,0.22671 0.4996,0.52096 0.5,0.875 -2e-4,0.38258 -0.2225,0.7108 -0.5625,0.9375 -0.1559,0.0992 -0.4357,0.12499 -0.875,0.125 l -2.40625,0 c -0.4533,0 -0.77035,-0.0771 -0.96875,-0.21875 -0.2833,-0.21256 -0.40655,-0.4893 -0.40625,-0.84375 2e-4,-0.41095 0.1601,-0.70786 0.5,-0.90625 0.1843,-0.0991 0.4642,-0.15624 0.875,-0.15625 l 0.15625,0 0,-5.03125 c -0.8644,-0.0283 -1.3125,-0.38236 -1.3125,-1.0625 0,-0.70848 0.4882,-1.06243 1.4375,-1.0625 l 2,0 0,1.03125 c 0.5101,-0.48172 0.95,-0.8158 1.375,-1 0.4251,-0.19838 0.9814,-0.31252 1.5625,-0.3125 z m -105.375,0.28125 3.75,0 0,7.15625 2.625,0 c 0.4533,0 0.7533,0.06 0.9375,0.1875 0.2976,0.22672 0.4373,0.52091 0.4375,0.875 0,0.38253 -0.16,0.71081 -0.5,0.9375 -0.1701,0.0992 -0.45,0.125 -0.875,0.125 l -7.34375,0 c -0.4817,2e-5 -0.75055,-0.0459 -0.90625,-0.1875 -0.2976,-0.21257 -0.46875,-0.52061 -0.46875,-0.875 0,-0.41089 0.16,-0.70791 0.5,-0.90625 0.1418,-0.0992 0.4217,-0.15622 0.875,-0.15625 l 2.59375,0 0,-5.03125 -1.625,0 c -0.496,0 -0.8442,-0.077 -1,-0.21875 -0.2976,-0.2125 -0.4376,-0.48947 -0.4375,-0.84375 0,-0.41095 0.1599,-0.70785 0.5,-0.90625 0.1559,-0.0992 0.4841,-0.15623 0.9375,-0.15625 z m 28.03125,1.84375 c -0.7791,0 -1.45045,0.17701 -2.03125,0.53125 -0.5669,0.35417 -0.93795,0.80827 -1.09375,1.375 l 6.25,0 c -0.1699,-0.58096 -0.5578,-1.03514 -1.125,-1.375 -0.5667,-0.35419 -1.2206,-0.53125 -2,-0.53125 z m 50.96875,0 c -0.7793,0 -1.419,0.177 -2,0.53125 -0.5669,0.35417 -0.9693,0.80829 -1.125,1.375 l 6.25,0 c -0.1701,-0.5809 -0.52655,-1.03514 -1.09375,-1.375 -0.5668,-0.35417 -1.25205,-0.53125 -2.03125,-0.53125 z m 12.4375,3.28125 c -0.7227,0 -1.3708,0.15704 -1.9375,0.46875 -0.5527,0.31172 -0.8127,0.68284 -0.8125,1.09375 -10e-5,0.24088 0.15685,0.43809 0.46875,0.59375 0.3118,0.15588 0.6718,0.21877 1.125,0.21875 1.1621,10e-6 2.35525,-0.3711 3.53125,-1.09375 l 0,-1.0625 c -0.8926,-0.15586 -1.6949,-0.21873 -2.375,-0.21875 z m -151.5625,34.4375 2.5,0 0,2.21875 -2.5,0 z m -12.59375,3.6875 c 0.8078,10e-6 1.51865,0.33696 2.15625,1.03125 0.6376,-0.69431 1.38285,-1.03123 2.21875,-1.03125 0.7935,7e-5 1.44445,0.27407 1.96875,0.8125 0.5384,0.52429 0.8125,1.17547 0.8125,1.96875 l 0,4.65625 c 0.8502,0 1.3126,0.35401 1.3125,1.0625 0,0.70843 -0.5022,1.06248 -1.4375,1.0625 l -2,0 0,-6.625 c 0,-0.31169 -0.074,-0.51168 -0.1875,-0.625 -0.1029,-0.12469 -0.2792,-0.18748 -0.5625,-0.1875 -0.2834,-1e-5 -0.5232,0.06 -0.75,0.1875 -0.2125,0.1275 -0.5208,0.36742 -0.875,0.75 l 0,4.375 c 0.3967,10e-6 0.7107,0.0829 0.9375,0.28125 0.2265,0.18433 0.3751,0.45534 0.375,0.78125 0,0.38252 -0.1601,0.67955 -0.5,0.90625 -0.156,0.0992 -0.4983,0.15624 -0.9375,0.15625 l -2,0 0,-6.625 c 0,-0.29754 -0.043,-0.49746 -0.15625,-0.625 -0.1134,-0.12742 -0.26215,-0.18747 -0.53125,-0.1875 -0.5103,2e-5 -1.0584,0.29989 -1.625,0.9375 l 0,4.375 c 0.8642,-1e-5 1.25,0.35407 1.25,1.0625 0,0.38259 -0.1599,0.67955 -0.5,0.90625 -0.1558,0.0992 -0.4359,0.15625 -0.875,0.15625 l -1.875,0 c -0.4677,0 -0.8158,-0.077 -1,-0.21875 -0.2975,-0.21251 -0.4377,-0.48942 -0.4375,-0.84375 0,-0.70849 0.4623,-1.0625 1.3125,-1.0625 l 0,-5.03125 c -0.8503,-0.0283 -1.3125,-0.38237 -1.3125,-1.0625 0,-0.70849 0.4882,-1.06244 1.4375,-1.0625 l 2,0 0,0.5 c 0.6518,-0.52431 1.22865,-0.78122 1.78125,-0.78125 z m 27.71875,0 c 1.1052,2e-5 2.0416,0.31405 2.75,0.9375 0.7083,0.62346 1.03085,1.49177 1.03125,2.625 l 0,3.875 c 0,0.8644 1.34375,0.35402 1.34375,1.0625 0,0.4109 -0.1601,0.70792 -0.5,0.90625 -0.156,0.0993 -0.4983,0.15625 -0.9375,0.15625 l -1.875,0 c -0.9494,-3e-5 -1.4375,-0.35402 -1.4375,-1.0625 0,-0.70849 0.41695,-1.06252 1.28125,-1.0625 l 0,-3.78125 c 0,-1.02018 -0.63105,-1.53125 -1.90625,-1.53125 -0.4959,3e-5 -0.94695,0.10002 -1.34375,0.3125 -0.3824,0.21256 -0.78545,0.5866 -1.28125,1.125 l 0,3.875 0.125,0 c 0.4533,0 0.7533,0.06 0.9375,0.1875 0.2976,0.22672 0.4373,0.52096 0.4375,0.875 0,0.38258 -0.1599,0.67955 -0.5,0.90625 -0.1558,0.0991 -0.4358,0.15624 -0.875,0.15625 l -2.375,0 c -0.4537,-5e-5 -0.8017,-0.077 -1,-0.21875 -0.2834,-0.21251 -0.4378,-0.4893 -0.4375,-0.84375 0,-0.4109 0.2224,-0.70785 0.5625,-0.90625 0.1839,-0.0992 0.4639,-0.15624 0.875,-0.15625 l 0.125,0 0,-5.03125 c -0.8644,-0.0283 -1.3125,-0.38238 -1.3125,-1.0625 -10e-5,-0.70843 0.4881,-1.0625 1.4375,-1.0625 l 2,0 0,1 c 0.5099,-0.48172 0.9499,-0.8158 1.375,-1 0.4251,-0.1983 0.9191,-0.28122 1.5,-0.28125 z m 11.875,0 c 1.587,0 2.9031,0.47398 3.9375,1.4375 1.0484,0.96353 1.5586,2.16838 1.5625,3.625 l 0,0.84375 -8.625,0 c 0.4817,1.24686 1.6579,1.87497 3.5,1.875 0.7932,0 1.89025,-0.19703 3.40625,-0.59375 0.2837,-0.0709 0.53465,-0.12503 0.71875,-0.125 0.2835,-4e-5 0.5516,0.1 0.75,0.3125 0.1982,0.19836 0.2495,0.45275 0.25,0.75 0,0.41089 -0.22275,0.74203 -0.71875,0.96875 -0.4817,0.21252 -1.1897,0.37541 -2.125,0.53125 -0.9209,0.17005 -1.78025,0.2812 -2.53125,0.28125 -1.6436,-5e-5 -2.9516,-0.48525 -4,-1.40625 -1.0487,-0.921 -1.59345,-2.08619 -1.59375,-3.53125 0,-1.40276 0.54515,-2.58191 1.59375,-3.53125 1.0626,-0.96354 2.3306,-1.43751 3.875,-1.4375 z m 25.65625,0 c 1.0344,3e-5 1.92515,0.16288 2.71875,0.53125 0.1559,-0.36839 0.39,-0.53119 0.6875,-0.53125 0.666,2e-5 1.0001,0.47099 1,1.40625 l 0,0.78125 c 1e-4,0.46758 -0.06,0.78452 -0.1875,0.96875 -0.2408,0.28339 -0.5349,0.43741 -0.875,0.4375 -0.4109,-1e-5 -0.76765,-0.30822 -1.09375,-0.875 -0.5808,-0.41091 -1.27785,-0.5937 -2.15625,-0.59375 -0.5385,3e-5 -1.0608,0.0628 -1.5,0.21875 -0.4251,0.14168 -0.6252,0.33287 -0.625,0.53125 -2e-4,0.1984 0.16345,0.35805 0.53125,0.5 0.2128,0.0708 0.80355,0.17082 1.78125,0.3125 1.4453,0.19836 2.48465,0.47242 3.09375,0.8125 0.4678,0.25501 0.83855,0.60619 1.09375,1.03125 0.2691,0.42513 0.375,0.87906 0.375,1.375 0,0.86432 -0.4198,1.55822 -1.3125,2.125 -0.8928,0.56677 -2.03165,0.87496 -3.40625,0.875 -1.2325,-6e-5 -2.29195,-0.21411 -3.15625,-0.625 -0.2126,0.17003 -0.4466,0.24999 -0.6875,0.25 -0.4109,10e-6 -0.7249,-0.15992 -0.9375,-0.5 -0.099,-0.18413 -0.1249,-0.49536 -0.125,-0.90625 l 0,-0.6875 c 1e-4,-0.48178 0.046,-0.82996 0.1875,-1 0.2125,-0.29757 0.5066,-0.43748 0.875,-0.4375 0.5384,-2e-5 0.90955,0.31407 1.09375,0.9375 0.6094,0.55263 1.49435,0.84375 2.65625,0.84375 0.6802,-4e-5 1.2682,-0.097 1.75,-0.28125 0.4959,-0.1842 0.7501,-0.41537 0.75,-0.65625 1e-4,-0.31175 -0.2059,-0.53452 -0.6875,-0.71875 -0.3261,-0.12752 -1.0222,-0.26168 -2,-0.375 -1.4878,-0.15589 -2.55265,-0.45287 -3.21875,-0.90625 -0.6658,-0.45343 -1,-1.10151 -1,-1.9375 0,-0.85015 0.39685,-1.55528 1.21875,-2.09375 0.8217,-0.55254 1.88105,-0.81247 3.15625,-0.8125 z m 13.46875,0 c 1.1052,2e-5 2.0414,0.31406 2.75,0.9375 0.7084,0.62347 1.03095,1.49177 1.03125,2.625 l 0,3.875 c 0.8644,-2e-5 1.28115,0.35407 1.28125,1.0625 0,0.4109 -0.16,0.70787 -0.5,0.90625 -0.1558,0.0992 -0.46695,0.15629 -0.90625,0.15625 l -1.875,0 c -0.9492,10e-6 -1.40645,-0.35401 -1.40625,-1.0625 -2e-4,-0.70844 0.41715,-1.06247 1.28125,-1.0625 l 0,-3.78125 c 0,-1.02019 -0.63125,-1.53119 -1.90625,-1.53125 -0.4962,4e-5 -0.94695,0.1 -1.34375,0.3125 -0.3823,0.2125 -0.84775,0.5866 -1.34375,1.125 l 0,3.875 0.1875,0 c 0.4533,4e-5 0.72225,0.06 0.90625,0.1875 0.2976,0.22673 0.46835,0.5209 0.46875,0.875 0,0.38253 -0.16,0.67956 -0.5,0.90625 -0.1558,0.0992 -0.4359,0.15625 -0.875,0.15625 l -2.4375,0 c -0.4534,10e-6 -0.7393,-0.077 -0.9375,-0.21875 -0.2834,-0.21258 -0.46905,-0.48924 -0.46875,-0.84375 2e-4,-0.41094 0.19105,-0.70785 0.53125,-0.90625 0.1842,-0.0991 0.4641,-0.15625 0.875,-0.15625 l 0.125,0 0,-5.03125 c -0.8643,-0.0283 -1.28105,-0.38238 -1.28125,-1.0625 2e-4,-0.70849 0.51945,-1.06249 1.46875,-1.0625 l 1.9375,0 0,1 c 0,0.70162 1.0121,-0.81574 1.4375,-1 0.4248,-0.19838 0.9191,-0.28122 1.5,-0.28125 z m 11.875,0 c 1.3035,10e-6 2.3257,0.25988 3.0625,0.8125 0.7511,0.55256 1.125,1.32063 1.125,2.3125 l 0,4.3125 0.34375,0 c 0.4678,-1e-5 0.78455,0.06 0.96875,0.1875 0.2836,0.24076 0.4377,0.53483 0.4375,0.875 0,0.4109 -0.1598,0.70786 -0.5,0.90625 -0.1417,0.0992 -0.45265,0.15625 -0.90625,0.15625 l -2.46875,0 0,-0.5 c -1.0627,0.5526 -2.24155,0.84372 -3.53125,0.84375 -1.0482,-3e-5 -1.96785,-0.29118 -2.71875,-0.84375 -0.751,-0.56676 -1.125,-1.23777 -1.125,-2.03125 0,-0.69427 0.29125,-1.34528 0.84375,-1.96875 0.9636,-1.07682 2.43095,-1.62501 4.34375,-1.625 0.6375,2e-5 1.3515,0.077 2.1875,0.21875 l 0,-0.5 c -10e-5,-0.69427 -0.682,-1.03139 -2,-1.03125 -0.7226,-1e-5 -1.5166,0.10286 -2.4375,0.34375 -0.3544,0.085 -0.6623,0.12497 -0.875,0.125 -0.2975,-1e-5 -0.5516,-0.0829 -0.75,-0.28125 -0.1986,-0.2123 -0.2502,-0.46944 -0.25,-0.78125 0,-0.45341 0.1999,-0.76458 0.625,-0.90625 1.2044,-0.42511 2.3922,-0.62497 3.625,-0.625 z m 13.5,0 c 1.4878,-3e-5 2.71,0.45397 3.6875,1.375 0.9919,0.90684 1.5,2.03185 1.5,3.40625 0,1.30357 -0.46,2.38566 -1.4375,3.25 -0.9777,0.86428 -2.24515,1.31252 -3.71875,1.3125 -1.1618,0 -2.24685,-0.394 -3.28125,-1.1875 l 0,3.625 1.25,0 c 0.4673,-1e-5 0.8155,0.06 1,0.1875 0.2832,0.21257 0.3747,0.5068 0.375,0.875 0,0.38252 -0.1599,0.67954 -0.5,0.90625 -0.1558,0.0991 -0.4359,0.15624 -0.875,0.15625 l -3.71875,0 c -0.4817,2e-5 -0.79875,-0.0771 -0.96875,-0.21875 -0.2834,-0.21252 -0.4378,-0.4893 -0.4375,-0.84375 0,-0.4109 0.1601,-0.70793 0.5,-0.90625 0.1418,-0.0992 0.45295,-0.15624 0.90625,-0.15625 l 0.34375,0 0,-9.375 -0.34375,0 c -0.4674,2e-5 -0.78465,-0.0912 -0.96875,-0.21875 -0.2836,-0.24076 -0.4376,-0.50356 -0.4375,-0.84375 0,-0.41089 0.16,-0.73911 0.5,-0.9375 0.1842,-0.0991 0.49545,-0.12499 0.90625,-0.125 l 2.46875,0 0,0.9375 c 0.9635,-0.8218 2.0456,-1.21874 3.25,-1.21875 z m -92.5,0.28125 3.78125,0 0,7.15625 2.59375,0 c 0.4534,-1e-5 0.7533,0.06 0.9375,0.1875 0.2975,0.22667 0.46855,0.52096 0.46875,0.875 0,0.38258 -0.19115,0.67955 -0.53125,0.90625 -0.17,0.0992 -0.45,0.15625 -0.875,0.15625 l -7.3125,0 c -0.4817,-6e-5 -0.7817,-0.077 -0.9375,-0.21875 -0.2976,-0.21251 -0.46895,-0.48936 -0.46875,-0.84375 0,-0.4109 0.1601,-0.70784 0.5,-0.90625 0.1418,-0.0992 0.45285,-0.15624 0.90625,-0.15625 l 2.59375,0 0,-5.03125 -1.65625,0 c -0.4959,2e-5 -0.8441,-0.077 -1,-0.21875 -0.2975,-0.21257 -0.4377,-0.48935 -0.4375,-0.84375 0,-0.41089 0.2224,-0.73916 0.5625,-0.9375 0.1556,-0.0992 0.4216,-0.12498 0.875,-0.125 z m 28.03125,1.84375 c -0.7791,10e-6 -1.45025,0.17699 -2.03125,0.53125 -0.5667,0.35425 -0.93785,0.80822 -1.09375,1.375 l 6.25,0 c -0.17,-0.5809 -0.52665,-1.03514 -1.09375,-1.375 -0.5668,-0.35424 -1.25195,-0.53124 -2.03125,-0.53125 z m 64.375,0 c -0.8926,3e-5 -1.61785,0.18284 -2.15625,0.59375 -0.3117,0.2267 -0.53435,0.52081 -0.71875,0.875 -0.184,0.35425 -0.28125,0.72244 -0.28125,1.0625 0,0.75096 0.2941,1.362 0.875,1.84375 0.5951,0.48176 1.34615,0.71878 2.28125,0.71875 0.9211,5e-5 1.6691,-0.237 2.25,-0.71875 0.5952,-0.48177 0.90625,-1.10694 0.90625,-1.84375 0,-0.35421 -0.0969,-0.70826 -0.28125,-1.0625 -0.184,-0.35418 -0.4382,-0.64822 -0.75,-0.875 -0.5382,-0.41092 -1.2464,-0.59374 -2.125,-0.59375 z m -13.65625,3.25 c -0.7228,-1e-5 -1.40185,0.15703 -1.96875,0.46875 -0.5525,0.31174 -0.84375,0.68286 -0.84375,1.09375 0,0.24087 0.15705,0.43803 0.46875,0.59375 0.3119,0.15583 0.70285,0.25001 1.15625,0.25 1.1619,0 2.3238,-0.3711 3.5,-1.09375 l 0,-1.0625 c -0.8927,-0.15587 -1.6324,-0.24998 -2.3125,-0.25 z m -142.09375,36.75 2.5,0 0,2.25 -2.5,0 z m 50.96875,0 2.5,0 0,2.25 -2.5,0 z m 25.5,0 2.5,0 0,2.25 -2.5,0 z m 11.625,0.6875 c 0.4108,10e-6 0.6767,0.15992 0.875,0.5 0.099,0.1556 0.15625,0.46699 0.15625,0.90625 l 0,1.875 3.84375,0 c 0.4535,0 0.8016,0.06 1,0.1875 0.2835,0.24072 0.40665,0.53477 0.40625,0.875 0,0.4109 -0.16,0.70792 -0.5,0.90625 -0.1557,0.0993 -0.46705,0.15626 -0.90625,0.15625 l -3.84375,0 0,4.15625 c 0,0.39674 0.043,0.65374 0.15625,0.78125 0.2552,0.2833 0.8373,0.43751 1.6875,0.4375 1.1192,2e-5 2.1755,-0.23701 3.125,-0.71875 0.2975,-0.15589 0.4891,-0.25002 0.6875,-0.25 0.2834,2e-5 0.5516,0.1 0.75,0.3125 0.1986,0.21231 0.3123,0.48372 0.3125,0.78125 0,0.25509 -0.0942,0.45502 -0.25,0.625 -0.1559,0.15589 -0.44655,0.34723 -0.84375,0.53125 -0.5099,0.24088 -1.1239,0.43788 -1.875,0.59375 -0.7366,0.17003 -1.35375,0.24998 -1.90625,0.25 -1.2046,10e-6 -2.1667,-0.25698 -2.875,-0.78125 -0.7086,-0.52425 -1.09375,-1.24942 -1.09375,-2.15625 l 0,-4.5625 -0.75,0 c -0.4674,2e-5 -0.78455,-0.077 -0.96875,-0.21875 -0.2834,-0.21257 -0.4378,-0.48929 -0.4375,-0.84375 1e-4,-0.41094 0.1599,-0.7391 0.5,-0.9375 0.1559,-0.0992 0.46705,-0.12504 0.90625,-0.125 l 0.75,0 0,-1.875 c 0,-0.46757 0.077,-0.78456 0.21875,-0.96875 0.2124,-0.28334 0.5206,-0.43748 0.875,-0.4375 z m -100.625,3 c 0.8075,10e-6 1.4873,0.33696 2.125,1.03125 0.6376,-0.69431 1.4139,-1.03123 2.25,-1.03125 0.7933,10e-6 1.4132,0.27408 1.9375,0.8125 0.5384,0.5243 0.8125,1.17551 0.8125,1.96875 l 0,4.65625 c 0.8502,5e-5 1.28135,0.35407 1.28125,1.0625 0,0.70849 -0.47115,1.06247 -1.40625,1.0625 l -2,0 0,-6.625 c 0,-0.31168 -0.074,-0.51162 -0.1875,-0.625 -0.1029,-0.1247 -0.2791,-0.18748 -0.5625,-0.1875 -0.2834,5e-5 -0.5234,0.06 -0.75,0.1875 -0.2127,0.12745 -0.5207,0.36741 -0.875,0.75 l 0,4.375 c 0.3968,-1e-5 0.7108,0.0829 0.9375,0.28125 0.2265,0.18433 0.34375,0.45547 0.34375,0.78125 0,0.38259 -0.1598,0.67956 -0.5,0.90625 -0.1557,0.0992 -0.46695,0.15624 -0.90625,0.15625 l -2,0 0,-6.625 c 0,-0.29753 -0.0118,-0.49742 -0.125,-0.625 -0.1136,-0.12738 -0.3558,-0.18753 -0.625,-0.1875 -0.5101,-3e-5 -1.02705,0.29989 -1.59375,0.9375 l 0,4.375 c 0.8644,-1e-5 1.28125,0.35407 1.28125,1.0625 0,0.38258 -0.16,0.6795 -0.5,0.90625 -0.1559,0.0992 -0.46675,0.15624 -0.90625,0.15625 l -1.875,0 c -0.4674,0 -0.78455,-0.077 -0.96875,-0.21875 -0.2976,-0.2125 -0.4377,-0.48941 -0.4375,-0.84375 0,-0.70848 0.43105,-1.06249 1.28125,-1.0625 l 0,-5.03125 c -0.8501,-0.0283 -1.28125,-0.38238 -1.28125,-1.0625 0,-0.70849 0.45695,-1.06249 1.40625,-1.0625 l 2,0 0,0.5 c 0.652,-0.52425 1.29115,-0.78122 1.84375,-0.78125 z m 27.6875,0 c 1.1052,10e-6 2.01025,0.31411 2.71875,0.9375 0.7085,0.62346 1.09345,1.49169 1.09375,2.625 l 0,3.875 c 0.8641,0 1.28145,0.35401 1.28125,1.0625 0,0.41089 -0.19125,0.70786 -0.53125,0.90625 -0.1559,0.0992 -0.4357,0.15624 -0.875,0.15625 l -1.875,0 c -0.9493,3e-5 -1.4374,-0.35407 -1.4375,-1.0625 1e-4,-0.70849 0.4483,-1.06253 1.3125,-1.0625 l 0,-3.78125 c 0,-1.02018 -0.6623,-1.53126 -1.9375,-1.53125 -0.496,2e-5 -0.9158,0.1 -1.3125,0.3125 -0.3827,0.21256 -0.84765,0.58664 -1.34375,1.125 l 0,3.875 0.125,0 c 0.4537,-2e-5 0.78455,0.06 0.96875,0.1875 0.2976,0.22666 0.4373,0.52096 0.4375,0.875 0,0.38258 -0.1598,0.67948 -0.5,0.90625 -0.1559,0.0992 -0.46695,0.15625 -0.90625,0.15625 l -2.375,0 c -0.4533,10e-6 -0.77025,-0.077 -0.96875,-0.21875 -0.2834,-0.21251 -0.4379,-0.48924 -0.4375,-0.84375 0,-0.41088 0.1601,-0.70792 0.5,-0.90625 0.1843,-0.0992 0.49535,-0.15625 0.90625,-0.15625 l 0.125,0 0,-5.03125 c -0.8642,-0.0283 -1.28125,-0.38237 -1.28125,-1.0625 1e-4,-0.70848 0.45685,-1.0625 1.40625,-1.0625 l 2,0 0,1 c 0.5102,-0.48172 0.98125,-0.8158 1.40625,-1 0.4251,-0.19839 0.9191,-0.28123 1.5,-0.28125 z m 11.875,0 c 1.5871,0 2.9031,0.47398 3.9375,1.4375 1.0484,0.96353 1.5586,2.16833 1.5625,3.625 l 0,0.84375 -8.65625,0 c 0.4819,1.24689 1.62685,1.87499 3.46875,1.875 0.7935,0 1.9837,-0.19696 3.5,-0.59375 0.2833,-0.0708 0.5032,-0.12497 0.6875,-0.125 0.2833,3e-5 0.52045,0.1 0.71875,0.3125 0.1984,0.19836 0.28085,0.45271 0.28125,0.75 -10e-5,0.41091 -0.1915,0.74203 -0.6875,0.96875 -0.4819,0.21251 -1.1902,0.40667 -2.125,0.5625 -0.9212,0.17005 -1.8115,0.25 -2.5625,0.25 -1.6436,10e-6 -2.98265,-0.454 -4.03125,-1.375 -1.0484,-0.92101 -1.53085,-2.1175 -1.53125,-3.5625 0,-1.40276 0.48275,-2.58186 1.53125,-3.53125 1.0628,-0.96349 2.36195,-1.4375 3.90625,-1.4375 z m 39.09375,0 c 1.1053,10e-6 2.0417,0.31406 2.75,0.9375 0.7085,0.62341 1.09325,1.49171 1.09375,2.625 l 0,3.875 c 0,0.8641 1.25,0.35402 1.25,1.0625 0,0.41089 -0.1599,0.70791 -0.5,0.90625 -0.1559,0.0992 -0.4358,0.15625 -0.875,0.15625 l -1.875,0 c -0.9495,-2e-5 -1.46875,-0.35407 -1.46875,-1.0625 0,-0.70849 0.47935,-1.06245 1.34375,-1.0625 l 0,-3.78125 c 0,-1.02018 -0.69355,-1.53126 -1.96875,-1.53125 -0.4957,10e-6 -0.94705,0.10001 -1.34375,0.3125 -0.3826,0.21257 -0.8166,0.5866 -1.3125,1.125 l 0,3.875 0.125,0 c 0.4534,-1e-5 0.8158,0.06 1,0.1875 0.2975,0.22672 0.40605,0.52102 0.40625,0.875 0,0.38258 -0.1599,0.67955 -0.5,0.90625 -0.1557,0.0992 -0.46705,0.15625 -0.90625,0.15625 l -2.375,0 c -0.4534,10e-6 -0.77035,-0.077 -0.96875,-0.21875 -0.2833,-0.2125 -0.40655,-0.4893 -0.40625,-0.84375 0,-0.41089 0.1599,-0.70791 0.5,-0.90625 0.1842,-0.0991 0.4641,-0.15625 0.875,-0.15625 l 0.125,0 0,-5.03125 c -0.8642,-0.0283 -1.2501,-0.38237 -1.25,-1.0625 -2e-4,-0.70842 0.4257,-1.06258 1.375,-1.0625 l 2,0 0,1 c 0.5101,-0.48172 0.98125,-0.81578 1.40625,-1 0.4252,-0.1983 0.9191,-0.28122 1.5,-0.28125 z m -67.09375,0.28125 3.8125,0 0,7.15625 2.5625,0 c 0.4533,5e-5 0.7533,0.06 0.9375,0.1875 0.2976,0.22671 0.4997,0.52096 0.5,0.875 0,0.38259 -0.2225,0.67956 -0.5625,0.90625 -0.1701,0.0992 -0.4499,0.15623 -0.875,0.15625 l -7.3125,0 c -0.4819,10e-6 -0.81295,-0.077 -0.96875,-0.21875 -0.2975,-0.21256 -0.40645,-0.48942 -0.40625,-0.84375 0,-0.41089 0.1599,-0.70793 0.5,-0.90625 0.1415,-0.0992 0.4216,-0.15624 0.875,-0.15625 l 2.625,0 0,-5.03125 -1.6875,0 c -0.4959,-3e-5 -0.8442,-0.077 -1,-0.21875 -0.2977,-0.21249 -0.4376,-0.48942 -0.4375,-0.84375 0,-0.41089 0.16,-0.73912 0.5,-0.9375 0.1559,-0.0992 0.484,-0.12498 0.9375,-0.125 z m 50.96875,0 3.78125,0 0,7.15625 2.59375,0 c 0.4536,-1e-5 0.78455,0.0601 0.96875,0.1875 0.2975,0.22671 0.4373,0.5209 0.4375,0.875 -10e-5,0.38258 -0.19115,0.67956 -0.53125,0.90625 -0.1701,0.0992 -0.4498,0.15624 -0.875,0.15625 l -7.28125,0 c -0.4819,-5e-5 -0.8441,-0.077 -1,-0.21875 -0.2976,-0.21252 -0.4377,-0.48936 -0.4375,-0.84375 0,-0.41088 0.1598,-0.70785 0.5,-0.90625 0.1416,-0.0992 0.4838,-0.15623 0.9375,-0.15625 l 2.5625,0 0,-5.03125 -1.65625,0 c -0.4957,2e-5 -0.81295,-0.077 -0.96875,-0.21875 -0.2975,-0.21255 -0.4378,-0.48941 -0.4375,-0.84375 -2e-4,-0.41089 0.1601,-0.73918 0.5,-0.9375 0.156,-0.0993 0.45295,-0.12498 0.90625,-0.125 z m 25.46875,0 3.8125,0 0,7.15625 2.59375,0 c 0.4537,0 0.78455,0.0601 0.96875,0.1875 0.2975,0.22673 0.40605,0.52097 0.40625,0.875 0,0.38259 -0.1598,0.6795 -0.5,0.90625 -0.17,0.0992 -0.4498,0.15625 -0.875,0.15625 l -7.28125,0 c -0.4819,-4e-5 -0.8442,-0.077 -1,-0.21875 -0.2977,-0.2125 -0.4376,-0.48942 -0.4375,-0.84375 0,-0.41089 0.16,-0.70787 0.5,-0.90625 0.1416,-0.0992 0.484,-0.15625 0.9375,-0.15625 l 2.5625,0 0,-5.03125 -1.6875,0 c -0.4961,3e-5 -0.81285,-0.077 -0.96875,-0.21875 -0.2975,-0.21256 -0.40645,-0.48935 -0.40625,-0.84375 0,-0.41088 0.16,-0.73916 0.5,-0.9375 0.1558,-0.0993 0.4216,-0.12504 0.875,-0.125 z m -48.375,1.84375 c -0.7795,10e-6 -1.4816,0.17702 -2.0625,0.53125 -0.5667,0.35417 -0.9067,0.80826 -1.0625,1.375 l 6.25,0 c -0.1703,-0.58094 -0.5582,-1.03513 -1.125,-1.375 -0.5671,-0.35418 -1.2208,-0.53124 -2,-0.53125 z"
     id="path10185-3"
     style="opacity:0.7;fill:#ff2a2a;fill-opacity:1;fill-rule:nonzero;stroke:none" />
</svg>
