<?xml version="1.0" encoding="UTF-8" standalone="no"?>
<!-- Created with Inkscape (http://www.inkscape.org/) -->

<svg
   xmlns:dc="http://purl.org/dc/elements/1.1/"
   xmlns:cc="http://creativecommons.org/ns#"
   xmlns:rdf="http://www.w3.org/1999/02/22-rdf-syntax-ns#"
   xmlns:svg="http://www.w3.org/2000/svg"
   xmlns="http://www.w3.org/2000/svg"
   version="1.1"
   width="302.21362"
   height="87.22393"
   id="svg3937">
  <defs
     id="defs3053" />
  <metadata
     id="metadata3942">
    <rdf:RDF>
      <cc:Work
         rdf:about="">
        <dc:format>image/svg+xml</dc:format>
        <dc:type
           rdf:resource="http://purl.org/dc/dcmitype/StillImage" />
        <dc:title></dc:title>
      </cc:Work>
    </rdf:RDF>
  </metadata>
  <g
     transform="matrix(1.3906703,0,0,1.3906703,-22.125396,83.352341)"
     id="g4307">
    <path
       d="m 75.674926,-47.601558 c 1.348281,1.89222 1.025492,36.855631 -0.357513,38.7224108 -1.382555,1.8666 -34.733517,12.3632934 -36.93652,11.626105 C 36.178324,2.0125122 15.887877,-26.465109 15.909897,-28.789025 c 0.02021,-2.322561 20.832919,-30.419404 23.049366,-31.116365 2.216457,-0.69697 35.36912,10.413005 36.715829,12.306122 z"
       id="path3203"
       style="fill:#363636" />
    <path
       d="m 39.781956,-58.22637 c -0.120809,-3.94e-4 -0.216559,0.0096 -0.282049,0.03015 -1.843029,0.580084 -17.276024,21.185935 -20.988656,27.645451 l 7.377637,0.07034 c 0.714266,-1.661537 2.375691,-2.816776 4.297034,-2.796296 0.361634,0.0039 0.714056,0.04918 1.050918,0.13135 l 8.024073,-10.831149 c -0.419933,-0.704757 -0.654845,-1.533574 -0.645457,-2.413867 0.02715,-2.551462 2.116694,-4.596842 4.668106,-4.56965 2.420065,0.0258 4.384277,1.907701 4.557286,4.278511 l 12.785064,4.287588 c 0.857736,-0.975967 2.120608,-1.589028 3.521721,-1.574089 2.551512,0.02715 4.596803,2.120825 4.569602,4.672247 -0.02715,2.551452 -2.116694,4.59684 -4.668106,4.569643 -2.419795,-0.0258 -4.384276,-1.907795 -4.557296,-4.278515 l -12.789184,-4.287626 c -0.857735,0.975967 -2.116427,1.589076 -3.517681,1.574137 -0.363334,-0.0037 -0.716729,-0.05259 -1.054999,-0.135538 l -8.020452,10.835316 c 0.117249,0.19673 0.21679,0.402293 0.304185,0.616411 l 10.19465,0.09206 c 0.714983,-1.659786 2.372751,-2.816805 4.292945,-2.796336 2.551462,0.0272 4.596803,2.120825 4.569602,4.67224 -0.02725,2.551461 -2.116695,4.596843 -4.668107,4.569648 -1.916804,-0.02043 -3.546828,-1.204696 -4.228469,-2.874738 l -10.19465,-0.0921 c -0.714983,1.659784 -2.372703,2.812723 -4.292907,2.792255 -1.915474,-0.02042 -3.550193,-1.202395 -4.232547,-2.8707 l -7.377638,-0.07035 C 22.068963,-20.453148 37.122966,0.4352384 38.954816,1.0501343 41.038145,1.7483964 72.578364,-8.1761272 73.885162,-9.9414312 75.19303,-11.707002 75.496717,-44.773224 74.221636,-46.561922 72.98794,-48.296509 43.528211,-58.209865 39.78372,-58.228212 z m 4.82278,38.066207 2.497993,0.02663 c 0.587499,0.0062 1.055403,0.48429 1.049143,1.071751 l -0.147968,13.8814058 c -0.0061,0.587507 -0.484239,1.055404 -1.071748,1.049143 l -2.497983,-0.02663 c -0.587509,-0.0062 -1.055412,-0.484289 -1.049152,-1.07175 l 0.147967,-13.8814088 c 0.0061,-0.587509 0.484289,-1.055408 1.071748,-1.049146 z m 9.883975,0.105351 2.497983,0.02663 c 0.587509,0.0062 1.055412,0.484289 1.049152,1.07175 L 57.92227,-8.3019582 c -0.0061,0.587506 -0.484289,1.055405 -1.071758,1.049145 l -2.497983,-0.02663 c -0.587509,-0.0062 -1.055402,-0.48429 -1.049142,-1.071753 l 0.113576,-10.6544748 c 0.0061,-0.587508 0.484239,-1.055405 1.071748,-1.049144 z m 9.888104,0.105398 2.497983,0.02662 c 0.587509,0.0062 1.055412,0.48429 1.049142,1.07175 l -0.07921,7.427543 c -0.0061,0.587508 -0.484289,1.055405 -1.071748,1.049144 l -2.497983,-0.02663 c -0.587509,-0.0062 -1.055452,-0.484291 -1.049192,-1.071753 l 0.07921,-7.427542 c 0.0061,-0.587508 0.484289,-1.055406 1.071798,-1.049143 z"
       id="path3207"
       style="fill:#f26100;fill-rule:nonzero" />
  </g>
  <path
     d="m 113.56877,22.757274 c -2.25144,0 -4.30769,0.513386 -6.15825,1.673438 -1.08923,0.682799 -2.06789,2.027673 -3.07913,3.146063 l 0,-2.275875 0,-1.13793 -1.20487,-8e-6 -7.296189,0 c -1.045491,0 -2.002042,0.179521 -2.744438,0.736312 -0.742396,0.556796 -1.137938,1.493099 -1.137938,2.409751 0,0.94683 0.39111,1.895822 1.137938,2.476688 0.746828,0.580865 1.698947,0.80325 2.744438,0.80325 l 2.142,0 0,30.858192 -2.142,0 c -1.045491,0 -2.002042,0.179521 -2.744438,0.736313 -0.742396,0.556796 -1.137938,1.493099 -1.137938,2.40975 0,0.946831 0.342119,1.893582 1.071001,2.476688 0.728882,0.583106 1.672626,0.80325 2.6775,0.80325 l 10.843874,0 c 1.00488,0 1.92957,-0.17031 2.6775,-0.736312 0.74793,-0.566 1.13794,-1.568745 1.13794,-2.543626 0,-0.916651 -0.39554,-1.852952 -1.13794,-2.40975 -0.74239,-0.556798 -1.63201,-0.736313 -2.6775,-0.736313 l -2.20894,0 0,-24.900754 c 1.75179,-2.580964 3.40696,-4.534182 4.88644,-5.689688 1.54537,-1.206968 2.89549,-1.673438 4.35094,-1.673438 2.5642,0 5.28806,2.913855 5.28806,6.158251 l 0,31.326755 0,1.204875 1.13794,0 7.36313,0 c 1.04548,0 1.99761,-0.222384 2.74444,-0.80325 0.74683,-0.580865 1.071,-1.529855 1.071,-2.476688 0,-0.916654 -0.39555,-1.852954 -1.13794,-2.40975 -0.7424,-0.556796 -1.63202,-0.736313 -2.6775,-0.736313 l -2.20894,0 0,-24.967691 c 1.74999,-2.625803 3.3823,-4.485859 4.8195,-5.622751 1.50204,-1.188174 2.82721,-1.673438 4.35094,-1.673438 2.73139,0 5.355,2.761735 5.355,5.890501 l 0,31.594505 0,1.204875 1.13794,0 7.36312,0 c 1.04549,0 1.99761,-0.222382 2.74444,-0.80325 0.74683,-0.580867 1.13794,-1.529861 1.13794,-2.476688 0,-0.916647 -0.39554,-1.852952 -1.13794,-2.40975 -0.74239,-0.556798 -1.69895,-0.736313 -2.74444,-0.736313 l -2.20893,0 0,-26.775004 c 0,-6.478287 -5.16323,-11.914877 -11.58019,-11.914877 -4.06882,0 -7.46801,2.296252 -11.04469,6.492939 -2.32052,-4.054689 -5.5809,-6.492939 -9.77288,-6.492939 z"
     id="path4480"
     style="font-size:medium;font-style:normal;font-variant:normal;font-weight:normal;font-stretch:normal;text-indent:0;text-align:start;text-decoration:none;line-height:125%;letter-spacing:0;word-spacing:0;text-transform:none;direction:ltr;block-progression:tb;writing-mode:lr-tb;text-anchor:start;baseline-shift:baseline;color:#000000;fill:#363636;fill-opacity:1;fill-rule:nonzero;stroke:none;stroke-width:1.10000002;marker:none;visibility:visible;display:inline;overflow:visible;enable-background:accumulate;font-family:Nimbus Mono L;-inkscape-font-specification:Nimbus Mono L" />
  <path
     d="m 225.29324,22.757274 c -3.19546,0 -5.86709,0.510516 -8.43413,1.87425 -1.88763,1.002806 -3.83724,2.983614 -5.82356,4.953376 l 0,-4.284 0,-1.13793 -1.20488,-8e-6 -7.43006,0 c -1.04549,0 -2.00204,0.179521 -2.74444,0.736312 -0.74239,0.556801 -1.13794,1.493103 -1.13794,2.409751 0,0.946826 0.39111,1.89582 1.13794,2.476688 0.74683,0.580867 1.69895,0.80325 2.74444,0.80325 l 2.20894,0 0,30.858192 -3.34688,0 c -1.08704,0 -1.98505,0.182178 -2.74444,0.736313 -0.75938,0.554136 -1.20487,1.493096 -1.20487,2.40975 0,0.946833 0.44065,1.965299 1.20487,2.543626 0.76423,0.578327 1.6574,0.736312 2.74444,0.736312 l 13.05282,0 c 1.04549,0 1.93067,-0.222384 2.6775,-0.80325 0.74683,-0.580865 1.13794,-1.529855 1.13794,-2.476688 0,-0.916654 -0.39555,-1.852954 -1.13794,-2.40975 -0.7424,-0.556796 -1.63201,-0.736313 -2.6775,-0.736313 l -3.27994,0 0,-23.495066 c 2.81821,-3.595422 3.83163,-4.786752 5.15419,-5.756626 l 0.0668,0 c 2.59865,-2.134597 5.07213,-3.012188 8.63494,-3.012188 3.74786,0 5.12829,0.413515 7.36312,2.275876 2.28134,1.916329 3.34688,3.991242 3.34688,6.626813 l 0,23.361191 -2.142,0 c -1.04549,0 -2.00204,0.179521 -2.74444,0.736313 -0.74239,0.556798 -1.13794,1.493103 -1.13794,2.40975 0,0.946827 0.39111,1.895821 1.13794,2.476688 0.74683,0.580868 1.69895,0.80325 2.74444,0.80325 l 10.77694,0 c 1.04549,0 1.99761,-0.222382 2.74444,-0.80325 0.74683,-0.580867 1.13793,-1.529861 1.13793,-2.476688 0,-0.916647 -0.39554,-1.852952 -1.13793,-2.40975 -0.7424,-0.556798 -1.69895,-0.736313 -2.74444,-0.736313 l -2.20894,0 0,-24.030566 c 0,-8.331777 -7.38519,-14.659315 -16.73438,-14.659315 z"
     id="path4478"
     style="font-size:medium;font-style:normal;font-variant:normal;font-weight:normal;font-stretch:normal;text-indent:0;text-align:start;text-decoration:none;line-height:125%;letter-spacing:0;word-spacing:0;text-transform:none;direction:ltr;block-progression:tb;writing-mode:lr-tb;text-anchor:start;baseline-shift:baseline;color:#000000;fill:#363636;fill-opacity:1;fill-rule:nonzero;stroke:none;stroke-width:1.10000002;marker:none;visibility:visible;display:inline;overflow:visible;enable-background:accumulate;font-family:Nimbus Mono L;-inkscape-font-specification:Nimbus Mono L" />
  <path
     d="m 166.45857,24.162962 c -1.04549,0 -1.9351,0.179521 -2.6775,0.736312 -0.74239,0.556796 -1.13794,1.493097 -1.13794,2.409751 0,0.946833 0.39111,1.895822 1.13794,2.476688 0.74683,0.580865 1.63201,0.80325 2.6775,0.80325 l 5.45122,0 0,30.858192 -9.60134,0 c -1.04549,0 -1.93511,0.179521 -2.6775,0.736313 -0.7424,0.556798 -1.13794,1.493103 -1.13794,2.40975 0,0.946827 0.32417,1.895821 1.071,2.476688 0.74683,0.580868 1.69895,0.80325 2.74444,0.80325 l 24.62045,0 c 1.04549,0 1.97925,-0.172473 2.74444,-0.736312 0.76518,-0.56383 1.20487,-1.56875 1.20487,-2.543626 0,-0.916647 -0.37855,-1.85561 -1.13794,-2.40975 -0.75938,-0.55414 -1.72433,-0.736313 -2.81137,-0.736313 l -8.59311,0 0,-36.146255 0,-1.13793 -1.20487,-8e-6 z m 5.45122,-16.2658142 0,1.2048752 0,6.024376 0,1.137937 1.20488,0 5.22112,0 0,-2.342813 0,-3.681563 0,-2.3428122 -5.22112,0 z"
     id="path4474"
     style="font-size:medium;font-style:normal;font-variant:normal;font-weight:normal;font-stretch:normal;text-indent:0;text-align:start;text-decoration:none;line-height:125%;letter-spacing:0;word-spacing:0;text-transform:none;direction:ltr;block-progression:tb;writing-mode:lr-tb;text-anchor:start;baseline-shift:baseline;color:#000000;fill:#363636;fill-opacity:1;fill-rule:nonzero;stroke:none;stroke-width:1.10000002;marker:none;visibility:visible;display:inline;overflow:visible;enable-background:accumulate;font-family:Nimbus Mono L;-inkscape-font-specification:Nimbus Mono L" />
  <path
     d="m 278.31679,29.183275 c 8.58252,0 14.86919,4.903058 16.86825,12.517315 l -33.7365,0 c 2.13313,-7.725666 8.27041,-12.517315 16.86825,-12.517315 z m 0,-6.426001 c -13.26787,0 -23.76282,9.772125 -23.76282,22.424066 0,13.542067 11.17767,24.298317 25.16851,24.298317 4.7163,0 10.01815,-1.226049 14.25769,-2.878313 2.11976,-0.826133 3.96917,-1.791231 5.355,-2.811376 1.38583,-1.020144 2.47668,-2.140387 2.47668,-3.681563 0,-1.733761 -1.31334,-3.146063 -3.01218,-3.146063 -0.81015,0 -1.52969,0.404123 -2.27588,0.937125 l -0.0668,0 c -3.62758,2.902064 -10.79592,5.154189 -16.66744,5.154189 -9.70236,0 -16.59082,-5.864772 -18.40782,-14.927065 l 39.69395,0 1.13794,8e-6 0,-1.204883 c 0,-4.614293 -0.31177,-6.807038 -1.74038,-10.174502 -3.75452,-8.656267 -12.21615,-13.98994 -22.15631,-13.98994 z"
     id="path3524"
     style="font-size:medium;font-style:normal;font-variant:normal;font-weight:normal;font-stretch:normal;text-indent:0;text-align:start;text-decoration:none;line-height:125%;letter-spacing:0;word-spacing:0;text-transform:none;direction:ltr;block-progression:tb;writing-mode:lr-tb;text-anchor:start;baseline-shift:baseline;color:#000000;fill:#363636;fill-opacity:1;fill-rule:nonzero;stroke:none;stroke-width:1.10000002;marker:none;visibility:visible;display:inline;overflow:visible;enable-background:accumulate;font-family:Nimbus Mono L;-inkscape-font-specification:Nimbus Mono L" />
</svg>
