<?xml version="1.0" encoding="UTF-8" standalone="no"?>
<!-- Created with Inkscape (http://www.inkscape.org/) -->

<svg
   xmlns:dc="http://purl.org/dc/elements/1.1/"
   xmlns:cc="http://creativecommons.org/ns#"
   xmlns:rdf="http://www.w3.org/1999/02/22-rdf-syntax-ns#"
   xmlns:svg="http://www.w3.org/2000/svg"
   xmlns="http://www.w3.org/2000/svg"
   version="1.1"
   width="1007.0479"
   height="73.959625"
   id="svg3937">
  <defs
     id="defs3053">
    <marker
       refX="0"
       refY="0"
       orient="auto"
       id="DotS"
       style="overflow:visible">
      <path
         d="m -2.5,-1 c 0,2.76 -2.24,5 -5,5 -2.76,0 -5,-2.24 -5,-5 0,-2.76 2.24,-5 5,-5 2.76,0 5,2.24 5,5 z"
         transform="matrix(0.2,0,0,0.2,1.48,0.2)"
         id="path4138"
         style="fill-rule:evenodd;stroke:#000000;stroke-width:1pt" />
    </marker>
    <marker
       refX="0"
       refY="0"
       orient="auto"
       id="DotM"
       style="overflow:visible">
      <path
         d="m -2.5,-1 c 0,2.76 -2.24,5 -5,5 -2.76,0 -5,-2.24 -5,-5 0,-2.76 2.24,-5 5,-5 2.76,0 5,2.24 5,5 z"
         transform="matrix(0.4,0,0,0.4,2.96,0.4)"
         id="path4135"
         style="fill-rule:evenodd;stroke:#000000;stroke-width:1pt" />
    </marker>
    <marker
       refX="0"
       refY="0"
       orient="auto"
       id="DotL"
       style="overflow:visible">
      <path
         d="m -2.5,-1 c 0,2.76 -2.24,5 -5,5 -2.76,0 -5,-2.24 -5,-5 0,-2.76 2.24,-5 5,-5 2.76,0 5,2.24 5,5 z"
         transform="matrix(0.8,0,0,0.8,5.92,0.8)"
         id="path4132"
         style="fill-rule:evenodd;stroke:#000000;stroke-width:1pt" />
    </marker>
    <marker
       refX="0"
       refY="0"
       orient="auto"
       id="DotS-3"
       style="overflow:visible">
      <path
         d="m -2.5,-1 c 0,2.76 -2.24,5 -5,5 -2.76,0 -5,-2.24 -5,-5 0,-2.76 2.24,-5 5,-5 2.76,0 5,2.24 5,5 z"
         transform="matrix(0.2,0,0,0.2,1.48,0.2)"
         id="path4138-1"
         style="fill-rule:evenodd;stroke:#000000;stroke-width:1pt" />
    </marker>
    <marker
       refX="0"
       refY="0"
       orient="auto"
       id="marker6633"
       style="overflow:visible">
      <path
         d="m -2.5,-1 c 0,2.76 -2.24,5 -5,5 -2.76,0 -5,-2.24 -5,-5 0,-2.76 2.24,-5 5,-5 2.76,0 5,2.24 5,5 z"
         transform="matrix(0.2,0,0,0.2,1.48,0.2)"
         id="path6635"
         style="fill-rule:evenodd;stroke:#000000;stroke-width:1pt" />
    </marker>
    <marker
       refX="0"
       refY="0"
       orient="auto"
       id="marker6637"
       style="overflow:visible">
      <path
         d="m -2.5,-1 c 0,2.76 -2.24,5 -5,5 -2.76,0 -5,-2.24 -5,-5 0,-2.76 2.24,-5 5,-5 2.76,0 5,2.24 5,5 z"
         transform="matrix(0.2,0,0,0.2,1.48,0.2)"
         id="path6639"
         style="fill-rule:evenodd;stroke:#000000;stroke-width:1pt" />
    </marker>
    <marker
       refX="0"
       refY="0"
       orient="auto"
       id="marker6641"
       style="overflow:visible">
      <path
         d="m -2.5,-1 c 0,2.76 -2.24,5 -5,5 -2.76,0 -5,-2.24 -5,-5 0,-2.76 2.24,-5 5,-5 2.76,0 5,2.24 5,5 z"
         transform="matrix(0.2,0,0,0.2,1.48,0.2)"
         id="path6643"
         style="fill-rule:evenodd;stroke:#000000;stroke-width:1pt" />
    </marker>
    <marker
       refX="0"
       refY="0"
       orient="auto"
       id="marker6645"
       style="overflow:visible">
      <path
         d="m -2.5,-1 c 0,2.76 -2.24,5 -5,5 -2.76,0 -5,-2.24 -5,-5 0,-2.76 2.24,-5 5,-5 2.76,0 5,2.24 5,5 z"
         transform="matrix(0.2,0,0,0.2,1.48,0.2)"
         id="path6647"
         style="fill-rule:evenodd;stroke:#000000;stroke-width:1pt" />
    </marker>
    <marker
       refX="0"
       refY="0"
       orient="auto"
       id="marker6649"
       style="overflow:visible">
      <path
         d="m -2.5,-1 c 0,2.76 -2.24,5 -5,5 -2.76,0 -5,-2.24 -5,-5 0,-2.76 2.24,-5 5,-5 2.76,0 5,2.24 5,5 z"
         transform="matrix(0.2,0,0,0.2,1.48,0.2)"
         id="path6651"
         style="fill-rule:evenodd;stroke:#000000;stroke-width:1pt" />
    </marker>
    <marker
       refX="0"
       refY="0"
       orient="auto"
       id="marker6653"
       style="overflow:visible">
      <path
         d="m -2.5,-1 c 0,2.76 -2.24,5 -5,5 -2.76,0 -5,-2.24 -5,-5 0,-2.76 2.24,-5 5,-5 2.76,0 5,2.24 5,5 z"
         transform="matrix(0.2,0,0,0.2,1.48,0.2)"
         id="path6655"
         style="fill-rule:evenodd;stroke:#000000;stroke-width:1pt" />
    </marker>
    <marker
       refX="0"
       refY="0"
       orient="auto"
       id="marker6657"
       style="overflow:visible">
      <path
         d="m -2.5,-1 c 0,2.76 -2.24,5 -5,5 -2.76,0 -5,-2.24 -5,-5 0,-2.76 2.24,-5 5,-5 2.76,0 5,2.24 5,5 z"
         transform="matrix(0.2,0,0,0.2,1.48,0.2)"
         id="path6659"
         style="fill-rule:evenodd;stroke:#000000;stroke-width:1pt" />
    </marker>
    <marker
       refX="0"
       refY="0"
       orient="auto"
       id="marker6661"
       style="overflow:visible">
      <path
         d="m -2.5,-1 c 0,2.76 -2.24,5 -5,5 -2.76,0 -5,-2.24 -5,-5 0,-2.76 2.24,-5 5,-5 2.76,0 5,2.24 5,5 z"
         transform="matrix(0.2,0,0,0.2,1.48,0.2)"
         id="path6663"
         style="fill-rule:evenodd;stroke:#000000;stroke-width:1pt" />
    </marker>
  </defs>
  <metadata
     id="metadata3942">
    <rdf:RDF>
      <cc:Work
         rdf:about="">
        <dc:format>image/svg+xml</dc:format>
        <dc:type
           rdf:resource="http://purl.org/dc/dcmitype/StillImage" />
        <dc:title></dc:title>
      </cc:Work>
    </rdf:RDF>
  </metadata>
  <path
     d="M 5.0625,0 C 2.2557047,0 0,2.2557047 0,5.0625 L 0,23.90625 C 5.4657382,16.083027 12.631628,6.4486716 17.875,0 L 5.0625,0 z M 23.875,0 C 18.605128,5.6637822 5.5936622,23.116679 0,31.84375 l 0,2.5625 8.125,0.0625 c 0.93598,-2.177297 3.076006,-3.68306 5.59375,-3.65625 0.473887,0.0051 0.964823,0.07982 1.40625,0.1875 l 10.5,-14.1875 c -0.550285,-0.923529 -0.85608,-2.002717 -0.84375,-3.15625 0.03558,-3.343464 2.750358,-6.066951 6.09375,-6.03125 3.171274,0.033808 5.773287,2.518266 6,5.625 l 16.75,5.625 c 1.123985,-1.278915 2.788967,-2.08199 4.625,-2.0625 3.343521,0.03557 6.00438,2.781595 5.96875,6.125 -0.03558,3.343435 -2.781613,6.00445 -6.125,5.96875 -3.170921,-0.03382 -5.742023,-2.487145 -5.96875,-5.59375 l -16.75,-5.625 c -1.123982,1.278916 -2.757535,2.08199 -4.59375,2.0625 -0.476117,-0.0048 -0.962979,-0.07882 -1.40625,-0.1875 l -10.5,14.21875 c 0.153645,0.257791 0.291735,0.500662 0.40625,0.78125 l 13.34375,0.125 c 0.936921,-2.175003 3.108762,-3.68306 5.625,-3.65625 3.343456,0.03563 6.0044,2.781594 5.96875,6.125 -0.03571,3.343448 -2.750358,6.0357 -6.09375,6 -2.511796,-0.02677 -4.638022,-1.592813 -5.53125,-3.78125 l -13.375,-0.125 c -0.936918,2.175004 -3.108748,3.68306 -5.625,3.65625 -2.510054,-0.02675 -4.6683366,-1.563842 -5.5625,-3.75 L 0,39.09375 l 0,2.6875 c 5.4911721,8.89728 18.148149,26.52564 23.25,32.1875 l 11.0625,0 C 47.3531,70.4737 69.74805,63.097452 71,61.40625 c 1.713845,-2.31362 2.108374,-45.656071 0.4375,-48 C 70.199273,11.665313 47.31151,3.6721639 34.4375,0 L 23.875,0 z M 50.25,0 c 12.479101,4.1722587 24.975281,8.866124 25.9375,10.21875 1.896618,2.661779 1.414216,51.842742 -0.53125,54.46875 -0.949748,1.282258 -12.634096,5.457915 -24.6875,9.28125 l 951.00005,0 c 2.8067,0 5.0937,-2.255715 5.0937,-5.0625 l 0,-63.84375 C 1007.0625,2.2557047 1004.7755,0 1001.9688,0 L 50.25,0 z m 92.65625,17.03125 c 1.02153,0 1.84375,0.822209 1.84375,1.84375 l 0,1.09375 c 0,1.021542 -0.82222,1.84375 -1.84375,1.84375 -1.02155,0 -1.84375,-0.822208 -1.84375,-1.84375 l 0,-1.09375 c 0,-1.021541 0.8222,-1.84375 1.84375,-1.84375 z M 107.5625,25.5625 c 2.40577,0 4.29327,1.39177 5.625,3.71875 2.05266,-2.40847 3.97742,-3.71875 6.3125,-3.71875 3.6827,0 6.65625,3.125876 6.65625,6.84375 l 0,15.34375 1.28125,0 c 0.59999,0 1.13645,0.117958 1.5625,0.4375 0.42606,0.319542 0.65625,0.848939 0.65625,1.375 0,0.543378 -0.22764,1.072885 -0.65625,1.40625 -0.4286,0.333356 -0.96251,0.46875 -1.5625,0.46875 l -4.21875,0 -0.65625,0 0,-0.6875 0,-18.125 c 0,-1.795592 -1.52621,-3.375 -3.09375,-3.375 -0.87446,0 -1.63798,0.25561 -2.5,0.9375 -0.82481,0.652461 -1.74568,1.743056 -2.75,3.25 l 0,14.3125 1.25,0 c 0.6,0 1.13645,0.117958 1.5625,0.4375 0.42606,0.319542 0.625,0.84893 0.625,1.375 0,0.543386 -0.16514,1.072885 -0.59375,1.40625 -0.4286,0.333356 -0.99375,0.46875 -1.59375,0.46875 l -4.21875,0 -0.65625,0 0,-0.6875 0,-17.96875 c 0,-1.86195 -1.55967,-3.53125 -3.03125,-3.53125 -0.83528,0 -1.61311,0.244825 -2.5,0.9375 -0.84906,0.66314 -1.77591,1.800039 -2.78125,3.28125 l 0,14.28125 1.25,0 c 0.60001,0 1.10519,0.117958 1.53125,0.4375 0.42607,0.319542 0.65625,0.84893 0.65625,1.375 0,0.55948 -0.22702,1.143926 -0.65625,1.46875 -0.42923,0.324826 -0.95455,0.40625 -1.53125,0.40625 l -6.21875,0 c -0.5767,0 -1.112951,-0.13411 -1.53125,-0.46875 -0.418308,-0.334649 -0.625,-0.862872 -0.625,-1.40625 0,-0.52607 0.230197,-1.055458 0.65625,-1.375 0.426058,-0.319542 0.96249,-0.4375 1.5625,-0.4375 l 1.25,0 0,-17.6875 -1.25,0 c -0.60001,0 -1.133902,-0.135394 -1.5625,-0.46875 -0.428592,-0.333357 -0.65625,-0.894113 -0.65625,-1.4375 0,-0.526061 0.230197,-1.05545 0.65625,-1.375 0.426058,-0.319543 0.96249,-0.40625 1.5625,-0.40625 l 4.1875,0 0.71875,0 0,0.625 0,1.3125 c 0.58035,-0.641843 1.1249,-1.420647 1.75,-1.8125 1.06203,-0.665753 2.23916,-0.9375 3.53125,-0.9375 z m 64.125,0 c 5.36549,0 9.59375,3.624658 9.59375,8.40625 l 0,13.78125 1.28125,0 c 0.6,0 1.13645,0.117958 1.5625,0.4375 0.42607,0.319542 0.65625,0.848939 0.65625,1.375 0,0.543378 -0.22764,1.072885 -0.65625,1.40625 -0.4286,0.333356 -0.9625,0.46875 -1.5625,0.46875 l -6.1875,0 c -0.60001,0 -1.13391,-0.135394 -1.5625,-0.46875 -0.4286,-0.333365 -0.65625,-0.862872 -0.65625,-1.40625 0,-0.526061 0.23019,-1.055458 0.65625,-1.375 0.42605,-0.319542 0.96249,-0.4375 1.5625,-0.4375 l 1.21875,0 0,-13.40625 c 0,-1.512553 -0.59699,-2.681475 -1.90625,-3.78125 -1.28256,-1.06881 -2.06786,-1.3125 -4.21875,-1.3125 -2.04469,0 -3.47739,0.49371 -4.96875,1.71875 l -0.0312,0 c -0.759,0.556615 -1.35139,1.249096 -2.96875,3.3125 l 0,13.46875 1.875,0 c 0.59999,0 1.13645,0.117958 1.5625,0.4375 0.42606,0.319542 0.625,0.84893 0.625,1.375 0,0.543386 -0.19639,1.072885 -0.625,1.40625 -0.42859,0.333356 -0.96251,0.46875 -1.5625,0.46875 l -7.46875,0 c -0.62385,0 -1.15517,-0.07435 -1.59375,-0.40625 -0.43859,-0.331906 -0.6875,-0.925364 -0.6875,-1.46875 0,-0.52607 0.25168,-1.056978 0.6875,-1.375 0.43579,-0.318013 0.9699,-0.4375 1.59375,-0.4375 l 1.90625,0 0,-17.6875 -1.25,0 c -0.60001,0 -1.16515,-0.135394 -1.59375,-0.46875 -0.4286,-0.333366 -0.65625,-0.894122 -0.65625,-1.4375 0,-0.526061 0.23019,-1.05545 0.65625,-1.375 0.42606,-0.319543 0.99374,-0.40625 1.59375,-0.40625 l 4.25,0 0.6875,0 0,0.625 0,2.46875 c 1.13994,-1.130443 2.26044,-2.268238 3.34375,-2.84375 1.47323,-0.782643 3.00988,-1.0625 4.84375,-1.0625 z m 30.4375,0 c 5.70463,0 10.56402,3.063432 12.71875,8.03125 0.81987,1.932576 1,3.164363 1,5.8125 l 0,0.71875 -0.65625,0 -22.78125,0 c 1.04277,5.200831 4.99434,8.5625 10.5625,8.5625 3.36965,0 7.48064,-1.303261 9.5625,-2.96875 l 0.0312,0 c 0.42824,-0.305893 0.84755,-0.53125 1.3125,-0.53125 0.97495,0 1.71875,0.817505 1.71875,1.8125 0,0.884479 -0.61091,1.508292 -1.40625,2.09375 -0.79532,0.585458 -1.87722,1.150887 -3.09375,1.625 -2.43307,0.948234 -5.44957,1.65625 -8.15625,1.65625 -8.02931,0 -14.46875,-6.165725 -14.46875,-13.9375 0,-7.260926 6.04184,-12.875 13.65625,-12.875 z M 137.5,26.375 c 0.1389,-0.01465 0.25625,0 0.40625,0 l 6.125,0 0.71875,0 0,0.625 0,20.75 4.90625,0 c 0.62385,0 1.1892,0.119477 1.625,0.4375 0.43582,0.318022 0.65625,0.848939 0.65625,1.375 0,0.55948 -0.24837,1.145166 -0.6875,1.46875 -0.43915,0.323586 -0.99375,0.40625 -1.59375,0.40625 l -14.125,0 c -0.60001,0 -1.1339,-0.135394 -1.5625,-0.46875 -0.42861,-0.333365 -0.625,-0.862872 -0.625,-1.40625 0,-0.526061 0.23018,-1.055458 0.65625,-1.375 0.42605,-0.319542 0.93124,-0.4375 1.53125,-0.4375 l 5.53125,0 0,-17.6875 -3.15625,0 c -0.60001,0 -1.10264,-0.135394 -1.53125,-0.46875 -0.4286,-0.333357 -0.65625,-0.894113 -0.65625,-1.4375 0,-0.526069 0.23019,-1.05545 0.65625,-1.375 0.31955,-0.239657 0.70831,-0.362296 1.125,-0.40625 z m 64.625,2.875 c -4.93428,0 -8.46329,2.753759 -9.6875,7.1875 l 19.375,0 C 210.66525,32.067689 207.05051,29.25 202.125,29.25 z M 32.625,48 l 3.28125,0.03125 c 0.769865,0.0081 1.3833,0.636435 1.375,1.40625 l -0.1875,18.1875 c -0.008,0.769872 -0.636374,1.3836 -1.40625,1.375 l -3.28125,-0.03125 c -0.769879,-0.0081 -1.3833,-0.636434 -1.375,-1.40625 l 0.1875,-18.15625 C 31.226769,48.636363 31.855189,47.9914 32.625,48 z m 12.9375,0.125 3.28125,0.0625 c 0.769875,0.0081 1.41455,0.605184 1.40625,1.375 l -0.15625,13.96875 c -0.008,0.769874 -0.667676,1.3836 -1.4375,1.375 l -3.25,-0.03125 C 44.636375,64.866856 43.9917,64.238566 44,63.46875 L 44.15625,49.5 c 0.008,-0.769874 0.636373,-1.3836 1.40625,-1.375 z m 12.96875,0.15625 3.28125,0.03125 c 0.769876,0.0081 1.3835,0.636434 1.375,1.40625 l -0.125,9.75 c -0.008,0.769873 -0.63644,1.35235 -1.40625,1.34375 L 58.375,60.78125 C 57.605124,60.773106 57.02295,60.144816 57.03125,59.375 L 57.125,49.65625 c 0.008,-0.769873 0.636373,-1.3836 1.40625,-1.375 z M 0,50 0,68.90625 c 0,2.806785 2.2557047,5.0625 5.0625,5.0625 l 12.25,0 C 12.256713,67.526391 5.3275092,57.904271 0,50 z"
     id="rect3144"
     style="opacity:0.8;fill:#37c871;fill-opacity:1;fill-rule:nonzero;stroke:none" />
</svg>
