<?xml version="1.0" encoding="UTF-8" standalone="no"?>
<!-- Created with Inkscape (http://www.inkscape.org/) -->

<svg
   xmlns:dc="http://purl.org/dc/elements/1.1/"
   xmlns:cc="http://creativecommons.org/ns#"
   xmlns:rdf="http://www.w3.org/1999/02/22-rdf-syntax-ns#"
   xmlns:svg="http://www.w3.org/2000/svg"
   xmlns="http://www.w3.org/2000/svg"
   version="1.1"
   width="241.46129"
   height="69.689789"
   id="svg3937">
  <defs
     id="defs3053" />
  <metadata
     id="metadata3942">
    <rdf:RDF>
      <cc:Work
         rdf:about="">
        <dc:format>image/svg+xml</dc:format>
        <dc:type
           rdf:resource="http://purl.org/dc/dcmitype/StillImage" />
        <dc:title></dc:title>
      </cc:Work>
    </rdf:RDF>
  </metadata>
  <g
     transform="matrix(1.1111116,0,0,1.1111116,-17.677651,66.596485)"
     id="g4307">
    <path
       d="m 75.674926,-47.601558 c 1.348281,1.89222 1.025492,36.855631 -0.357513,38.7224108 -1.382555,1.8666 -34.733517,12.3632934 -36.93652,11.626105 C 36.178324,2.0125122 15.887877,-26.465109 15.909897,-28.789025 c 0.02021,-2.322561 20.832919,-30.419404 23.049366,-31.116365 2.216457,-0.69697 35.36912,10.413005 36.715829,12.306122 z"
       id="path3203"
       style="fill:#363636" />
    <path
       d="m 39.781956,-58.22637 c -0.120809,-3.94e-4 -0.216559,0.0096 -0.282049,0.03015 -1.843029,0.580084 -17.276024,21.185935 -20.988656,27.645451 l 7.377637,0.07034 c 0.714266,-1.661537 2.375691,-2.816776 4.297034,-2.796296 0.361634,0.0039 0.714056,0.04918 1.050918,0.13135 l 8.024073,-10.831149 c -0.419933,-0.704757 -0.654845,-1.533574 -0.645457,-2.413867 0.02715,-2.551462 2.116694,-4.596842 4.668106,-4.56965 2.420065,0.0258 4.384277,1.907701 4.557286,4.278511 l 12.785064,4.287588 c 0.857736,-0.975967 2.120608,-1.589028 3.521721,-1.574089 2.551512,0.02715 4.596803,2.120825 4.569602,4.672247 -0.02715,2.551452 -2.116694,4.59684 -4.668106,4.569643 -2.419795,-0.0258 -4.384276,-1.907795 -4.557296,-4.278515 l -12.789184,-4.287626 c -0.857735,0.975967 -2.116427,1.589076 -3.517681,1.574137 -0.363334,-0.0037 -0.716729,-0.05259 -1.054999,-0.135538 l -8.020452,10.835316 c 0.117249,0.19673 0.21679,0.402293 0.304185,0.616411 l 10.19465,0.09206 c 0.714983,-1.659786 2.372751,-2.816805 4.292945,-2.796336 2.551462,0.0272 4.596803,2.120825 4.569602,4.67224 -0.02725,2.551461 -2.116695,4.596843 -4.668107,4.569648 -1.916804,-0.02043 -3.546828,-1.204696 -4.228469,-2.874738 l -10.19465,-0.0921 c -0.714983,1.659784 -2.372703,2.812723 -4.292907,2.792255 -1.915474,-0.02042 -3.550193,-1.202395 -4.232547,-2.8707 l -7.377638,-0.07035 C 22.068963,-20.453148 37.122966,0.4352384 38.954816,1.0501343 41.038145,1.7483964 72.578364,-8.1761272 73.885162,-9.9414312 75.19303,-11.707002 75.496717,-44.773224 74.221636,-46.561922 72.98794,-48.296509 43.528211,-58.209865 39.78372,-58.228212 z m 4.82278,38.066207 2.497993,0.02663 c 0.587499,0.0062 1.055403,0.48429 1.049143,1.071751 l -0.147968,13.8814058 c -0.0061,0.587507 -0.484239,1.055404 -1.071748,1.049143 l -2.497983,-0.02663 c -0.587509,-0.0062 -1.055412,-0.484289 -1.049152,-1.07175 l 0.147967,-13.8814088 c 0.0061,-0.587509 0.484289,-1.055408 1.071748,-1.049146 z m 9.883975,0.105351 2.497983,0.02663 c 0.587509,0.0062 1.055412,0.484289 1.049152,1.07175 L 57.92227,-8.3019582 c -0.0061,0.587506 -0.484289,1.055405 -1.071758,1.049145 l -2.497983,-0.02663 c -0.587509,-0.0062 -1.055402,-0.48429 -1.049142,-1.071753 l 0.113576,-10.6544748 c 0.0061,-0.587508 0.484239,-1.055405 1.071748,-1.049144 z m 9.888104,0.105398 2.497983,0.02662 c 0.587509,0.0062 1.055412,0.48429 1.049142,1.07175 l -0.07921,7.427543 c -0.0061,0.587508 -0.484289,1.055405 -1.071748,1.049144 l -2.497983,-0.02663 c -0.587509,-0.0062 -1.055452,-0.484291 -1.049192,-1.071753 l 0.07921,-7.427542 c 0.0061,-0.587508 0.484289,-1.055406 1.071798,-1.049143 z"
       id="path3207"
       style="fill:#f26100;fill-rule:nonzero" />
  </g>
  <path
     d="m 90.738676,18.182505 c -1.79884,0 -3.44174,0.410182 -4.92029,1.337036 -0.87027,0.545539 -1.65219,1.620061 -2.46015,2.513627 l 0,-1.818368 0,-0.909179 -0.96266,-6e-6 -5.82948,0 c -0.83532,0 -1.59958,0.143433 -2.19274,0.588295 -0.59315,0.444867 -0.90918,1.19295 -0.90918,1.925333 0,0.756494 0.31249,1.514715 0.90918,1.978813 0.5967,0.464097 1.35742,0.641777 2.19274,0.641777 l 1.71141,0 0,24.654943 -1.71141,0 c -0.83532,0 -1.59958,0.143433 -2.19274,0.588296 -0.59315,0.444866 -0.90918,1.19295 -0.90918,1.925331 0,0.756495 0.27334,1.512926 0.8557,1.978814 0.58236,0.465887 1.33639,0.641777 2.13926,0.641777 l 8.66399,0 c 0.80287,0 1.54168,-0.136074 2.13926,-0.588295 0.59757,-0.452221 0.90918,-1.253389 0.90918,-2.032296 0,-0.732381 -0.31602,-1.480463 -0.90918,-1.925331 -0.59315,-0.444868 -1.30394,-0.588296 -2.13926,-0.588296 l -1.76489,0 0,-19.895095 c 1.39964,-2.062128 2.72208,-3.622701 3.90415,-4.545922 1.23471,-0.964338 2.31342,-1.337036 3.47629,-1.337036 2.04873,0 4.22503,2.328099 4.22503,4.920292 l 0,25.029313 0,0.962666 0.90919,0 5.882964,0 c 0.83531,0 1.59604,-0.17768 2.19274,-0.641777 0.5967,-0.464097 0.8557,-1.222317 0.8557,-1.978814 0,-0.732384 -0.31603,-1.480465 -0.90918,-1.925331 -0.59316,-0.444867 -1.30395,-0.588296 -2.13926,-0.588296 l -1.764894,0 0,-19.948576 c 1.398204,-2.097953 2.702384,-3.584092 3.850664,-4.492441 1.2001,-0.949322 2.25888,-1.337036 3.4763,-1.337036 2.18231,0 4.27851,2.206559 4.27851,4.706366 l 0,25.243239 0,0.962666 0.90919,0 5.88295,0 c 0.83532,0 1.59604,-0.177678 2.19274,-0.641777 0.5967,-0.464099 0.90919,-1.222322 0.90919,-1.978814 0,-0.732378 -0.31603,-1.480463 -0.90919,-1.925331 -0.59315,-0.444868 -1.35742,-0.588296 -2.19274,-0.588296 l -1.76488,0 0,-21.392575 c 0,-5.175994 -4.12529,-9.519696 -9.25229,-9.519696 -3.25089,0 -5.96676,1.834649 -8.824444,5.187699 -1.85403,-3.239597 -4.459,-5.187699 -7.80829,-5.187699 z"
     id="path4480"
     style="font-size:medium;font-style:normal;font-variant:normal;font-weight:normal;font-stretch:normal;text-indent:0;text-align:start;text-decoration:none;line-height:125%;letter-spacing:0;word-spacing:0;text-transform:none;direction:ltr;block-progression:tb;writing-mode:lr-tb;text-anchor:start;baseline-shift:baseline;color:#000000;fill:#363636;fill-opacity:1;fill-rule:nonzero;stroke:none;stroke-width:1.10000002;marker:none;visibility:visible;display:inline;overflow:visible;enable-background:accumulate;font-family:Nimbus Mono L;-inkscape-font-specification:Nimbus Mono L" />
  <path
     d="m 180.00381,18.182505 c -2.5531,0 -4.68766,0.407889 -6.73867,1.49748 -1.50817,0.801217 -3.06586,2.383834 -4.65288,3.957626 l 0,-3.422811 0,-0.909179 -0.96267,-6e-6 -5.93643,0 c -0.83533,0 -1.59959,0.143433 -2.19275,0.588295 -0.59315,0.444871 -0.90918,1.192953 -0.90918,1.925333 0,0.75649 0.31249,1.514714 0.90918,1.978813 0.5967,0.464098 1.35742,0.641777 2.19275,0.641777 l 1.76488,0 0,24.654943 -2.67407,0 c -0.86852,0 -1.58601,0.145556 -2.19274,0.588296 -0.60673,0.442741 -0.96266,1.192947 -0.96266,1.925331 0,0.756497 0.35207,1.570226 0.96266,2.032296 0.6106,0.462069 1.32422,0.588295 2.19274,0.588295 l 10.42888,0 c 0.83532,0 1.54256,-0.17768 2.13926,-0.641777 0.5967,-0.464097 0.90919,-1.222317 0.90919,-1.978814 0,-0.732384 -0.31604,-1.480465 -0.90919,-1.925331 -0.59316,-0.444867 -1.30394,-0.588296 -2.13926,-0.588296 l -2.62059,0 0,-18.771985 c 2.25168,-2.872654 3.06138,-3.824498 4.11807,-4.599404 l 0.0534,0 c 2.07625,-1.705491 4.0525,-2.406664 6.8991,-2.406664 2.99445,0 4.09738,0.330388 5.88295,1.818369 1.82274,1.5311 2.67408,3.188905 2.67408,5.294662 l 0,18.665022 -1.71141,0 c -0.83532,0 -1.59958,0.143433 -2.19274,0.588296 -0.59315,0.444868 -0.90918,1.192953 -0.90918,1.925331 0,0.756492 0.31249,1.514715 0.90918,1.978814 0.5967,0.464099 1.35742,0.641777 2.19274,0.641777 l 8.61052,0 c 0.83532,0 1.59604,-0.177678 2.19274,-0.641777 0.5967,-0.464099 0.90918,-1.222322 0.90918,-1.978814 0,-0.732378 -0.31603,-1.480463 -0.90918,-1.925331 -0.59316,-0.444868 -1.35742,-0.588296 -2.19274,-0.588296 l -1.76489,0 0,-19.199836 c 0,-6.656887 -5.90059,-11.712435 -13.37036,-11.712435 z"
     id="path4478"
     style="font-size:medium;font-style:normal;font-variant:normal;font-weight:normal;font-stretch:normal;text-indent:0;text-align:start;text-decoration:none;line-height:125%;letter-spacing:0;word-spacing:0;text-transform:none;direction:ltr;block-progression:tb;writing-mode:lr-tb;text-anchor:start;baseline-shift:baseline;color:#000000;fill:#363636;fill-opacity:1;fill-rule:nonzero;stroke:none;stroke-width:1.10000002;marker:none;visibility:visible;display:inline;overflow:visible;enable-background:accumulate;font-family:Nimbus Mono L;-inkscape-font-specification:Nimbus Mono L" />
  <path
     d="m 132.99634,19.305615 c -0.83532,0 -1.5461,0.143433 -2.13926,0.588295 -0.59315,0.444867 -0.90918,1.192948 -0.90918,1.925333 0,0.756496 0.31249,1.514715 0.90918,1.978813 0.5967,0.464097 1.30394,0.641777 2.13926,0.641777 l 4.35539,0 0,24.654943 -7.67123,0 c -0.83532,0 -1.54611,0.143433 -2.13926,0.588296 -0.59316,0.444868 -0.90919,1.192953 -0.90919,1.925331 0,0.756492 0.25901,1.514715 0.85571,1.978814 0.5967,0.464099 1.35742,0.641777 2.19274,0.641777 l 19.67114,0 c 0.83532,0 1.58137,-0.137802 2.19274,-0.588295 0.61136,-0.450487 0.96266,-1.253393 0.96266,-2.032296 0,-0.732378 -0.30245,-1.482587 -0.90919,-1.925331 -0.60672,-0.442744 -1.3777,-0.588296 -2.24621,-0.588296 l -6.86569,0 0,-28.879976 0,-0.909179 -0.96266,-6e-6 z"
     id="path3059"
     style="font-size:medium;font-style:normal;font-variant:normal;font-weight:normal;font-stretch:normal;text-indent:0;text-align:start;text-decoration:none;line-height:125%;letter-spacing:0;word-spacing:0;text-transform:none;direction:ltr;block-progression:tb;writing-mode:lr-tb;text-anchor:start;baseline-shift:baseline;color:#000000;fill:#363636;fill-opacity:1;fill-rule:nonzero;stroke:none;stroke-width:1.10000002;marker:none;visibility:visible;display:inline;overflow:visible;enable-background:accumulate;font-family:Nimbus Mono L;-inkscape-font-specification:Nimbus Mono L" />
  <path
     d="m 222.36833,23.316723 c 6.85723,0 11.88012,3.917423 13.47732,10.001029 l -26.95464,0 c 1.70432,-6.172619 6.60786,-10.001029 13.47732,-10.001029 z m 0,-5.134218 c -10.6007,0 -18.98591,7.807689 -18.98591,17.916281 0,10.819782 8.93068,19.413763 20.10902,19.413763 3.76821,0 8.00426,-0.979583 11.39155,-2.299702 1.69364,-0.66006 3.17127,-1.43115 4.27851,-2.246221 1.10725,-0.81507 1.97881,-1.710117 1.97881,-2.941479 0,-1.385233 -1.04933,-2.513627 -2.40666,-2.513627 -0.64729,0 -1.22218,0.322884 -1.81837,0.74874 l -0.0534,0 c -2.89835,2.318678 -8.62568,4.118071 -13.31688,4.118071 -7.75195,0 -13.25566,-4.68581 -14.7074,-11.926361 l 31.7145,0 0.90919,6e-6 0,-0.962672 c 0,-3.686707 -0.2491,-5.438657 -1.39053,-8.129179 -2.99977,-6.916146 -9.7604,-11.17762 -17.70235,-11.17762 z"
     id="path3524"
     style="font-size:medium;font-style:normal;font-variant:normal;font-weight:normal;font-stretch:normal;text-indent:0;text-align:start;text-decoration:none;line-height:125%;letter-spacing:0;word-spacing:0;text-transform:none;direction:ltr;block-progression:tb;writing-mode:lr-tb;text-anchor:start;baseline-shift:baseline;color:#000000;fill:#363636;fill-opacity:1;fill-rule:nonzero;stroke:none;stroke-width:1.10000002;marker:none;visibility:visible;display:inline;overflow:visible;enable-background:accumulate;font-family:Nimbus Mono L;-inkscape-font-specification:Nimbus Mono L" />
  <path
     d="m 139.91883,6.3096261 c 1.42217,0 2.56711,1.1449311 2.56711,2.5671101 l 0,1.5509588 c 0,1.422179 -1.14494,2.56711 -2.56711,2.56711 -1.42218,0 -2.56711,-1.144931 -2.56711,-2.56711 l 0,-1.5509588 c 0,-1.422179 1.14493,-2.5671101 2.56711,-2.5671101 z"
     id="rect3061"
     style="fill:#363636;fill-opacity:1;fill-rule:nonzero;stroke:none" />
</svg>
