<?xml version="1.0" encoding="UTF-8" standalone="no"?>
<!-- Created with Inkscape (http://www.inkscape.org/) -->

<svg
   xmlns:dc="http://purl.org/dc/elements/1.1/"
   xmlns:cc="http://creativecommons.org/ns#"
   xmlns:rdf="http://www.w3.org/1999/02/22-rdf-syntax-ns#"
   xmlns:svg="http://www.w3.org/2000/svg"
   xmlns="http://www.w3.org/2000/svg"
   version="1.1"
   width="335.33313"
   height="84.953224"
   id="svg3937">
  <defs
     id="defs3053" />
  <metadata
     id="metadata3942">
    <rdf:RDF>
      <cc:Work
         rdf:about="">
        <dc:format>image/svg+xml</dc:format>
        <dc:type
           rdf:resource="http://purl.org/dc/dcmitype/StillImage" />
        <dc:title></dc:title>
      </cc:Work>
    </rdf:RDF>
  </metadata>
  <path
     d="m 186.23064,0.702103 3.96139,0 c 2.63133,0 4.74965,2.118394 4.74965,4.749646 l 0,2.478483 c 0,2.631252 -2.1184,4.749646 -4.74965,4.749646 l -3.95718,0 c -2.63125,0 -4.74964,-2.118394 -4.74964,-4.749646 l 0,-2.47912 c 0,-2.631252 2.11839,-4.749645 4.74964,-4.749645 z m -6.98679,17.236302 c -2.96589,0 -3.87844,0.114063 -4.90519,0.798513 -1.71115,1.026671 -2.73774,2.965895 -2.73774,4.905197 0,1.825184 0.91255,3.536329 2.39562,4.56292 1.02667,0.912553 2.39562,1.140711 5.24739,1.140711 l 3.46595,0 0,27.035403 -8.48534,0 c -2.96598,0 -3.76441,0.114071 -4.79116,0.798513 -1.71114,1.026671 -2.73774,2.965897 -2.73774,4.905195 0,1.825184 0.91264,3.536329 2.39562,4.562921 0.91255,0.798513 2.50966,1.14071 5.13336,1.14071 l 28.94401,0 c 2.2815,0 3.99264,-0.342221 4.79115,-0.798513 1.71115,-1.140711 2.73774,-2.965894 2.73774,-4.905197 0,-1.82518 -0.91255,-3.536327 -2.39562,-4.677038 -1.14071,-0.798513 -2.05334,-1.02667 -5.13335,-1.02667 l -8.60323,0 0,-38.445687 m 114.96197,8.678591 0.0396,0 c 7.05317,0.05436 12.85684,4.632902 14.89269,10.970508 l -14.95234,-0.17824 -0.0397,0 -14.93246,-0.05938 c 0.7638,-2.213426 2.04118,-4.298816 3.82207,-6.079784 3.46824,-3.006531 6.95218,-4.550783 11.17011,-4.653102 z m -7.78282,-8.871837 c -0.40755,0.127567 -0.80606,0.267865 -1.20798,0.415885 -8.90876,3.233713 -15.24682,11.305267 -16.63502,20.595656 -0.41891,2.850666 -0.33681,5.875352 0.17833,8.63435 2e-4,7.96e-4 0.0196,-7.95e-4 0.0198,0 0.93951,4.939314 3.30658,9.663909 7.10956,13.466804 l 0.0593,0.0396 c 10.10686,10.043244 26.59403,10.042448 36.67704,-0.0396 1.88352,-1.875312 1.88726,-5.297295 0.008,-7.176718 -1.87943,-1.879424 -5.3014,-1.875688 -7.17672,0.0079 -6.23661,6.236607 -16.181,6.236607 -22.41737,0 -1.81739,-1.817391 -3.10356,-3.954393 -3.86175,-6.218398 l 14.89269,0.07918 0.0198,0 20.89287,0.198041 4.4954,0.05938 c 0.35254,-1.715439 0.53471,-3.500383 0.53471,-5.327158 -0.29111,-4.879414 -1.39753,-9.147534 -3.26759,-12.991642 -1.13499,-1.965864 -2.51411,-3.761703 -4.11917,-5.366841 -6.50124,-5.529227 -15.82749,-9.219337 -26.20189,-6.37641 z m -78.26948,50.042852 c -5.01145,0 -7.51713,-1.898268 -7.51713,-5.694803 0,-3.796534 2.50568,-5.694722 7.51713,-5.694802 l 0.68335,0 0,-26.993255 c -4.63171,-0.151822 -6.94765,-2.050081 -6.94765,-5.694803 0,-3.796456 2.5437,-5.694724 7.63101,-5.694803 l 10.70648,0 0,5.466963 c 2.73344,-2.581548 5.23913,-4.365936 7.51713,-5.353083 2.27784,-1.063014 4.97343,-1.594481 8.08692,-1.594561 5.92256,5e-5 10.78203,1.670508 14.57857,5.011363 3.79645,3.340936 5.69472,8.048751 5.6948,14.122889 l 0,20.729051 c 4.63171,8e-6 6.94756,1.898268 6.94764,5.694802 -6e-5,3.796535 -2.50576,5.694803 -7.51712,5.694803 l -10.13708,0 c -5.08739,0 -7.63109,-1.898268 -7.63101,-5.694803 -5e-5,-3.796534 2.31586,-5.694722 6.94765,-5.694802 l 0,-20.273371 c -4e-5,-5.466963 -3.41689,-8.200644 -10.25081,-8.200644 -2.65757,4.2e-5 -5.04937,0.569512 -7.1754,1.708441 -2.05016,1.138961 -4.40395,3.151109 -7.06153,6.036444 l 0,20.729051 0.68337,0 c 5.01137,8e-6 7.51705,1.898268 7.51713,5.694801 -4e-5,3.796536 -2.50576,5.694803 -7.51713,5.694803 l -12.75664,0 m -127.528808,0 c -5.08731,0 -7.631,-1.898267 -7.631,-5.694803 0,-3.796533 2.27792,-5.694722 6.83368,-5.694801 l 0,-26.993255 c -4.55584,-0.151822 -6.83368,-2.050081 -6.83368,-5.694803 0,-3.796456 2.54369,-5.694724 7.631,-5.694803 l 10.591968,0 0,2.733521 c 3.49275,-2.809388 6.71981,-4.214043 9.6814,-4.214122 4.32801,4.9e-5 8.20065,1.860334 11.61705,5.580843 3.41681,-3.720509 7.36515,-5.580843 11.84529,-5.580843 4.25205,4.9e-5 7.78282,1.442747 10.59197,4.328002 2.88525,2.809468 4.32792,6.34023 4.328,10.591968 l 0,24.943094 c 4.55576,8e-6 6.83368,1.898268 6.83376,5.694802 -7e-5,3.796535 -2.50576,5.694803 -7.51712,5.694803 l -10.70649,0 0,-35.421339 c -5e-5,-1.670428 -0.30377,-2.809389 -0.9112,-3.416882 -0.53156,-0.683329 -1.55662,-1.025001 -3.07516,-1.025081 -1.51861,4.2e-5 -2.88541,0.341728 -4.10024,1.025081 -1.13896,0.683408 -2.65757,2.050161 -4.55584,4.100242 l 0,23.348613 c 2.12603,8e-6 3.79645,0.531523 5.01136,1.594561 1.21483,0.987067 1.82224,2.353866 1.82232,4.10024 -5e-5,3.796536 -2.50576,5.694803 -7.51712,5.694803 l -10.70649,0 0,-35.421339 c -1e-5,-1.594481 -0.30374,-2.733442 -0.9112,-3.416882 -0.60747,-0.683328 -1.63249,-1.025001 -3.07516,-1.02508 -2.73352,4.1e-5 -5.61885,1.708441 -8.65632,5.125323 l 0,23.348612 c 4.63171,8e-6 6.94756,1.898268 6.94764,5.694802 -2e-5,3.796535 -2.50568,5.694803 -7.51712,5.694803 l -10.022568,0 M 80.670462,16.180366 c 1.85333,2.543245 1.92091,49.900168 0.0748,52.448383 C 78.899753,71.176716 33.882816,85.874236 30.88857,84.907636 27.894945,83.944746 0.003729,45.669342 1e-6,42.521656 -0.006211,39.375834 27.775673,1.022771 30.767434,0.046846 33.759195,-0.92908 78.81949,13.638984 80.670712,16.183472 z"
     id="path3167"
     style="fill:#363636" />
  <path
     d="M 31.905868,2.30893 C 31.742241,2.31013 31.612718,2.32496 31.524319,2.35384 29.03661,3.166076 8.432594,31.296149 3.497678,40.098114 l 9.992831,-0.01124 c 0.943374,-2.260594 3.17682,-3.84916 5.779268,-3.84916 0.489826,0 0.967787,0.05628 1.425187,0.162721 l 10.710952,-14.78487 c -0.578908,-0.948406 -0.909021,-2.067521 -0.909021,-3.259877 0,-3.455932 2.800366,-6.256235 6.256235,-6.256235 3.277955,0 5.965322,2.520385 6.233872,5.728763 l 17.377188,5.622287 c 1.147567,-1.334178 2.849069,-2.182694 4.746874,-2.182694 3.455994,0 6.256235,2.805957 6.256235,6.261826 0,3.455932 -2.800365,6.256236 -6.256235,6.256236 -3.277581,0 -5.965321,-2.520509 -6.233871,-5.728764 L 41.494414,22.434825 c -1.147567,1.334178 -2.843416,2.182693 -4.741408,2.182693 -0.492125,0 -0.971453,-0.06095 -1.430778,-0.16833 L 24.616246,39.239646 c 0.161639,0.264742 0.299424,0.54171 0.420872,0.830437 l 13.80832,-0.02249 c 0.944368,-2.258234 3.172845,-3.849159 5.773739,-3.849159 3.455931,0 6.256235,2.805955 6.256235,6.261826 0,3.455931 -2.800366,6.256234 -6.256235,6.256234 -2.596297,0 -4.820985,-1.580365 -5.768273,-3.832324 l -13.80832,0.02243 c -0.944368,2.258234 -3.172845,3.843631 -5.773739,3.843631 -2.594495,0 -4.82552,-1.577198 -5.773739,-3.826796 l -9.992831,0.01125 c 4.959516,8.78767 25.64926,36.860281 28.139081,37.666611 2.831613,0.91561 45.40445,-12.980861 47.148817,-15.390546 1.745799,-2.410057 1.679759,-47.197271 -0.07296,-49.601365 C 77.021331,15.277974 36.979811,2.27723 31.908229,2.306427 z m 7.081206,51.484883 3.383499,0 c 0.795773,0 1.436367,0.640657 1.436367,1.436368 v 18.802251 c 0,0.795774 -0.640594,1.436368 -1.436367,1.436368 h -3.383499 c -0.795774,0 -1.436368,-0.640657 -1.436368,-1.436368 V 55.230181 c 0,-0.795774 0.640657,-1.436368 1.436368,-1.436368 z m 13.387759,0 3.383498,0 c 0.795774,0 1.436369,0.640657 1.436369,1.436368 v 14.431397 c 0,0.795773 -0.640657,1.436369 -1.436369,1.436369 h -3.383498 c -0.795774,0 -1.436368,-0.640657 -1.436368,-1.436369 V 55.230181 c 0,-0.795774 0.640594,-1.436368 1.436368,-1.436368 z m 13.39335,0 3.383498,0 c 0.795774,0 1.436369,0.640657 1.436369,1.436368 v 10.060543 c 0,0.795774 -0.640657,1.436368 -1.436369,1.436368 h -3.383498 c -0.795773,0 -1.43643,-0.640657 -1.43643,-1.436368 V 55.230181 c 0,-0.795774 0.640657,-1.436368 1.43643,-1.436368 z"
     id="path5422"
     style="fill:#f26100;fill-rule:nonzero" />
</svg>
